<svg width="144" height="144" viewBox="0 0 144 144" fill="none" xmlns="http://www.w3.org/2000/svg">
<path d="M15.9782 78.8343C15.9782 78.8343 16.6464 99.5703 33.9581 113.394C51.2698 127.218 75.2602 128.206 94.68 129.522C114.1 130.838 129.018 119.84 131.256 103.222C133.494 86.6045 118.665 81.7258 110.612 62.807C102.56 43.8883 103.288 37.6704 86.2531 26.0352C69.2179 14.4 42.5664 21.5453 28.5955 41.472C14.6246 61.3987 15.9782 78.8343 15.9782 78.8343Z" fill="#F4EFF5"/>
<path opacity="0.7" d="M15.9782 78.8343C15.9782 78.8343 16.6464 99.5703 33.9581 113.394C51.2698 127.218 75.2602 128.206 94.68 129.522C114.1 130.838 129.018 119.84 131.256 103.222C133.494 86.6045 118.665 81.7258 110.612 62.807C102.56 43.8883 103.288 37.6704 86.2531 26.0352C69.2179 14.4 42.5664 21.5453 28.5955 41.472C14.6246 61.3987 15.9782 78.8343 15.9782 78.8343Z" fill="white"/>
<path d="M67.0004 77.1811L59.6016 76.6944V76.5734L58.6916 76.6339L57.7844 76.5734V76.6944L50.3856 77.1811L44.928 122.052H50.3856L58.5101 86.2761H58.8759L67.0004 122.052H72.458L67.0004 77.1811Z" fill="#263238" stroke="#263238" stroke-width="1.16634" stroke-linecap="round" stroke-linejoin="round"/>
<path d="M44.9281 122.049L43.5946 124.111L39.4705 125.931C39.2532 126.051 39.0716 126.226 38.9441 126.439C38.8166 126.652 38.7478 126.895 38.7447 127.143V128.719H50.5066C50.5759 127.872 50.5759 127.02 50.5066 126.173C50.3856 124.96 50.3856 122.049 50.3856 122.049H44.9281Z" fill="#4C4C4C" stroke="#263238" stroke-width="1.16634" stroke-linecap="round" stroke-linejoin="round"/>
<path d="M38.7447 127.385V128.719H50.5066C50.5066 128.719 50.5613 128.143 50.5613 127.385H38.7447Z" fill="#263238" stroke="#263238" stroke-width="1.16634" stroke-linecap="round" stroke-linejoin="round"/>
<path d="M72.4349 122.049L73.7684 124.111L77.8925 125.931C78.1098 126.051 78.2914 126.226 78.4189 126.439C78.5464 126.652 78.6152 126.895 78.6183 127.143V128.719H66.8564C66.7871 127.872 66.7871 127.02 66.8564 126.173C66.9773 124.96 66.9773 122.049 66.9773 122.049H72.4349Z" fill="#4C4C4C" stroke="#263238" stroke-width="1.16634" stroke-linecap="round" stroke-linejoin="round"/>
<path d="M78.624 127.385V128.719H66.8564C66.8564 128.719 66.8045 128.143 66.8016 127.385H78.624Z" fill="#263238" stroke="#263238" stroke-width="1.16634" stroke-linecap="round" stroke-linejoin="round"/>
<path d="M47.2522 56.3069C47.2522 56.3069 38.6122 68.449 38.6122 69.3389C38.6122 70.2288 39.9859 77.1005 42.169 77.7456C44.352 78.3907 45.5645 77.2618 45.9677 74.9981C46.3709 72.7344 44.9971 69.5002 44.9971 69.5002L49.0291 65.8627L47.2522 56.3069Z" fill="#F4EFF5" stroke="#263238" stroke-width="1.16634" stroke-linecap="round" stroke-linejoin="round"/>
<path d="M45.576 74.6755C45.576 74.6755 48.0816 74.2694 48.7296 74.4307C49.3776 74.592 49.8615 76.1299 49.8615 76.1299C49.8615 76.1299 50.1034 78.3936 49.6973 78.8774C49.2912 79.3613 47.353 79.9286 46.5466 80.0899C45.7402 80.2512 44.0381 78.3936 43.3786 77.2618C42.7191 76.1299 43.8768 74.1888 45.576 74.6755Z" fill="#CCCCCC" stroke="#263238" stroke-width="1.16634" stroke-linecap="round" stroke-linejoin="round"/>
<path d="M49.0695 55.7568L47.2522 56.3069L50.1149 75.4157H67.13L69.7191 56.4163L67.4064 55.535L58.8701 53.663L49.0695 55.7568Z" fill="#F4EFF5" stroke="#263238" stroke-width="1.16634" stroke-linecap="round" stroke-linejoin="round"/>
<path d="M68.0659 62.1446L67.6829 64.8979L64.7079 65.6122L61.6781 64.4026L61.8999 61.9229L68.0659 62.1446Z" fill="#263238" stroke="#263238" stroke-width="1.16634" stroke-linecap="round" stroke-linejoin="round"/>
<path d="M64.9008 64.8979C65.1903 64.8979 65.425 64.6633 65.425 64.3738C65.425 64.0843 65.1903 63.8496 64.9008 63.8496C64.6113 63.8496 64.3766 64.0843 64.3766 64.3738C64.3766 64.6633 64.6113 64.8979 64.9008 64.8979Z" fill="#4C4C4C" stroke="#263238" stroke-width="1.16634" stroke-linecap="round" stroke-linejoin="round"/>
<path d="M57.0528 57.1882L58.6512 59.0602L56.6122 72.0547L58.7607 75.4704L61.2951 71.8906L59.1466 59.1149L60.9639 57.3523L59.0371 54.8755L57.0528 57.1882Z" fill="#263238" stroke="#263238" stroke-width="1.16634" stroke-linecap="round" stroke-linejoin="round"/>
<path d="M55.512 53.9395L48.1882 55.7568L48.4099 56.6381L55.5667 54.6538L55.512 53.9395Z" fill="#263238" stroke="#263238" stroke-width="1.16634" stroke-linecap="round" stroke-linejoin="round"/>
<path d="M61.5139 53.7177L68.8378 55.535L68.6189 56.4163L61.4592 54.4349L61.5139 53.7177Z" fill="#263238" stroke="#263238" stroke-width="1.16634" stroke-linecap="round" stroke-linejoin="round"/>
<path d="M68.832 55.535C68.832 55.535 71.6026 56.16 73.2989 57.1306C74.9952 58.1011 75.4013 60.2842 74.4308 62.7091C73.4602 65.1341 70.4708 64.8115 69.097 64.1491C67.7232 63.4867 67.3172 61.079 67.5591 60.0278" fill="#F4EFF5"/>
<path d="M68.832 55.535C68.832 55.535 71.6026 56.16 73.2989 57.1306C74.9952 58.1011 75.4013 60.2842 74.4308 62.7091C73.4602 65.1341 70.4708 64.8115 69.097 64.1491C67.7232 63.4867 67.3172 61.079 67.5591 60.0278" stroke="#263238" stroke-width="1.16634" stroke-linecap="round" stroke-linejoin="round"/>
<path d="M55.8432 53.0035L55.0167 53.5536L55.2355 59.1149L58.8154 56.5834L62.5594 59.1696L62.8906 53.663L61.8999 52.8365L55.8432 53.0035Z" fill="#F4EFF5" stroke="#263238" stroke-width="1.16634" stroke-linecap="round" stroke-linejoin="round"/>
<path d="M63.072 46.3882C63.072 46.3882 65.1053 45.8928 65.4883 43.8595C65.8714 41.8262 62.208 39.3523 59.6679 38.9146C57.1277 38.4768 53.4039 41.112 52.7991 42.9264C52.1943 44.7408 54.5559 46.5523 57.0845 46.9382C59.6131 47.3242 63.072 46.3882 63.072 46.3882Z" fill="#263238" stroke="#263238" stroke-width="1.16634" stroke-linecap="round" stroke-linejoin="round"/>
<path d="M55.4919 46.7194C55.4919 46.7194 54.3917 45.0144 54.1181 46.4976C53.8445 47.9808 54.9965 48.6403 55.4919 48.5856C55.9872 48.5309 55.4919 46.7194 55.4919 46.7194Z" fill="#CCCCCC" stroke="#263238" stroke-width="1.16634" stroke-linecap="round" stroke-linejoin="round"/>
<path d="M62.6371 46.7194C62.6371 46.7194 63.7373 45.0144 64.0109 46.4976C64.2845 47.9808 63.1469 48.6403 62.6371 48.5856C62.1274 48.5309 62.6371 46.7194 62.6371 46.7194Z" fill="#CCCCCC" stroke="#263238" stroke-width="1.16634" stroke-linecap="round" stroke-linejoin="round"/>
<path d="M55.7338 50.0832V53.7178L58.8154 56.5834L62.2858 53.6083V50.1955L55.7338 50.0832Z" fill="#CCCCCC" stroke="#263238" stroke-width="1.16634" stroke-linecap="round" stroke-linejoin="round"/>
<path d="M55.273 45.6192C55.273 45.6192 55.1059 49.0262 55.3824 50.1264C55.6589 51.2265 57.4704 53.5334 58.8989 54.0288C60.3274 54.5241 62.3059 51.5549 62.7466 50.5728C63.1872 49.5907 63.0202 45.4061 63.0202 45.4061C63.0202 45.4061 62.4183 43.9661 61.2087 43.5398C59.9991 43.1136 56.2608 42.336 55.273 45.6192Z" fill="#CCCCCC" stroke="#263238" stroke-width="1.16634" stroke-linecap="round" stroke-linejoin="round"/>
<path d="M57.5568 47.4278C57.5568 47.687 57.4388 47.8973 57.2919 47.8973C57.145 47.8973 57.0269 47.687 57.0269 47.4278C57.0269 47.1686 57.145 46.9584 57.2919 46.9584C57.4388 46.9584 57.5568 47.1686 57.5568 47.4278Z" fill="#263238"/>
<path d="M60.9293 47.4278C60.9293 47.687 60.8113 47.8973 60.6644 47.8973C60.5175 47.8973 60.3994 47.687 60.3994 47.4278C60.3994 47.1686 60.5175 46.9584 60.6644 46.9584C60.8113 46.9584 60.9293 47.1686 60.9293 47.4278Z" fill="#263238"/>
<path d="M58.1299 48.7411C58.0757 48.7282 58.0194 48.7277 57.965 48.7397C57.9106 48.7517 57.8596 48.7758 57.8159 48.8103C57.7722 48.8448 57.7369 48.8888 57.7126 48.9389C57.6883 48.989 57.6757 49.044 57.6757 49.0997C57.6757 49.1554 57.6883 49.2103 57.7126 49.2605C57.7369 49.3106 57.7722 49.3545 57.8159 49.389C57.8596 49.4236 57.9106 49.4477 57.965 49.4597C58.0194 49.4717 58.0757 49.4712 58.1299 49.4582C58.2456 49.4607 58.3585 49.423 58.4496 49.3517C58.5347 49.4518 58.6402 49.5325 58.759 49.5886C58.8777 49.6448 59.0071 49.6749 59.1385 49.6771C59.2698 49.6793 59.4001 49.6534 59.5207 49.6013C59.6413 49.5492 59.7494 49.4719 59.8378 49.3747C59.9234 49.4303 60.0236 49.4594 60.1258 49.4582C60.1799 49.4712 60.2363 49.4717 60.2907 49.4597C60.3451 49.4477 60.3961 49.4236 60.4398 49.389C60.4835 49.3545 60.5188 49.3106 60.5431 49.2605C60.5674 49.2103 60.58 49.1554 60.58 49.0997C60.58 49.044 60.5674 48.989 60.5431 48.9389C60.5188 48.8888 60.4835 48.8448 60.4398 48.8103C60.3961 48.7758 60.3451 48.7517 60.2907 48.7397C60.2363 48.7277 60.1799 48.7282 60.1258 48.7411" fill="#CCCCCC"/>
<path d="M58.1299 48.7411C58.0757 48.7282 58.0194 48.7277 57.965 48.7397C57.9106 48.7517 57.8596 48.7758 57.8159 48.8103C57.7722 48.8448 57.7369 48.8888 57.7126 48.9389C57.6883 48.989 57.6757 49.044 57.6757 49.0997C57.6757 49.1554 57.6883 49.2103 57.7126 49.2605C57.7369 49.3106 57.7722 49.3545 57.8159 49.389C57.8596 49.4236 57.9106 49.4477 57.965 49.4597C58.0194 49.4717 58.0757 49.4712 58.1299 49.4582C58.2456 49.4607 58.3585 49.423 58.4496 49.3517C58.5347 49.4518 58.6402 49.5325 58.759 49.5886C58.8777 49.6448 59.0071 49.6749 59.1385 49.6771C59.2698 49.6793 59.4001 49.6534 59.5207 49.6013C59.6413 49.5492 59.7494 49.4719 59.8378 49.3747C59.9234 49.4303 60.0236 49.4594 60.1258 49.4582C60.1799 49.4712 60.2363 49.4717 60.2907 49.4597C60.3451 49.4477 60.3961 49.4236 60.4398 49.389C60.4835 49.3545 60.5188 49.3106 60.5431 49.2605C60.5674 49.2103 60.58 49.1554 60.58 49.0997C60.58 49.044 60.5674 48.989 60.5431 48.9389C60.5188 48.8888 60.4835 48.8448 60.4398 48.8103C60.3961 48.7758 60.3451 48.7517 60.2907 48.7397C60.2363 48.7277 60.1799 48.7282 60.1258 48.7411" stroke="#263238" stroke-width="1.16634" stroke-linecap="round" stroke-linejoin="round"/>
<path d="M58.5677 50.9962H59.7168" stroke="#263238" stroke-width="1.16634" stroke-linecap="round" stroke-linejoin="round"/>
<path d="M55.1462 46.4458C55.1462 46.4458 55.1866 47.5517 55.5552 47.2637C55.9238 46.9757 56.0448 45.0979 55.7194 44.8531C55.3939 44.6083 55.1462 45.8755 55.1462 46.4458Z" fill="#263238" stroke="#263238" stroke-width="1.16634" stroke-linecap="round" stroke-linejoin="round"/>
<path d="M62.2397 46.4458C62.2397 46.4458 62.2829 47.5517 62.6486 47.2637C63.0144 46.9757 63.1411 45.0979 62.8128 44.8531C62.4845 44.6083 62.2397 45.8755 62.2397 46.4458Z" fill="#263238" stroke="#263238" stroke-width="1.16634" stroke-linecap="round" stroke-linejoin="round"/>
<path d="M55.1463 45.5472C55.1463 45.5472 55.2701 45.648 55.2672 45.697C55.8 45.985 57.024 46.5149 59.0112 46.6214C60.4206 46.6701 61.816 46.3282 63.0432 45.6336C63.0432 45.4867 63.0432 45.4003 63.0432 45.3974C62.9943 44.1101 62.0381 43.2518 60.8544 42.9235C59.6909 42.6032 58.4552 42.6647 57.3293 43.0992C56.7583 43.3145 56.2545 43.6772 55.8691 44.1504C55.7223 44.3117 54.9447 45.3859 55.1463 45.5472Z" fill="#4C4C4C" stroke="#263238" stroke-width="1.16634" stroke-linecap="round" stroke-linejoin="round"/>
<path d="M55.273 45.6192C56.5012 45.8909 57.7623 45.983 59.017 45.8928C61.3815 45.7834 63.026 45.6192 63.026 45.6192C61.9394 46.6378 60.5368 47.2537 59.0516 47.3645C58.3262 47.4116 57.6005 47.2766 56.9406 46.9718C56.2807 46.667 55.7074 46.202 55.273 45.6192Z" fill="#4C4C4C" stroke="#263238" stroke-width="1.16634" stroke-linecap="round" stroke-linejoin="round"/>
<path d="M49.2365 62.1446L49.6195 64.8979L52.5946 65.6122L55.6215 64.4026L55.4026 61.9229L49.2365 62.1446Z" fill="#263238" stroke="#263238" stroke-width="1.16634" stroke-linecap="round" stroke-linejoin="round"/>
<path d="M52.4016 64.8979C52.6911 64.8979 52.9258 64.6633 52.9258 64.3738C52.9258 64.0843 52.6911 63.8496 52.4016 63.8496C52.1121 63.8496 51.8774 64.0843 51.8774 64.3738C51.8774 64.6633 52.1121 64.8979 52.4016 64.8979Z" fill="#4C4C4C" stroke="#263238" stroke-width="1.16634" stroke-linecap="round" stroke-linejoin="round"/>
<path d="M67.3229 75.24H49.8615V77.9875H67.3229V75.24Z" fill="#4C4C4C" stroke="#263238" stroke-width="1.16634" stroke-linecap="round" stroke-linejoin="round"/>
<path d="M53.2167 75.4013H49.4179C48.9933 75.4013 48.649 75.7456 48.649 76.1702V78.0278C48.649 78.4525 48.9933 78.7968 49.4179 78.7968H53.2167C53.6414 78.7968 53.9856 78.4525 53.9856 78.0278V76.1702C53.9856 75.7456 53.6414 75.4013 53.2167 75.4013Z" fill="#4C4C4C" stroke="#263238" stroke-width="1.16634" stroke-linecap="round" stroke-linejoin="round"/>
<path d="M67.1213 75.4013H63.3226C62.8979 75.4013 62.5536 75.7456 62.5536 76.1702V78.0278C62.5536 78.4525 62.8979 78.7968 63.3226 78.7968H67.1213C67.546 78.7968 67.8903 78.4525 67.8903 78.0278V76.1702C67.8903 75.7456 67.546 75.4013 67.1213 75.4013Z" fill="#4C4C4C" stroke="#263238" stroke-width="1.16634" stroke-linecap="round" stroke-linejoin="round"/>
<path d="M60.7738 75.4013H56.975V77.8262H60.7738V75.4013Z" fill="white" stroke="#263238" stroke-width="1.16634" stroke-linecap="round" stroke-linejoin="round"/>
<path d="M45.0087 69.5002C45.0087 69.5002 42.5837 69.3389 41.6938 67.801" stroke="#263238" stroke-width="1.16634" stroke-linecap="round" stroke-linejoin="round"/>
<path d="M71.9712 62.3866C74.1821 62.3866 75.9744 60.504 75.9744 58.1818C75.9744 55.8595 74.1821 53.977 71.9712 53.977C69.7603 53.977 67.968 55.8595 67.968 58.1818C67.968 60.504 69.7603 62.3866 71.9712 62.3866Z" fill="#F4EFF5" stroke="#263238" stroke-width="1.16634" stroke-linecap="round" stroke-linejoin="round"/>
<path d="M71.9712 58.8614C73.7018 58.8614 75.1046 57.6042 75.1046 56.0534C75.1046 54.5026 73.7018 53.2454 71.9712 53.2454C70.2407 53.2454 68.8378 54.5026 68.8378 56.0534C68.8378 57.6042 70.2407 58.8614 71.9712 58.8614Z" fill="#F4EFF5" stroke="#263238" stroke-width="1.16634" stroke-linecap="round" stroke-linejoin="round"/>
<path d="M71.9712 56.7965C73.7018 56.7965 75.1046 55.5393 75.1046 53.9885C75.1046 52.4377 73.7018 51.1805 71.9712 51.1805C70.2407 51.1805 68.8378 52.4377 68.8378 53.9885C68.8378 55.5393 70.2407 56.7965 71.9712 56.7965Z" fill="#CCCCCC" stroke="#263238" stroke-width="1.16634" stroke-linecap="round" stroke-linejoin="round"/>
<path d="M66.937 47.9347C66.937 47.9347 66.9917 52.0761 67.202 53.2973C67.4122 54.5184 68.2647 56.111 69.434 56.111C70.2129 56.0918 70.9838 55.9489 71.7178 55.6877C71.7178 55.6877 73.0973 56.4307 74.425 56.2176C75.7527 56.0045 75.5396 54.1469 75.5396 53.3376C75.5396 52.5283 75.3812 46.5408 75.3812 46.5408C75.3812 46.5408 75.4877 45.9648 74.9549 45.8525C74.6936 45.7936 74.4276 45.758 74.1601 45.7459V44.4701C74.062 44.324 73.9261 44.2073 73.7667 44.1327C73.6074 44.0581 73.4307 44.0284 73.2557 44.0467C72.5674 44.0467 72.5127 44.2051 72.5127 44.2051V43.0358C72.5127 43.0358 71.9367 42.1056 71.185 42.5577C71.0335 42.6447 70.9058 42.7678 70.8134 42.916C70.7209 43.0642 70.6666 43.233 70.6551 43.4073L70.6004 44.5248C70.6004 44.5248 69.3274 44.0467 69.2209 44.7897C69.1143 45.5328 68.9012 50.112 68.9012 50.112C68.8257 49.392 68.684 48.6805 68.4778 47.9865C68.2129 47.2953 66.937 47.2953 66.937 47.9347Z" fill="#CCCCCC" stroke="#263238" stroke-width="1.16634" stroke-linecap="round" stroke-linejoin="round"/>
<path d="M70.6003 44.5363L70.7069 49.4208" stroke="#263238" stroke-width="1.16634" stroke-linecap="round" stroke-linejoin="round"/>
<path d="M72.5126 44.2166L72.5674 49.4726" stroke="#263238" stroke-width="1.16634" stroke-linecap="round" stroke-linejoin="round"/>
<path d="M74.16 45.7574L74.0535 49.4208" stroke="#263238" stroke-width="1.16634" stroke-linecap="round" stroke-linejoin="round"/>
<path d="M69.912 49.369L74.7447 49.5792" stroke="#263238" stroke-width="1.16634" stroke-linecap="round" stroke-linejoin="round"/>
<path d="M68.9011 50.112C68.9026 50.3124 68.9504 50.5098 69.0408 50.6887C69.1313 50.8675 69.2619 51.0231 69.4224 51.143C69.9466 51.4714 71.1274 52.3238 71.257 53.7005" stroke="#263238" stroke-width="1.16634" stroke-linecap="round" stroke-linejoin="round"/>
<path d="M25.0186 128.592H20.9117L26.3866 90.4291H30.4934L25.0186 128.592Z" fill="#263238" stroke="#263238" stroke-width="1.16634" stroke-miterlimit="10"/>
<path d="M33.2323 128.592H37.3363L31.8614 90.4291H27.7574L33.2323 128.592Z" fill="white" stroke="#263238" stroke-width="1.16634" stroke-miterlimit="10"/>
<path d="M83.2838 128.592H79.1798L84.6518 90.4291H88.7587L83.2838 128.592Z" fill="#263238" stroke="#263238" stroke-width="1.16634" stroke-miterlimit="10"/>
<path d="M91.4976 128.592H95.6016L90.1267 90.4291H86.0227L91.4976 128.592Z" fill="white" stroke="#263238" stroke-width="1.16634" stroke-miterlimit="10"/>
<path d="M94.3661 84.4445H16.0502V92.0361H94.3661V84.4445Z" fill="#F4EFF5" stroke="#263238" stroke-width="1.16634" stroke-miterlimit="10"/>
<path d="M96.2755 84.4445H17.9597V92.0361H96.2755V84.4445Z" fill="#F4EFF5" stroke="#263238" stroke-width="1.16634" stroke-miterlimit="10"/>
<path d="M19.2413 92.0361H25.8883L29.3242 84.4445H22.6771L19.2413 92.0361Z" fill="#263238"/>
<path d="M45.553 84.4445H38.9059L35.4701 92.0361H42.1171L45.553 84.4445Z" fill="#263238"/>
<path d="M94.2365 84.4445H87.5895L84.1565 92.0361H90.8035L94.2365 84.4445Z" fill="#263238"/>
<path d="M78.0106 84.4445H71.3606L67.9277 92.0361H74.5747L78.0106 84.4445Z" fill="#263238"/>
<path d="M61.7817 84.4445H55.1347L51.6989 92.0361H58.3459L61.7817 84.4445Z" fill="#263238"/>
<path d="M95.8464 87.8112H82.8864" stroke="#263238" stroke-width="1.16634" stroke-miterlimit="10"/>
<path d="M95.6189 89.0813H93.5741" stroke="#263238" stroke-width="1.16634" stroke-miterlimit="10"/>
<path d="M17.6285 88.7645H30.5885" stroke="#263238" stroke-width="1.16634" stroke-miterlimit="10"/>
<path d="M17.856 87.336H34.2259" stroke="#263238" stroke-width="1.16634" stroke-miterlimit="10"/>
<path d="M117.651 126.927H95.4346V128.595H117.651V126.927Z" fill="#263238" stroke="#263238" stroke-width="1.16634" stroke-linecap="round" stroke-linejoin="round"/>
<path d="M113.901 126.881H99.1843L104.953 95.5008H108.132L113.901 126.881Z" fill="#F4EFF5" stroke="#263238" stroke-width="1.16634" stroke-linecap="round" stroke-linejoin="round"/>
<path d="M102.81 107.165H110.278L109.561 103.277H103.524L102.81 107.165Z" fill="white" stroke="#263238" stroke-width="1.16634" stroke-linecap="round" stroke-linejoin="round"/>
<path d="M111.689 121.643L112.058 123.788" stroke="#263238" stroke-width="1.16634" stroke-linecap="round" stroke-linejoin="round"/>
<path d="M107.487 97.2346L111.226 118.944" stroke="#263238" stroke-width="1.16634" stroke-linecap="round" stroke-linejoin="round"/>
</svg>
