<svg width="16" height="16" viewBox="0 0 16 16" fill="none" xmlns="http://www.w3.org/2000/svg">
<g clip-path="url(#clip0_40_609)">
<path fill-rule="evenodd" clip-rule="evenodd" d="M12 1C14.2091 1 16 2.79086 16 5V11C16 13.2091 14.2091 15 12 15H4C1.79086 15 0 13.2091 0 11V5C0 2.79086 1.79086 1 4 1H12ZM13.9832 6.00852C13.7866 5.81459 13.4701 5.81672 13.2761 6.01329L9.24367 10.1005L5.58883 6.44566L5.53553 6.39695C5.20661 6.12276 4.71944 6.17158 4.41283 6.47819L1.83512 9.0559L1.79626 9.09951C1.64085 9.29577 1.6538 9.5817 1.83512 9.76301L1.87873 9.80186C2.07499 9.95728 2.36091 9.94432 2.54222 9.76301L5.01735 7.28783L9.96685 12.2379L10.0105 12.2767C10.2067 12.4321 10.4926 12.4192 10.674 12.2379C10.8692 12.0426 10.8692 11.726 10.674 11.5308L9.95067 10.8075L13.988 6.71562L14.0265 6.67175C14.1806 6.47445 14.1657 6.18862 13.9832 6.00852ZM9.3 3.5C8.19543 3.5 7.3 4.39543 7.3 5.5C7.3 6.60457 8.19543 7.5 9.3 7.5C10.4046 7.5 11.3 6.60457 11.3 5.5C11.3 4.39543 10.4046 3.5 9.3 3.5ZM9.3 4.5C9.85229 4.5 10.3 4.94772 10.3 5.5C10.3 6.05228 9.85229 6.5 9.3 6.5C8.74771 6.5 8.3 6.05228 8.3 5.5C8.3 4.94772 8.74771 4.5 9.3 4.5Z" fill="#29638A"/>
</g>
<defs>
<clipPath id="clip0_40_609">
<rect width="16" height="16" fill="white"/>
</clipPath>
</defs>
</svg>
