<svg width="269" height="179" viewBox="0 0 269 179" fill="none" xmlns="http://www.w3.org/2000/svg">
<path d="M78.8648 43.7695L38.6221 70.6393L78.2609 129.786L118.504 102.916L78.8648 43.7695Z" fill="#F5F5F5"/>
<path d="M97.708 100.118L97.2525 102.939L77.2461 100.061L77.7016 97.24L97.708 100.118Z" fill="#E0E0E0"/>
<path d="M87.633 90.0549L90.5023 90.4666L87.3209 110.128L84.448 109.713L87.633 90.0549Z" fill="#E0E0E0"/>
<path d="M69.2226 65.0665C69.2513 65.1059 65.2199 67.8517 60.2165 71.1883C55.2131 74.5249 51.135 77.2027 51.1064 77.1597C51.0777 77.1168 55.1091 74.3745 60.1125 71.0343C65.1159 67.6942 69.176 65.0235 69.2226 65.0665Z" fill="#E0E0E0"/>
<path d="M84.0069 61.3576C84.0355 61.4006 77.3285 65.9257 69.0289 71.4675C60.7294 77.0094 53.9649 81.4665 53.9434 81.4271C53.9219 81.3877 60.6146 76.8554 68.9249 71.3136C77.2352 65.7718 83.9782 61.3147 84.0069 61.3576Z" fill="#E0E0E0"/>
<path d="M86.9732 65.7825C87.0019 65.8255 80.2948 70.3542 71.9952 75.896C63.6957 81.4378 56.9312 85.8949 56.9097 85.852C56.8882 85.809 63.5881 81.2839 71.8912 75.7385C80.1944 70.1931 86.9445 65.7395 86.9732 65.7825Z" fill="#E0E0E0"/>
<path d="M89.9394 70.211C89.9681 70.2539 83.261 74.7826 74.9615 80.3209C66.6619 85.8591 59.8975 90.3234 59.8975 90.2804C59.8975 90.2375 66.5722 85.7088 74.8754 80.1669C83.1785 74.6251 89.9107 70.168 89.9394 70.211Z" fill="#E0E0E0"/>
<path d="M92.8946 74.6394C92.9233 74.6824 86.2162 79.2075 77.9167 84.7493C69.6171 90.2912 62.8527 94.7483 62.8348 94.7053C62.8168 94.6624 69.5203 90.1372 77.8306 84.5954C86.1409 79.0536 92.8946 74.5965 92.8946 74.6394Z" fill="#E0E0E0"/>
<path d="M213.431 83.4013L179.634 105.968L212.923 155.64L246.721 133.073L213.431 83.4013Z" fill="#F5F5F5"/>
<path d="M229.26 130.734L228.876 133.104L212.073 130.688L212.46 128.318L229.26 130.734Z" fill="#E0E0E0"/>
<path d="M220.799 122.282L223.209 122.629L220.537 139.14L218.123 138.793L220.799 122.282Z" fill="#E0E0E0"/>
<path d="M205.322 101.314C205.351 101.357 201.969 103.666 197.765 106.469C193.562 109.272 190.133 111.513 190.104 111.481C190.075 111.449 193.461 109.133 197.661 106.326C201.861 103.519 205.294 101.253 205.322 101.314Z" fill="#E0E0E0"/>
<path d="M217.75 98.1815C217.779 98.2245 212.151 102.034 205.197 106.684C198.242 111.334 192.55 115.079 192.522 115.036C192.493 114.993 198.12 111.184 205.075 106.53C212.029 101.876 217.711 98.1385 217.75 98.1815Z" fill="#E0E0E0"/>
<path d="M220.243 101.898C220.272 101.94 214.644 105.75 207.69 110.404C200.735 115.058 195.043 118.795 195.014 118.752C194.986 118.709 200.595 114.918 207.568 110.264C214.54 105.61 220.221 101.858 220.243 101.898Z" fill="#E0E0E0"/>
<path d="M222.732 105.61C222.761 105.653 217.13 109.462 210.179 114.116C203.228 118.77 197.532 122.508 197.504 122.465C197.475 122.422 203.102 118.616 210.057 113.959C217.011 109.301 222.707 105.574 222.732 105.61Z" fill="#E0E0E0"/>
<path d="M225.243 109.337C225.271 109.38 219.644 113.185 212.689 117.839C205.735 122.493 200.043 126.231 200.014 126.191C199.985 126.152 205.613 122.339 212.567 117.685C219.522 113.031 225.196 109.294 225.243 109.337Z" fill="#E0E0E0"/>
<path d="M159.962 45.9455L123.085 26.2585L94.0424 80.4582L130.92 100.145L159.962 45.9455Z" fill="#F5F5F5"/>
<path d="M124.608 83.1885L122.27 83.9868L116.33 67.6011L118.672 66.7992L124.608 83.1885Z" fill="#E0E0E0"/>
<path d="M128.195 71.4317L129.048 73.7838L112.743 79.3579L111.89 77.0058L128.195 71.4317Z" fill="#E0E0E0"/>
<path d="M139.78 47.256C139.751 47.3097 136.014 45.3693 131.426 42.9242C126.839 40.4791 123.148 38.4492 123.177 38.3955C123.206 38.3418 126.947 40.2822 131.534 42.7273C136.121 45.1724 139.808 47.1987 139.78 47.256Z" fill="#E0E0E0"/>
<path d="M148.631 57.0043C148.603 57.058 142.412 53.8074 134.805 49.7477C127.197 45.688 121.057 42.3514 121.086 42.2977C121.114 42.244 127.301 45.4911 134.909 49.5544C142.516 53.6177 148.66 56.9506 148.631 57.0043Z" fill="#E0E0E0"/>
<path d="M146.458 61.0605C146.429 61.1142 140.239 57.8671 132.631 53.8038C125.024 49.7405 118.884 46.4075 118.912 46.3538C118.941 46.3001 125.128 49.5508 132.735 53.6105C140.343 57.6702 146.487 61.0068 146.458 61.0605Z" fill="#E0E0E0"/>
<path d="M144.284 65.1166C144.256 65.1703 138.065 61.9233 130.458 57.8635C122.851 53.8038 116.71 50.478 116.739 50.4136C116.768 50.3491 122.955 53.6069 130.562 57.6666C138.169 61.7264 144.313 65.0629 144.284 65.1166Z" fill="#E0E0E0"/>
<path d="M142.111 69.1728C142.082 69.2265 135.892 65.9794 128.284 61.9197C120.677 57.86 114.533 54.5234 114.565 54.4697C114.598 54.416 120.781 57.6631 128.388 61.7228C135.996 65.7825 142.14 69.1191 142.111 69.1728Z" fill="#E0E0E0"/>
<path opacity="0.2" d="M142.301 0H141.376V15.7448H142.301V0Z" fill="black"/>
<path d="M120.236 34.794H163.441C163.441 34.794 159.452 15.752 141.512 15.752C125.555 15.752 120.236 34.794 120.236 34.794Z" fill="#29638A"/>
<path d="M142.301 0H141.376V15.7448H142.301V0Z" fill="#29638A"/>
<path d="M238.036 157.459C238.036 157.509 191.679 157.552 134.504 157.552C77.3285 157.552 30.9636 157.52 30.9636 157.459C30.9636 157.398 77.3141 157.366 134.504 157.366C191.693 157.366 238.036 157.405 238.036 157.459Z" fill="#263238"/>
<path d="M42.4266 135.038C43.033 135.081 43.6244 135.246 44.1654 135.523C44.7064 135.8 45.1861 136.183 45.5757 136.649C46.3503 137.586 46.8989 138.688 47.1789 139.871C47.7851 142.133 47.4121 144.807 46.7665 147.059C44.3132 146.182 42.796 143.569 42.1038 142.194C41.0278 140.025 40.3858 135.442 42.4158 135.034" fill="#29638A"/>
<path d="M50.2995 149.805C49.9311 149.235 49.7204 148.577 49.689 147.9C49.6575 147.222 49.8062 146.548 50.1202 145.946C50.4439 145.35 50.8835 144.824 51.4131 144.399C51.9427 143.974 52.5517 143.659 53.2047 143.472C53.8037 143.286 54.4995 143.211 55.0195 143.558C55.254 143.735 55.4366 143.971 55.5482 144.243C55.6599 144.514 55.6966 144.811 55.6544 145.101C55.5602 145.683 55.3127 146.229 54.9371 146.683C53.7427 148.298 52.2937 149.64 50.2744 149.805" fill="#29638A"/>
<path d="M50.5719 157.37C50.5186 157.218 50.4814 157.06 50.4607 156.901C50.3961 156.564 50.31 156.131 50.206 155.612C49.8841 154.19 49.7945 152.726 49.9406 151.276C50.1097 149.819 50.6657 148.434 51.551 147.263C51.8215 146.913 52.1334 146.597 52.48 146.322C52.5741 146.247 52.6723 146.178 52.7741 146.114C52.8064 146.087 52.8427 146.066 52.8817 146.05C52.428 146.437 52.0135 146.867 51.6443 147.335C50.8056 148.507 50.2776 149.871 50.1092 151.302C49.8796 152.97 50.163 154.498 50.328 155.598C50.4141 156.145 50.4858 156.589 50.5252 156.897C50.5535 157.053 50.5691 157.211 50.5719 157.37Z" fill="#263238"/>
<path d="M43.2158 138.485C43.2568 138.542 43.2905 138.603 43.3162 138.668C43.3808 138.811 43.4669 138.99 43.5673 139.215C43.7861 139.692 44.091 140.383 44.4604 141.238C45.1992 142.953 46.1892 145.337 47.2221 147.994C48.2551 150.65 49.1338 153.074 49.7328 154.839C50.0412 155.719 50.2816 156.435 50.4501 156.933C50.5254 157.169 50.5828 157.359 50.6295 157.506C50.6551 157.571 50.6731 157.64 50.6833 157.71C50.6469 157.649 50.618 157.584 50.5972 157.516C50.5434 157.373 50.4752 157.187 50.3856 156.954L49.6288 154.878C48.9868 153.127 48.0901 150.707 47.0607 148.054C46.0314 145.402 45.0558 143.01 44.3456 141.285C43.987 140.436 43.7108 139.745 43.5063 139.241C43.4131 139.011 43.3378 138.829 43.2804 138.682C43.2534 138.618 43.2318 138.552 43.2158 138.485Z" fill="#263238"/>
<path d="M47.656 152.365C46.918 151.138 45.8981 150.105 44.6807 149.35C43.4633 148.595 42.0833 148.14 40.6548 148.022C39.9375 147.972 39.0552 148.094 38.7324 148.738C38.4096 149.383 38.84 150.17 39.3349 150.693C40.3866 151.791 41.7404 152.554 43.2256 152.885C44.7109 153.216 46.2612 153.101 47.6811 152.555" fill="#29638A"/>
<path d="M41.7595 149.963C41.9116 149.955 42.064 149.961 42.215 149.981C42.3919 149.99 42.5679 150.01 42.7423 150.041C42.9467 150.081 43.187 150.102 43.4381 150.174C43.7187 150.233 43.9954 150.31 44.2666 150.403C44.5808 150.504 44.8886 150.623 45.1884 150.761C45.8779 151.069 46.5301 151.455 47.1324 151.91C47.7277 152.376 48.2669 152.91 48.7392 153.5C48.9431 153.756 49.1312 154.025 49.3023 154.305C49.457 154.547 49.5982 154.796 49.7255 155.053C49.8333 155.263 49.9291 155.478 50.0125 155.698C50.0844 155.861 50.1455 156.028 50.1954 156.199C50.2485 156.342 50.2881 156.489 50.3137 156.639C50.2743 156.639 50.1021 156.024 49.6179 155.107C49.4861 154.861 49.3412 154.622 49.1839 154.391C49.0091 154.12 48.82 153.858 48.6172 153.607C47.6791 152.45 46.4828 151.528 45.1238 150.915C44.8118 150.779 44.5141 150.65 44.2236 150.557C43.9569 150.46 43.6851 150.377 43.4094 150.31C42.4051 150.034 41.7559 150.002 41.7595 149.963Z" fill="#263238"/>
<path d="M204.569 37.7618C203.515 38.0017 203.002 39.2153 202.901 40.2893C202.801 41.3633 202.937 42.5018 202.485 43.4827C201.976 44.5853 200.76 45.4016 200.721 46.6152C200.695 47.3562 201.137 48.0472 201.115 48.7954C201.079 50.0126 199.838 50.9434 199.77 52.1463C199.723 53.0234 200.308 53.8611 200.168 54.7275C200.061 55.4005 199.533 55.9303 199.311 56.5747C198.87 57.8635 199.756 59.2776 200.907 60.0008C201.552 60.4056 202.278 60.6649 203.034 60.7606C203.789 60.8563 204.557 60.7862 205.283 60.555C206.009 60.3239 206.675 59.9373 207.236 59.4223C207.797 58.9074 208.238 58.2764 208.529 57.5736C209.167 56.027 209.027 54.2835 208.887 52.6188C208.457 47.4255 208.137 42.2249 207.926 37.0172" fill="#263238"/>
<path d="M201.506 56.0843C201.723 55.9497 201.892 55.7506 201.99 55.5151C202.094 55.2349 202.135 54.9357 202.112 54.638C202.073 54.2432 201.985 53.8549 201.85 53.4816C201.679 53.0125 201.615 52.5109 201.664 52.0138C201.754 51.4553 202.155 50.9971 202.518 50.546C202.713 50.3253 202.876 50.0782 203.002 49.8121C203.128 49.543 203.149 49.2364 203.059 48.9529C202.873 48.3694 202.299 47.9398 202.037 47.2632C201.914 46.9282 201.894 46.5642 201.98 46.2178C202.061 45.893 202.181 45.5793 202.338 45.2834C202.641 44.7505 202.882 44.1848 203.056 43.5972C203.307 42.4624 203.188 41.3776 203.36 40.4862C203.456 39.7723 203.773 39.1062 204.268 38.5817C204.408 38.4404 204.567 38.3198 204.741 38.2237C204.801 38.1925 204.865 38.1696 204.931 38.1556C204.707 38.2792 204.5 38.4334 204.318 38.6139C203.86 39.1437 203.571 39.7983 203.49 40.4934C203.427 40.9682 203.393 41.4464 203.389 41.9254C203.388 42.489 203.333 43.0513 203.224 43.6044C203.053 44.2055 202.812 44.7846 202.507 45.33C202.238 45.892 201.99 46.5507 202.227 47.1665C202.464 47.7823 203.034 48.2083 203.253 48.867C203.352 49.1924 203.327 49.5427 203.185 49.8515C203.045 50.1443 202.864 50.4156 202.647 50.657C202.288 51.1081 201.897 51.5377 201.811 52.0389C201.761 52.5143 201.817 52.9949 201.976 53.4458C202.104 53.8306 202.184 54.2299 202.213 54.6344C202.23 54.9459 202.175 55.2572 202.051 55.5437C201.974 55.7233 201.85 55.879 201.693 55.9948C201.636 56.0358 201.573 56.0661 201.506 56.0843Z" fill="#455A64"/>
<path d="M198.701 64.5725L195.473 73.8805L181.973 74.5965L179.721 79.6085L193.816 81.0405C194.482 81.3134 195.197 81.4487 195.917 81.4382C196.636 81.4278 197.347 81.2718 198.004 80.9797C198.662 80.6875 199.254 80.2654 199.743 79.7387C200.233 79.2119 200.611 78.5916 200.853 77.9151L204.616 67.4329L198.701 64.5725Z" fill="#B78876"/>
<path d="M226.609 152.401C226.609 152.401 216.717 121.033 216.505 120.016C216.315 119.092 220.092 96.5204 220.573 90.6599L207.205 91.1575V91.29L201.524 91.605L206.61 155.73H212.761L212.151 134.447C215.946 144.611 221.383 154.971 221.383 154.971L226.609 152.401Z" fill="#B78876"/>
<path d="M212.402 142.083C212.402 141.89 212.327 134.952 212.327 134.952C212.252 135.367 209.971 128.93 210.024 128.54C210.053 128.336 212.402 142.083 212.402 142.083Z" fill="#A36957"/>
<path d="M209.766 125.49C209.734 125.617 209.721 125.749 209.727 125.88C209.707 126.238 209.707 126.596 209.727 126.954C209.727 127.18 209.759 127.423 209.788 127.688C209.816 127.953 209.856 128.232 209.917 128.522C210.044 129.155 210.213 129.78 210.422 130.391C210.867 131.69 211.362 132.825 211.71 133.649C211.875 134.007 212.018 134.347 212.14 134.619C212.184 134.745 212.245 134.866 212.32 134.977C212.301 134.853 212.264 134.733 212.212 134.619C212.13 134.382 212.004 134.042 211.853 133.624C211.538 132.786 211.064 131.64 210.623 130.355C210.415 129.753 210.243 129.138 210.11 128.515C210.046 128.228 210.003 127.953 209.963 127.695C209.924 127.437 209.895 127.194 209.877 126.979C209.834 126.535 209.816 126.177 209.805 125.927C209.812 125.78 209.799 125.633 209.766 125.49Z" fill="#A36957"/>
<path d="M206.495 156.056V155.479L212.797 155.204L212.815 157.584L212.427 157.61C210.695 157.71 203.622 158.003 202.467 157.656C201.172 157.269 206.495 156.056 206.495 156.056Z" fill="#455A64"/>
<path d="M212.897 157.441C212.862 157.444 212.826 157.444 212.79 157.441L212.481 157.463L211.341 157.513C210.379 157.552 209.049 157.588 207.582 157.595C206.115 157.602 204.781 157.577 203.816 157.549L202.679 157.502H202.367H202.259C202.295 157.499 202.331 157.499 202.367 157.502H202.679L203.819 157.524C204.781 157.524 206.111 157.552 207.578 157.545C209.045 157.538 210.379 157.513 211.341 157.488L212.481 157.459H212.897V157.441Z" fill="#263238"/>
<path d="M204.44 157.642C204.388 157.454 204.315 157.273 204.225 157.101C204.111 156.942 203.98 156.797 203.834 156.668C204.03 156.738 204.192 156.878 204.289 157.062C204.408 157.231 204.461 157.437 204.44 157.642Z" fill="#263238"/>
<path d="M206.298 156.7C206.298 156.7 206.194 156.604 206.101 156.46C206.007 156.317 205.95 156.192 205.968 156.181C205.986 156.17 206.072 156.274 206.165 156.417C206.258 156.561 206.316 156.689 206.298 156.7Z" fill="#263238"/>
<path d="M206.807 156.446C206.807 156.464 206.692 156.396 206.585 156.299C206.477 156.203 206.398 156.113 206.413 156.099C206.427 156.084 206.527 156.149 206.635 156.246C206.743 156.342 206.821 156.414 206.807 156.446Z" fill="#263238"/>
<path d="M207.126 155.837C207.021 155.876 206.908 155.891 206.796 155.88C206.687 155.895 206.575 155.884 206.47 155.848C206.574 155.81 206.686 155.795 206.796 155.805C206.907 155.79 207.02 155.801 207.126 155.837Z" fill="#263238"/>
<path d="M207.234 155.422C207.127 155.491 207.003 155.529 206.875 155.53C206.753 155.546 206.629 155.528 206.517 155.479C206.635 155.459 206.755 155.45 206.875 155.451C206.994 155.43 207.114 155.42 207.234 155.422Z" fill="#263238"/>
<path d="M206.086 156.152C205.952 156.177 205.815 156.177 205.681 156.152C205.536 156.135 205.393 156.104 205.254 156.059C205.168 156.036 205.085 156.002 205.006 155.959C204.959 155.931 204.923 155.886 204.906 155.834C204.899 155.804 204.902 155.773 204.913 155.744C204.923 155.716 204.942 155.691 204.967 155.673C205.066 155.625 205.175 155.599 205.285 155.598C205.396 155.597 205.505 155.621 205.605 155.667C205.705 155.713 205.794 155.781 205.865 155.866C205.936 155.95 205.987 156.049 206.014 156.156C206.021 156.191 206.021 156.228 206.014 156.263C205.974 156.134 205.911 156.013 205.828 155.905C205.732 155.798 205.608 155.721 205.469 155.683C205.31 155.632 205.138 155.645 204.989 155.719C204.928 155.766 204.953 155.841 205.021 155.884C205.094 155.923 205.171 155.956 205.25 155.981C205.385 156.025 205.523 156.06 205.663 156.084C205.932 156.142 206.086 156.142 206.086 156.152Z" fill="#263238"/>
<path d="M205.982 156.174C205.93 156.091 205.912 155.991 205.932 155.895C205.945 155.789 205.983 155.689 206.043 155.601C206.077 155.541 206.125 155.491 206.183 155.455C206.241 155.418 206.308 155.397 206.377 155.393C206.417 155.403 206.453 155.427 206.476 155.462C206.499 155.496 206.509 155.539 206.502 155.58C206.493 155.644 206.47 155.705 206.434 155.759C206.379 155.847 206.316 155.93 206.244 156.006C206.182 156.077 206.103 156.132 206.014 156.167C206.014 156.167 206.093 156.095 206.204 155.966C206.269 155.892 206.325 155.812 206.373 155.726C206.427 155.641 206.466 155.487 206.373 155.469C206.28 155.451 206.172 155.562 206.111 155.641C206.054 155.718 206.015 155.807 205.996 155.902C205.982 155.992 205.977 156.083 205.982 156.174Z" fill="#263238"/>
<path d="M212.764 155.73C212.764 155.73 212.585 155.73 212.302 155.748C211.933 155.792 211.584 155.939 211.294 156.171C211.004 156.403 210.785 156.712 210.663 157.062C210.569 157.33 210.562 157.513 210.548 157.509C210.534 157.506 210.548 157.463 210.548 157.384C210.557 157.269 210.579 157.155 210.612 157.044C210.727 156.677 210.946 156.352 211.244 156.109C211.545 155.871 211.911 155.728 212.295 155.698C212.414 155.683 212.534 155.683 212.653 155.698C212.692 155.704 212.729 155.715 212.764 155.73Z" fill="#263238"/>
<path d="M209.748 156.94C209.447 157.01 209.139 157.04 208.83 157.03C208.523 157.045 208.215 157.018 207.915 156.951C207.915 156.929 208.324 156.951 208.83 156.951C209.336 156.951 209.744 156.919 209.748 156.94Z" fill="#263238"/>
<path d="M210.975 156.929C210.975 156.929 210.943 157.015 210.899 157.108C210.856 157.201 210.835 157.287 210.813 157.284C210.792 157.28 210.781 157.187 210.831 157.076C210.882 156.965 210.96 156.911 210.975 156.929Z" fill="#263238"/>
<path d="M211.438 156.353C211.438 156.353 211.412 156.432 211.348 156.496C211.283 156.561 211.219 156.604 211.201 156.589C211.183 156.575 211.226 156.51 211.291 156.442C211.355 156.374 211.42 156.335 211.438 156.353Z" fill="#263238"/>
<path d="M212.097 156.088C212.097 156.109 212.011 156.109 211.918 156.142C211.825 156.174 211.76 156.224 211.742 156.21C211.724 156.195 211.778 156.109 211.893 156.07C212.008 156.031 212.105 156.067 212.097 156.088Z" fill="#263238"/>
<path d="M212.567 155.959C212.567 155.981 212.542 156.013 212.488 156.031C212.435 156.049 212.388 156.052 212.381 156.031C212.374 156.009 212.409 155.977 212.46 155.959C212.51 155.941 212.56 155.941 212.567 155.959Z" fill="#263238"/>
<path d="M221.258 155.501L221.021 154.975L226.656 152.15L227.649 154.298L227.29 154.481C225.752 155.279 219.421 158.436 218.223 158.594C216.9 158.784 221.258 155.501 221.258 155.501Z" fill="#455A64"/>
<path d="M227.671 154.144L227.577 154.201L227.301 154.345L226.283 154.86C225.422 155.286 224.224 155.862 222.886 156.471C221.548 157.08 220.322 157.599 219.432 157.968L218.374 158.394L218.087 158.505C218.054 158.52 218.019 158.531 217.983 158.537L218.08 158.49L218.363 158.365L219.411 157.917C220.297 157.538 221.516 157.008 222.854 156.399C224.192 155.791 225.393 155.225 226.261 154.81L227.287 154.319L227.57 154.187L227.671 154.144Z" fill="#263238"/>
<path d="M220.049 157.785C219.925 157.634 219.784 157.497 219.629 157.377C219.461 157.277 219.282 157.198 219.095 157.141C219.301 157.138 219.503 157.198 219.673 157.313C219.844 157.428 219.975 157.593 220.049 157.785Z" fill="#263238"/>
<path d="M221.344 156.167C221.344 156.167 221.208 156.124 221.064 156.031C220.921 155.938 220.817 155.848 220.827 155.83C220.838 155.812 220.964 155.873 221.107 155.966C221.251 156.059 221.355 156.149 221.344 156.167Z" fill="#263238"/>
<path d="M221.695 155.73C221.695 155.748 221.573 155.73 221.434 155.687C221.294 155.644 221.19 155.59 221.193 155.569C221.284 155.56 221.375 155.575 221.459 155.612C221.595 155.644 221.702 155.694 221.695 155.73Z" fill="#263238"/>
<path d="M221.746 155.043C221.746 155.064 221.627 155.139 221.462 155.218C221.367 155.275 221.261 155.311 221.15 155.322C221.15 155.3 221.268 155.225 221.43 155.146C221.526 155.09 221.634 155.054 221.746 155.043Z" fill="#263238"/>
<path d="M221.674 154.62C221.674 154.62 221.57 154.763 221.383 154.867C221.278 154.939 221.152 154.976 221.025 154.975C221.127 154.906 221.237 154.847 221.351 154.799C221.527 154.703 221.656 154.602 221.674 154.62Z" fill="#263238"/>
<path d="M220.939 155.759C220.829 155.834 220.708 155.889 220.58 155.923C220.439 155.964 220.295 155.994 220.149 156.013C220.061 156.024 219.972 156.024 219.884 156.013C219.829 156.009 219.777 155.983 219.741 155.941C219.724 155.916 219.715 155.886 219.715 155.855C219.715 155.825 219.724 155.795 219.741 155.769C219.85 155.638 220.001 155.548 220.169 155.515C220.337 155.482 220.512 155.509 220.662 155.59C220.751 155.637 220.83 155.702 220.892 155.78C220.935 155.837 220.953 155.873 220.949 155.877C220.861 155.778 220.755 155.697 220.637 155.637C220.511 155.578 220.37 155.557 220.232 155.576C220.15 155.585 220.07 155.609 219.998 155.649C219.925 155.688 219.861 155.741 219.809 155.805C219.769 155.873 219.809 155.93 219.906 155.941C219.988 155.948 220.071 155.948 220.153 155.941C220.296 155.927 220.437 155.902 220.576 155.866C220.781 155.809 220.939 155.748 220.939 155.759Z" fill="#263238"/>
<path d="M220.838 155.819C220.758 155.763 220.702 155.679 220.68 155.583C220.649 155.483 220.641 155.376 220.659 155.272C220.665 155.203 220.689 155.137 220.728 155.08C220.767 155.023 220.819 154.977 220.881 154.946C220.971 154.917 221.179 155.1 221.193 155.168C221.208 155.236 221.089 155.2 221.082 155.257C221.07 155.359 221.046 155.459 221.01 155.555C220.984 155.647 220.935 155.73 220.867 155.798C220.867 155.798 220.91 155.701 220.96 155.54C220.986 155.445 221.004 155.348 221.014 155.25C221.014 155.15 221.014 154.996 220.899 155.021C220.784 155.046 220.752 155.186 220.727 155.286C220.705 155.379 220.705 155.476 220.727 155.569C220.757 155.656 220.794 155.739 220.838 155.819Z" fill="#263238"/>
<path d="M226.846 152.637C226.846 152.637 226.674 152.698 226.43 152.845C226.111 153.035 225.851 153.31 225.68 153.639C225.514 153.972 225.443 154.343 225.476 154.713C225.497 155 225.565 155.164 225.551 155.172C225.528 155.136 225.51 155.097 225.497 155.057C225.462 154.947 225.437 154.835 225.422 154.72C225.371 154.339 225.437 153.951 225.612 153.609C225.787 153.266 226.062 152.984 226.401 152.802C226.503 152.745 226.61 152.7 226.72 152.666C226.761 152.65 226.803 152.64 226.846 152.637Z" fill="#263238"/>
<path d="M224.59 154.978C224.084 155.329 223.519 155.586 222.922 155.737C222.922 155.716 223.298 155.572 223.758 155.379C224.217 155.186 224.579 154.96 224.59 154.978Z" fill="#263238"/>
<path d="M225.705 154.466C225.723 154.466 225.705 154.556 225.705 154.66C225.705 154.763 225.705 154.849 225.705 154.856C225.705 154.864 225.634 154.778 225.634 154.66C225.634 154.541 225.687 154.456 225.705 154.466Z" fill="#263238"/>
<path d="M225.888 153.75C225.906 153.75 225.888 153.833 225.867 153.919C225.845 154.004 225.791 154.069 225.773 154.062C225.756 154.055 225.773 153.979 225.795 153.893C225.816 153.808 225.867 153.743 225.888 153.75Z" fill="#263238"/>
<path d="M226.383 153.224C226.383 153.245 226.311 153.278 226.24 153.346C226.168 153.414 226.129 153.485 226.111 153.478C226.093 153.471 226.111 153.371 226.19 153.288C226.268 153.206 226.38 153.224 226.383 153.224Z" fill="#263238"/>
<path d="M226.76 152.93C226.76 152.93 226.76 152.988 226.717 153.027C226.674 153.066 226.634 153.088 226.62 153.074C226.606 153.059 226.62 153.016 226.663 152.977C226.706 152.938 226.745 152.916 226.76 152.93Z" fill="#263238"/>
<path d="M219.705 80.0631L218.657 67.2825L224.037 67.3792C224.037 67.3792 224.285 65.4925 223.492 61.3612C223.005 58.8266 221.315 57.2728 219.418 56.3492V56.3134L219.253 56.2704C217.691 55.5705 216.023 55.1361 214.318 54.9852L207.7 55.0604C207.7 55.0604 202.647 54.416 199.86 58.0282C198.784 59.4137 195.445 68.8971 195.445 68.8971L203.389 72.7134L202.647 67.4544C202.647 67.4544 202.797 71.2671 203.285 72.4664C203.554 73.1394 204.361 75.2301 204.361 75.2301L204.257 81.5381L219.705 80.0631Z" fill="#29638A"/>
<path d="M216.057 65.4281L215.074 69.6024H224.339L223.729 62.5999L216.057 65.4281Z" fill="#29638A"/>
<path d="M224.339 69.6024C223.934 69.5279 223.524 69.4872 223.112 69.4806C222.352 69.4377 221.319 69.3983 220.142 69.4055C218.966 69.4126 217.929 69.4627 217.169 69.52C216.758 69.5343 216.349 69.5846 215.946 69.6704C216.357 69.703 216.769 69.703 217.18 69.6704C217.937 69.6453 218.973 69.6167 220.142 69.6131C221.312 69.6095 222.348 69.6131 223.109 69.631C223.519 69.654 223.93 69.6444 224.339 69.6024Z" fill="#263238"/>
<path d="M215.655 62.5677C215.611 62.9239 215.602 63.2836 215.627 63.6417C215.627 64.2968 215.655 65.199 215.695 66.1978C215.734 67.1966 215.781 68.1023 215.824 68.7539C215.826 69.1149 215.864 69.4747 215.939 69.8279C215.983 69.4717 215.992 69.112 215.967 68.7539C215.967 68.0988 215.939 67.193 215.899 66.1942C215.86 65.1954 215.813 64.2932 215.77 63.6381C215.769 63.2783 215.73 62.9196 215.655 62.5677Z" fill="#263238"/>
<g opacity="0.3">
<path d="M207.227 66.1835C207.227 66.1835 209.286 81.4235 215.074 81.019C215.074 81.019 217.682 80.9903 218.518 79.2612V78.581L207.227 66.1835Z" fill="black"/>
</g>
<g opacity="0.3">
<path d="M215.655 63.4662L214.547 70.9377L215.264 72.248L216.448 69.6847L215.946 69.6704L215.655 63.4662Z" fill="black"/>
</g>
<path d="M204.329 75.2373C204.26 75.1257 204.207 75.0053 204.171 74.8793C204.081 74.6466 203.963 74.3065 203.812 73.8805C203.453 72.7704 203.157 71.6409 202.926 70.4974C202.696 69.3532 202.55 68.1938 202.489 67.0283C202.467 66.5808 202.46 66.2193 202.467 65.9543C202.458 65.8249 202.466 65.6948 202.492 65.5677C202.521 65.5677 202.543 66.119 202.618 66.9997C202.719 68.1546 202.883 69.3031 203.109 70.4401C203.375 71.7718 203.694 72.964 203.938 73.8196C204.053 74.217 204.149 74.5571 204.228 74.8363C204.277 74.9655 204.311 75.1001 204.329 75.2373Z" fill="#263238"/>
<path d="M206.667 79.6156C206.617 79.6156 206.474 79.3042 206.348 78.8996C206.24 78.6517 206.192 78.3819 206.208 78.112C206.366 78.3308 206.475 78.5812 206.527 78.8459C206.63 79.0891 206.678 79.3519 206.667 79.6156Z" fill="#263238"/>
<path d="M207.467 79.5583C207.196 78.8402 207.184 78.0501 207.435 77.3244C207.463 77.6962 207.463 78.0696 207.435 78.4414C207.474 78.8123 207.485 79.1857 207.467 79.5583Z" fill="#263238"/>
<path d="M203.55 72.8888C203.525 72.9318 201.678 72.0582 199.422 70.9341C197.166 69.81 195.355 68.8577 195.376 68.8112C195.398 68.7646 197.249 69.6417 199.505 70.7659C201.761 71.89 203.572 72.8423 203.55 72.8888Z" fill="#263238"/>
<path d="M206.807 56.2955C206.846 54.484 206.857 52.5795 206.857 52.5795C206.857 52.5795 204.529 52.132 204.124 49.0746C203.737 46.1605 204.82 39.3191 204.82 39.3191C208.22 38.0375 211.753 39.201 214.081 41.9504L213.503 56.6535C213.435 58.3612 211.911 59.6643 210.082 59.5784C208.231 59.4889 206.768 58.0211 206.807 56.2955Z" fill="#B78876"/>
<path d="M204.641 44.7858C204.638 44.8862 204.673 44.9839 204.74 45.0591C204.806 45.1343 204.899 45.1813 204.999 45.1903C205.05 45.1953 205.102 45.1898 205.15 45.1742C205.199 45.1586 205.244 45.1333 205.283 45.0998C205.321 45.0663 205.353 45.0253 205.375 44.9794C205.397 44.9334 205.41 44.8833 205.412 44.8323C205.415 44.7324 205.38 44.635 205.313 44.5604C205.246 44.4858 205.153 44.4396 205.053 44.4314C205.002 44.4236 204.95 44.427 204.9 44.4413C204.851 44.4555 204.805 44.4804 204.765 44.514C204.726 44.5477 204.695 44.5894 204.673 44.6363C204.652 44.6832 204.641 44.7342 204.641 44.7858Z" fill="#263238"/>
<path d="M204.497 44.2739C204.544 44.324 204.856 44.1128 205.268 44.1271C205.681 44.1414 205.986 44.3562 206.036 44.3061C206.086 44.256 206.014 44.1915 205.882 44.0877C205.702 43.9578 205.487 43.8866 205.265 43.8836C205.046 43.8753 204.831 43.9382 204.651 44.0626C204.519 44.1593 204.472 44.2488 204.497 44.2739Z" fill="#263238"/>
<path d="M208.912 45.0507C208.908 45.1513 208.943 45.2496 209.01 45.325C209.077 45.4003 209.171 45.447 209.271 45.4553C209.322 45.463 209.375 45.4596 209.425 45.4451C209.475 45.4307 209.521 45.4055 209.56 45.3715C209.6 45.3374 209.631 45.2952 209.652 45.2479C209.673 45.2006 209.684 45.1492 209.684 45.0973C209.688 44.997 209.652 44.8992 209.585 44.8244C209.519 44.7496 209.425 44.7036 209.325 44.6963C209.274 44.6886 209.222 44.6919 209.172 44.7062C209.122 44.7205 209.076 44.7453 209.037 44.7789C208.998 44.8126 208.967 44.8543 208.945 44.9012C208.923 44.9481 208.912 44.9991 208.912 45.0507Z" fill="#263238"/>
<path d="M208.884 44.5388C208.93 44.5925 209.242 44.3813 209.655 44.392C210.067 44.4027 210.372 44.6211 210.426 44.571C210.48 44.5209 210.401 44.4564 210.268 44.3562C210.091 44.2229 209.876 44.1501 209.655 44.1486C209.435 44.142 209.22 44.2046 209.038 44.3276C208.909 44.4242 208.862 44.5137 208.884 44.5388Z" fill="#263238"/>
<path d="M207.277 47.614C207.057 47.5384 206.828 47.4915 206.595 47.4744C206.488 47.4744 206.387 47.435 206.373 47.3634C206.364 47.2515 206.392 47.1398 206.452 47.0448L206.789 46.2393C207.103 45.5547 207.361 44.8459 207.56 44.1199C207.193 44.7777 206.879 45.4637 206.621 46.1713C206.509 46.4541 206.398 46.7262 206.294 46.9839C206.225 47.1118 206.202 47.2599 206.23 47.4028C206.244 47.4416 206.267 47.4766 206.296 47.5052C206.326 47.5338 206.362 47.5551 206.402 47.5675C206.461 47.5847 206.523 47.5943 206.585 47.5961C206.814 47.6313 207.046 47.6373 207.277 47.614Z" fill="#263238"/>
<path d="M206.857 52.5795C208.292 52.6368 209.715 52.296 210.968 51.595C210.968 51.595 209.924 53.6606 206.879 53.299L206.857 52.5795Z" fill="#A36957"/>
<path d="M210.232 43.318C210.146 43.4505 209.823 43.3932 209.465 43.318C209.106 43.2428 208.791 43.182 208.747 43.028C208.704 42.8741 209.081 42.67 209.562 42.7667C210.042 42.8633 210.318 43.2034 210.232 43.318Z" fill="#263238"/>
<path d="M206.047 42.7094C206.014 42.8633 205.67 42.9206 205.276 42.9385C204.881 42.9564 204.533 42.9385 204.487 42.781C204.44 42.6235 204.773 42.4015 205.25 42.38C205.728 42.3586 206.079 42.5626 206.047 42.7094Z" fill="#263238"/>
<path d="M207.284 48.62C207.239 48.6093 207.191 48.614 207.149 48.6335C207.107 48.653 207.072 48.686 207.051 48.7274C207.031 48.7639 207.02 48.8051 207.021 48.8469C207.021 48.8887 207.032 48.9297 207.054 48.9657C207.075 49.0018 207.105 49.0317 207.141 49.0525C207.178 49.0732 207.219 49.0842 207.261 49.0842C207.303 49.0842 207.344 49.0732 207.38 49.0525C207.417 49.0317 207.447 49.0018 207.468 48.9657C207.489 48.9297 207.501 48.8887 207.501 48.8469C207.502 48.8051 207.491 48.7639 207.471 48.7274C207.445 48.6793 207.404 48.6414 207.353 48.6199C207.303 48.5984 207.247 48.5947 207.194 48.6092" fill="#A36957"/>
<path d="M207.381 48.6629C207.381 48.645 207.313 48.5412 207.13 48.5806C207.075 48.5948 207.025 48.6232 206.985 48.6628C206.945 48.7023 206.915 48.7518 206.9 48.8061C206.881 48.8747 206.883 48.9474 206.905 49.015C206.927 49.0826 206.969 49.142 207.026 49.1856C207.085 49.2264 207.156 49.2482 207.228 49.2482C207.301 49.2482 207.371 49.2264 207.431 49.1856C207.479 49.1536 207.516 49.1085 207.539 49.0559C207.562 49.0032 207.569 48.9451 207.56 48.8885C207.524 48.6987 207.384 48.6701 207.377 48.6952C207.37 48.7202 207.428 48.7847 207.417 48.8956C207.414 48.9231 207.405 48.9495 207.39 48.9726C207.375 48.9957 207.355 49.0147 207.331 49.0281C207.303 49.0441 207.271 49.0526 207.239 49.0526C207.207 49.0526 207.176 49.0441 207.148 49.0281C207.123 49.0069 207.104 48.9796 207.092 48.9489C207.081 48.9181 207.078 48.885 207.083 48.8527C207.087 48.8244 207.098 48.7975 207.115 48.7745C207.132 48.7514 207.154 48.7328 207.18 48.7202C207.28 48.6594 207.37 48.688 207.381 48.6629Z" fill="#263238"/>
<path d="M212.689 45.5412C212.331 46.3789 211.441 47.0269 211.563 47.9326C211.642 48.5162 212.019 49.0603 211.947 49.6474C211.854 50.3634 211.09 50.8933 210.978 51.6272C210.846 52.5258 211.724 53.2239 212.072 54.0616C212.585 55.2859 211.932 56.6607 211.915 57.9996C211.936 59.0161 212.325 59.9905 213.011 60.7423C213.697 61.494 214.633 61.9721 215.645 62.0879C216.462 62.156 217.384 61.9089 217.797 61.2073C218.155 60.6273 218.076 59.8898 218.284 59.249C218.6 58.2896 219.515 57.5879 219.719 56.5998C220.078 54.8098 217.89 53.3062 218.033 51.4732C218.094 50.6892 218.579 50.009 218.783 49.2501C218.913 48.7513 218.923 48.2288 218.812 47.7254C218.701 47.222 218.472 46.752 218.145 46.3538C217.603 45.713 216.821 45.2798 216.351 44.5925C215.831 43.8013 215.813 42.8025 215.634 41.8681C215.393 40.7324 214.868 39.6761 214.107 38.7981C213.346 37.9201 212.375 37.2489 211.283 36.8473C210.192 36.4458 209.017 36.3269 207.867 36.5019C206.717 36.6768 205.631 37.1399 204.709 37.8478C204.709 37.8478 204.189 40.207 206.617 40.6044C209.045 41.0017 210.168 40.5435 210.44 41.5137C210.376 41.9134 210.408 42.3225 210.532 42.7077C210.657 43.0929 210.871 43.4431 211.158 43.7297C212.148 44.7965 213.091 44.5674 212.689 45.5412Z" fill="#263238"/>
<path d="M216.545 61.9054C216.47 61.9079 216.395 61.9007 216.322 61.8839C216.112 61.8467 215.906 61.7903 215.706 61.7156C214.965 61.4322 214.315 60.9533 213.826 60.3302C213.483 59.9001 213.214 59.4162 213.03 58.8982C212.82 58.3081 212.71 57.6876 212.704 57.0616C212.696 56.3717 212.783 55.6839 212.962 55.0174C213.06 54.6654 213.179 54.3199 213.32 53.9828C213.468 53.6473 213.599 53.3044 213.711 52.9554C213.81 52.6114 213.81 52.2468 213.711 51.9028C213.606 51.5643 213.471 51.2359 213.306 50.9219C213.14 50.6105 212.999 50.2861 212.886 49.9517C212.776 49.6209 212.75 49.2677 212.811 48.9243C212.955 48.2512 213.363 47.75 213.607 47.2381C213.84 46.7642 213.951 46.2402 213.93 45.713C213.898 44.9415 213.617 44.201 213.13 43.6008C212.942 43.3906 212.739 43.1932 212.524 43.0101C212.776 43.1512 213 43.3354 213.188 43.5543C213.71 44.1535 214.018 44.9092 214.063 45.7023C214.093 46.2524 213.984 46.8013 213.747 47.299C213.5 47.8288 213.102 48.3336 212.98 48.9493C212.858 49.5651 213.148 50.2131 213.467 50.836C213.642 51.159 213.783 51.4984 213.891 51.8491C213.997 52.2237 213.997 52.6202 213.891 52.9947C213.771 53.3559 213.634 53.7108 213.478 54.058C213.337 54.3877 213.217 54.7261 213.12 55.0711C212.942 55.7208 212.853 56.3917 212.858 57.0652C212.847 58.2122 213.218 59.3304 213.912 60.2442C214.377 60.8596 214.995 61.3424 215.706 61.644C216.24 61.8517 216.548 61.8839 216.545 61.9054Z" fill="#455A64"/>
<path d="M216.186 43.8407C216.011 43.8859 215.832 43.9123 215.652 43.9194C215.16 43.972 214.663 43.9587 214.174 43.8801C213.804 43.8253 213.448 43.6974 213.128 43.5038C212.807 43.3101 212.529 43.0547 212.309 42.7524C212.104 42.3699 211.94 41.9666 211.821 41.5495C211.668 41.1328 211.38 40.7788 211.003 40.5435C210.218 40.0459 209.296 39.985 208.493 39.8884C207.752 39.8515 207.032 39.6273 206.402 39.2368C205.979 38.9575 205.674 38.5334 205.545 38.0447C205.513 37.9122 205.505 37.7754 205.519 37.6401C205.519 37.547 205.541 37.5005 205.548 37.5005C205.552 37.6778 205.575 37.8542 205.616 38.0268C205.765 38.4837 206.069 38.874 206.477 39.1294C207.096 39.4898 207.795 39.6915 208.511 39.7165C209.314 39.8096 210.268 39.8561 211.107 40.386C211.518 40.6434 211.831 41.0302 211.997 41.485C212.109 41.8916 212.264 42.2852 212.46 42.6593C212.877 43.2313 213.503 43.6169 214.203 43.7333C214.676 43.821 215.157 43.8535 215.637 43.8299C215.82 43.8197 216.004 43.8233 216.186 43.8407Z" fill="#455A64"/>
<path d="M215.297 40.9266C215.162 40.9717 215.019 40.9923 214.877 40.9874C214.208 40.9919 213.565 40.7349 213.084 40.2714C212.864 40.0518 212.677 39.8023 212.528 39.5304C212.205 38.9862 211.893 38.3167 211.222 38.0375C210.576 37.8211 209.888 37.761 209.214 37.8621C208.645 37.9418 208.068 37.9418 207.499 37.8621C207.104 37.8073 206.731 37.6437 206.423 37.3895C206.344 37.3203 206.274 37.2409 206.215 37.1532C206.172 37.0912 206.154 37.059 206.161 37.0566C206.161 37.0566 206.262 37.1711 206.47 37.3322C206.777 37.55 207.133 37.6878 207.506 37.7332C208.065 37.7961 208.629 37.7864 209.185 37.7046C209.888 37.5899 210.609 37.6514 211.283 37.8836C211.63 38.0389 211.926 38.2867 212.14 38.5996C212.329 38.8787 212.503 39.1679 212.66 39.4659C212.802 39.7261 212.977 39.9668 213.181 40.1819C213.361 40.3638 213.567 40.5171 213.794 40.6366C214.127 40.8105 214.494 40.9117 214.87 40.9337C215.146 40.9301 215.293 40.9087 215.297 40.9266Z" fill="#455A64"/>
<path d="M217.614 61.1321C217.596 61.1321 217.711 60.8958 217.843 60.4519C218.023 59.8287 218.103 59.1811 218.08 58.533C218.054 57.5737 217.792 56.6355 217.316 55.8015C217.054 55.3325 216.656 54.9136 216.33 54.3981C216.157 54.1355 216.035 53.8428 215.971 53.5353C215.914 53.2117 215.942 52.879 216.05 52.5687C216.251 51.9494 216.609 51.4303 216.688 50.8611C216.767 50.2918 216.495 49.7871 216.222 49.3109C216.082 49.0792 215.953 48.8402 215.838 48.5949C215.733 48.357 215.664 48.1048 215.634 47.8467C215.6 47.3918 215.615 46.9346 215.677 46.4827C215.792 45.8439 215.732 45.1861 215.505 44.5782C215.403 44.3652 215.259 44.1752 215.082 44.0197C215.082 44.0197 215.099 44.0197 215.125 44.0412C215.167 44.0622 215.206 44.09 215.239 44.1235C215.38 44.2401 215.493 44.3854 215.573 44.5495C215.832 45.1627 215.913 45.8365 215.806 46.4935C215.757 46.9369 215.751 47.3842 215.788 47.8288C215.877 48.329 216.075 48.8034 216.369 49.2178C216.522 49.4598 216.653 49.715 216.76 49.9804C216.873 50.2669 216.91 50.5776 216.868 50.8825C216.782 51.509 216.412 52.0389 216.226 52.6224C216.128 52.904 216.102 53.2055 216.15 53.4995C216.213 53.784 216.327 54.0545 216.488 54.2979C216.792 54.7955 217.205 55.2215 217.467 55.712C217.947 56.5742 218.204 57.5428 218.213 58.5294C218.224 59.1898 218.122 59.8473 217.911 60.4734C217.854 60.6428 217.785 60.8079 217.703 60.9674C217.682 61.0263 217.651 61.0817 217.614 61.1321Z" fill="#455A64"/>
<path d="M203.005 127.838C203.005 127.838 200.588 104.984 200.448 96.5383C200.308 88.0931 204.253 79.7588 204.253 79.7588L219.705 79.118C219.705 79.118 222.761 87.6849 222.814 91.29C222.922 98.2853 220.953 105.191 221.179 110.74L221.695 127.853" fill="#263238"/>
<path d="M222.215 99.7388C222.135 99.8087 222.05 99.8733 221.961 99.9321L221.821 100.029L221.67 100.176C221.537 100.29 221.417 100.419 221.312 100.559C220.813 101.167 220.451 102.259 220.103 103.616C219.925 104.369 219.663 105.099 219.321 105.793C219.217 105.983 219.097 106.163 218.962 106.333C218.898 106.419 218.837 106.512 218.761 106.595L218.525 106.831C218.186 107.147 217.792 107.399 217.363 107.575C216.498 107.955 215.519 108.134 214.63 108.581C213.718 109.071 213.014 109.871 212.646 110.837C212.209 111.807 211.929 112.824 211.57 113.776C211.211 114.728 210.727 115.638 209.956 116.218C209.219 116.729 208.343 117.005 207.445 117.009C206.613 117.059 205.842 117.034 205.15 117.138C204.527 117.202 203.931 117.427 203.421 117.789C203.049 118.08 202.769 118.473 202.618 118.92C202.522 119.203 202.501 119.505 202.557 119.798C202.6 119.998 202.654 120.095 202.643 120.098C202.585 120.008 202.544 119.909 202.521 119.805C202.445 119.506 202.455 119.192 202.55 118.899C202.692 118.43 202.973 118.014 203.357 117.707C203.88 117.313 204.499 117.066 205.15 116.991C205.867 116.876 206.631 116.891 207.453 116.837C208.324 116.831 209.173 116.562 209.888 116.064C210.613 115.431 211.148 114.611 211.434 113.694C211.792 112.752 212.054 111.732 212.51 110.744C212.896 109.739 213.632 108.906 214.583 108.399C215.508 107.941 216.487 107.765 217.33 107.4C217.743 107.23 218.122 106.987 218.449 106.684L218.675 106.458C218.747 106.38 218.808 106.29 218.873 106.208C218.999 106.045 219.111 105.871 219.206 105.689C219.55 105.004 219.816 104.284 219.999 103.541C220.357 102.188 220.748 101.081 221.276 100.469C221.381 100.33 221.501 100.202 221.634 100.09C221.692 100.04 221.742 99.9894 221.792 99.95L221.939 99.8569C222.029 99.812 222.121 99.7726 222.215 99.7388Z" fill="#FAFAFA"/>
<path d="M222.309 89.1635C222.325 89.264 222.332 89.3659 222.33 89.4678C222.329 89.7634 222.293 90.0578 222.223 90.3449C221.914 91.3921 221.307 92.3274 220.476 93.037C219.927 93.5404 219.326 93.9833 218.683 94.3581C217.99 94.7662 217.226 95.1564 216.441 95.6003C215.616 96.0419 214.847 96.5816 214.153 97.2077C213.44 97.9137 212.853 98.7357 212.417 99.6386C211.977 100.554 211.475 101.438 210.914 102.284C210.629 102.679 210.299 103.039 209.931 103.358C209.568 103.666 209.17 103.929 208.744 104.142C207.973 104.52 207.17 104.828 206.344 105.062C205.577 105.299 204.86 105.51 204.235 105.778C203.669 106.003 203.13 106.291 202.629 106.637C202.251 106.899 201.912 107.211 201.621 107.565C201.377 107.872 201.173 108.209 201.015 108.567C201.04 108.468 201.074 108.371 201.115 108.277C201.233 108.007 201.383 107.752 201.563 107.518C201.85 107.149 202.188 106.824 202.568 106.552C203.071 106.193 203.614 105.893 204.185 105.657C204.876 105.376 205.581 105.131 206.298 104.923C207.112 104.683 207.904 104.374 208.665 103.999C209.069 103.789 209.448 103.534 209.795 103.24C210.149 102.925 210.466 102.572 210.742 102.188C211.295 101.345 211.792 100.467 212.23 99.5598C212.68 98.6369 213.287 97.7987 214.023 97.0824C214.731 96.447 215.514 95.9011 216.355 95.4571C217.144 95.0168 217.908 94.6337 218.6 94.2292C219.242 93.8669 219.843 93.4373 220.393 92.9475C221.217 92.2591 221.829 91.3518 222.158 90.3306C222.25 89.9481 222.301 89.5568 222.309 89.1635Z" fill="#FAFAFA"/>
<path d="M200.527 97.734C200.513 97.7118 200.502 97.6877 200.495 97.6624C200.468 97.5934 200.445 97.5229 200.426 97.4512C200.365 97.1664 200.377 96.8707 200.462 96.592C200.663 95.876 201.456 94.9559 202.733 94.5013C203.371 94.2829 204.092 94.1433 204.845 93.9571C205.471 93.8536 206.062 93.6024 206.571 93.2244C207.079 92.8464 207.49 92.3526 207.768 91.784C207.972 91.3668 208.151 90.9376 208.303 90.4988C208.583 89.5459 208.964 88.6254 209.44 87.753C209.985 86.8954 210.811 86.2537 211.778 85.9379C212.658 85.653 213.555 85.4258 214.465 85.2577C215.276 85.1022 216.062 84.8347 216.8 84.4629C217.424 84.1067 217.963 83.6178 218.378 83.0309C218.99 82.1836 219.339 81.1751 219.382 80.1311C219.384 79.748 219.358 79.3652 219.307 78.9855C219.415 79.3575 219.465 79.744 219.454 80.1311C219.44 81.1977 219.102 82.235 218.485 83.1061C218.065 83.7124 217.515 84.2175 216.875 84.5847C216.128 84.9703 215.329 85.2487 214.504 85.4116C213.603 85.5823 212.714 85.8107 211.843 86.0954C210.914 86.399 210.121 87.0154 209.598 87.8389C209.13 88.6995 208.753 89.6066 208.475 90.5454C208.32 90.9921 208.137 91.4286 207.926 91.8521C207.714 92.2589 207.443 92.6328 207.123 92.9619C206.493 93.5352 205.718 93.9253 204.881 94.0896C204.121 94.2829 203.403 94.4046 202.776 94.6122C201.531 95.0347 200.742 95.9046 200.53 96.5991C200.444 96.867 200.42 97.1513 200.462 97.4297C200.493 97.5291 200.514 97.6309 200.527 97.734Z" fill="#FAFAFA"/>
<path d="M220.982 117.066C220.996 117.14 221.005 117.216 221.007 117.292C221.014 117.508 220.991 117.725 220.939 117.936C220.713 118.712 220.236 119.392 219.583 119.869C219.146 120.216 218.663 120.501 218.148 120.714C217.599 120.947 216.993 121.133 216.355 121.33C215.692 121.523 215.044 121.762 214.414 122.046C213.761 122.358 213.175 122.794 212.689 123.331C212.166 123.875 211.714 124.473 211.211 125.003C210.731 125.516 210.173 125.951 209.558 126.292C208.511 126.862 207.34 127.167 206.147 127.18C205.348 127.188 204.554 127.056 203.801 126.789C203.597 126.719 203.398 126.634 203.206 126.535C203.136 126.506 203.07 126.469 203.009 126.424C203.081 126.444 203.152 126.469 203.22 126.499C203.417 126.583 203.618 126.657 203.823 126.721C204.575 126.956 205.36 127.067 206.147 127.047C207.313 127.017 208.455 126.706 209.476 126.141C210.072 125.804 210.612 125.378 211.079 124.878C211.57 124.355 212.018 123.761 212.553 123.202C213.067 122.645 213.686 122.195 214.375 121.878C215.014 121.593 215.672 121.354 216.344 121.162C216.975 120.968 217.578 120.804 218.137 120.567C218.638 120.363 219.108 120.092 219.536 119.762C220.179 119.309 220.658 118.661 220.903 117.914C220.956 117.635 220.982 117.351 220.982 117.066Z" fill="#FAFAFA"/>
<path d="M219.221 69.6167L216.229 69.6883C216.114 70.2903 215.885 70.865 215.555 71.3816C213.044 67.0498 211.118 61.2502 210.638 58.9196C210.709 58.6869 210.792 58.4292 210.896 58.1428C210.97 57.7078 210.957 57.2623 210.856 56.8325C210.77 56.3134 210.627 55.6153 210.584 55.2931C210.451 54.305 210.29 54.1511 209.945 54.2621C209.479 54.416 210.139 57.0294 209.755 57.0867C209.547 57.1153 209.296 56.2203 209.225 55.4864C209.153 54.7525 208.816 52.49 208.575 52.3396C208.217 52.1176 207.905 52.4685 207.998 53.1988C208.091 53.9291 208.202 56.1487 207.815 56.1809C207.428 56.2132 207.098 52.4613 207.098 52.4613C207.098 52.4613 207.159 51.6451 206.707 51.663C205.896 51.6988 206.531 55.6511 206.599 56.027C206.649 56.2848 206.24 56.3349 206.19 56.0521C206.14 55.7692 205.954 52.3038 205.114 52.3324C204.476 52.3324 205.606 55.5867 205.247 56.3385C204.888 57.0903 204.644 53.7895 204.038 53.8325C203.812 53.8504 203.644 53.8933 204.06 55.7585C204.458 57.2404 204.937 58.6997 205.494 60.1297C206.456 65.3028 210.674 81.8531 217.284 78.8244C220.985 77.1275 222.484 69.6167 222.484 69.6167H219.221Z" fill="#B78876"/>
<path d="M206.47 56.2776C206.498 56.2847 206.528 56.2847 206.556 56.2776C206.599 56.2644 206.636 56.2363 206.661 56.1982C206.685 56.1601 206.695 56.1147 206.689 56.07C206.689 55.848 206.646 55.5258 206.595 55.1069C206.511 54.6021 206.456 54.0929 206.43 53.5819C206.43 53.2811 206.43 52.9589 206.448 52.6188C206.454 52.4459 206.472 52.2736 206.502 52.1033C206.531 51.9422 206.638 51.7453 206.764 51.7775H206.785C206.911 51.7775 207.011 51.8706 207.051 52.021C207.095 52.1768 207.112 52.3391 207.101 52.5007C207.175 53.5033 207.303 54.5012 207.485 55.49C207.514 55.6225 207.542 55.7585 207.585 55.8945C207.604 55.9642 207.628 56.0323 207.657 56.0986C207.675 56.1355 207.696 56.1713 207.718 56.206C207.734 56.2322 207.756 56.2542 207.782 56.2704C207.808 56.2865 207.838 56.2964 207.869 56.2991C207.921 56.2933 207.97 56.2723 208.011 56.2385C208.051 56.2047 208.08 56.1597 208.095 56.1093C208.125 56.0393 208.148 55.9661 208.163 55.891C208.191 55.7467 208.21 55.6008 208.22 55.4542C208.253 54.8577 208.244 54.2596 208.195 53.6642C208.15 53.3669 208.138 53.0656 208.159 52.7656C208.172 52.6361 208.235 52.5167 208.335 52.4327C208.358 52.419 208.384 52.4104 208.41 52.4073C208.437 52.4042 208.464 52.4068 208.489 52.4148C208.52 52.4221 208.549 52.4342 208.575 52.4506C208.593 52.4642 208.607 52.4829 208.615 52.5043C208.728 52.7946 208.811 53.0957 208.862 53.4029C208.927 53.7179 208.981 54.0437 209.031 54.3695C209.081 54.6952 209.128 55.0246 209.167 55.3575C209.198 55.7011 209.253 56.0421 209.332 56.3778C209.374 56.5495 209.428 56.7182 209.493 56.8826C209.53 56.9747 209.581 57.0604 209.644 57.1368C209.668 57.1685 209.701 57.1928 209.738 57.2067C209.776 57.2207 209.817 57.2237 209.856 57.2156C209.892 57.2036 209.925 57.1825 209.95 57.1543C209.976 57.126 209.994 57.0917 210.003 57.0545C210.045 56.8715 210.058 56.6831 210.042 56.496C210.042 56.317 210.021 56.138 210.003 55.9661C209.978 55.6654 209.949 55.3683 209.938 55.0747C209.929 54.9305 209.929 54.7858 209.938 54.6415C209.945 54.5777 209.961 54.5151 209.985 54.4554C209.992 54.4357 210.003 54.4175 210.017 54.4017H210.064C210.3 54.305 210.379 54.6344 210.444 54.8993C210.508 55.1642 210.534 55.4649 210.591 55.7478C210.684 56.3098 210.806 56.8719 210.867 57.4089C210.909 57.666 210.899 57.9288 210.838 58.1822C210.752 58.4399 210.666 58.6941 210.584 58.9483V58.9733V58.9948C211.004 60.7536 211.539 62.4829 212.187 64.1715C212.754 65.7002 213.324 67.0355 213.823 68.1095C214.321 69.1835 214.773 70.0248 215.081 70.5904L215.44 71.2313C215.479 71.3076 215.526 71.3796 215.58 71.4461C215.55 71.3665 215.513 71.2899 215.469 71.2169L215.11 70.5618C214.816 69.9854 214.393 69.1298 213.905 68.0558C213.417 66.9818 212.865 65.6465 212.313 64.1178C211.681 62.4318 211.156 60.7075 210.742 58.9554V59.0056C210.824 58.755 210.907 58.5008 210.993 58.2466C211.067 57.9676 211.082 57.676 211.036 57.391C210.971 56.8289 210.853 56.2848 210.76 55.7191C210.706 55.4399 210.67 55.1535 210.612 54.8599C210.609 54.7091 210.583 54.5596 210.537 54.416C210.496 54.3287 210.427 54.2579 210.34 54.2155C210.248 54.1855 210.149 54.1855 210.057 54.2155H209.999C209.969 54.2252 209.941 54.2411 209.917 54.2621C209.877 54.2958 209.846 54.3388 209.827 54.3874C209.794 54.4649 209.774 54.547 209.766 54.6308C209.755 54.7858 209.755 54.9413 209.766 55.0962C209.766 55.3969 209.809 55.6976 209.834 55.9984C209.834 56.1738 209.863 56.3564 209.87 56.5175C209.884 56.6789 209.876 56.8416 209.845 57.0008C209.845 57.0366 209.816 57.0294 209.845 57.0473L209.823 57.0258C209.778 56.9673 209.741 56.9021 209.716 56.8325C209.653 56.6776 209.602 56.5185 209.562 56.3564C209.483 56.0303 209.429 55.6988 209.4 55.3647C209.362 55.0282 209.315 54.6952 209.26 54.3659C209.21 54.0365 209.153 53.7143 209.088 53.3921C209.034 53.0642 208.943 52.7435 208.816 52.4363C208.791 52.3849 208.752 52.3415 208.704 52.311C208.663 52.2868 208.618 52.2676 208.572 52.2537C208.521 52.2403 208.467 52.2372 208.415 52.2446C208.363 52.2519 208.312 52.2696 208.267 52.2966C208.193 52.3518 208.131 52.4216 208.085 52.5017C208.04 52.5818 208.011 52.6704 208.001 52.762C207.978 52.9247 207.978 53.0898 208.001 53.2525C208.001 53.4064 208.037 53.5568 208.048 53.7072C208.098 54.2929 208.109 54.8813 208.08 55.4685C208.072 55.608 208.054 55.7468 208.026 55.8838C208.016 55.9478 207.998 56.0103 207.973 56.07C207.963 56.0936 207.95 56.1154 207.933 56.1344C207.933 56.1666 207.908 56.1344 207.912 56.1774C207.912 56.1416 207.912 56.1774 207.912 56.1308C207.896 56.1067 207.881 56.0815 207.869 56.0556C207.844 55.9984 207.822 55.9339 207.801 55.8731C207.761 55.7442 207.732 55.6117 207.704 55.4828C207.517 54.5025 207.381 53.5131 207.298 52.5186C207.309 52.3386 207.289 52.1581 207.237 51.9852C207.214 51.895 207.165 51.8131 207.098 51.7489C207.062 51.7151 207.021 51.6887 206.975 51.6715C206.93 51.6542 206.881 51.6465 206.832 51.6487H206.854C206.793 51.6398 206.731 51.649 206.675 51.6751C206.62 51.7012 206.573 51.7431 206.542 51.7954C206.488 51.8808 206.452 51.9756 206.434 52.0747C206.404 52.2522 206.387 52.4317 206.384 52.6117C206.384 52.9697 206.384 53.2811 206.384 53.5854C206.418 54.0998 206.484 54.6115 206.581 55.1177C206.642 55.533 206.689 55.8552 206.71 56.0735C206.717 56.1118 206.71 56.1512 206.691 56.1852C206.673 56.2191 206.642 56.2454 206.606 56.2597C206.499 56.2704 206.466 56.274 206.47 56.2776Z" fill="#A36957"/>
<path d="M183.11 74.5463C182.41 74.5314 181.711 74.6121 181.033 74.7862C179.179 75.2731 175.983 77.2063 175.851 79.5941H178.175C178.175 79.5941 176.873 82.3579 177.253 82.1001C178.246 81.4343 180.219 79.433 180.219 79.433L183.11 74.5463Z" fill="#B78876"/>
<path d="M214.791 32.936C214.737 32.936 214.529 31.0243 214.321 28.64C214.113 26.2557 213.984 24.344 214.034 24.344C214.084 24.344 214.296 26.2557 214.504 28.64C214.712 31.0243 214.841 32.936 214.791 32.936Z" fill="#263238"/>
<path d="M224.981 24.4908C225.02 24.5194 223.453 26.7927 221.477 29.5672C219.5 32.3417 217.861 34.5792 217.818 34.5363C217.775 34.4933 219.346 32.2343 221.322 29.4598C223.299 26.6853 224.938 24.4621 224.981 24.4908Z" fill="#263238"/>
<path d="M229.213 34.794C229.213 34.8441 227.391 35.263 225.124 35.7284C222.857 36.1938 221.007 36.5303 220.996 36.4802C220.985 36.4301 222.814 36.0112 225.085 35.5458C227.355 35.0804 229.188 34.7439 229.213 34.794Z" fill="#263238"/>
<path d="M107.241 83.9653L94.5446 149.05L92.8948 157.57L177.54 157.162C181.342 157.144 184.713 153.775 185.929 148.77L200.943 87.3269C201.872 83.5286 199.835 79.5762 196.951 79.5798L111.259 79.6693C109.393 79.6657 107.722 81.4271 107.241 83.9653Z" fill="#29638A"/>
<g opacity="0.5">
<path d="M107.241 83.9653L94.5446 149.05L92.8948 157.57L177.54 157.162C181.342 157.144 184.713 153.775 185.929 148.77L200.943 87.3269C201.872 83.5286 199.835 79.5762 196.951 79.5798L111.259 79.6693C109.393 79.6657 107.722 81.4271 107.241 83.9653Z" fill="black"/>
</g>
<path d="M169.431 144.632L160.464 72.5272C160.105 69.5737 157.742 67.3684 154.955 67.3792L135.3 67.44C134.569 67.4483 133.848 67.6049 133.18 67.9003C132.513 68.1957 131.912 68.6238 131.415 69.1584L122.09 79.0643L67.4293 79.3579C64.0901 79.3758 61.5221 82.5333 61.9632 86.0775L70.2879 152.719C70.6466 155.669 73.0102 157.871 75.7898 157.867L171.07 157.678C181.679 157.896 182.694 154.771 182.694 154.771C170.514 157.459 169.431 144.65 169.431 144.632Z" fill="#29638A"/>
<g opacity="0.5">
<path d="M128.345 130.212L125.132 133.656L100.384 111.431L103.597 107.987L128.345 130.212Z" fill="white"/>
<path d="M123.787 107.225L127.337 110.414L104.946 134.418L101.391 131.228L123.787 107.225Z" fill="white"/>
</g>
<path d="M183.035 37.1532C182.919 37.1044 182.819 37.0236 182.747 36.9203C182.676 36.8169 182.635 36.6953 182.63 36.5697L182.486 33.2475C182.481 33.1442 182.5 33.0412 182.542 32.9466C182.584 32.8521 182.647 32.7684 182.727 32.7025C182.806 32.6365 182.9 32.5899 183.001 32.5664C183.102 32.543 183.207 32.5432 183.308 32.5673C183.585 32.6271 183.872 32.6297 184.151 32.5749C184.43 32.5201 184.694 32.4091 184.929 32.2486C185.144 32.1124 185.33 31.9334 185.474 31.7228C185.617 31.5123 185.716 31.2745 185.764 31.0243C185.797 30.7709 185.778 30.5136 185.709 30.2676C185.64 30.0216 185.522 29.792 185.363 29.5923C185.195 29.3651 184.983 29.1732 184.741 29.0276C184.498 28.882 184.229 28.7856 183.95 28.7438C183.385 28.7125 182.827 28.8722 182.365 29.197C181.902 29.5219 181.564 29.9929 181.403 30.5338C181.349 30.6977 181.235 30.8347 181.082 30.9161C180.93 30.9976 180.752 31.0173 180.586 30.9712C180.419 30.9251 180.277 30.8166 180.189 30.6684C180.101 30.5203 180.073 30.3438 180.112 30.1758C180.356 29.325 180.886 28.584 181.613 28.0774C182.34 27.5708 183.22 27.3296 184.104 27.3942C184.564 27.4554 185.007 27.6083 185.407 27.8438C185.807 28.0794 186.155 28.3927 186.432 28.7653C186.7 29.1106 186.897 29.5062 187.009 29.9286C187.122 30.3511 187.149 30.7918 187.088 31.2248C187.006 31.6571 186.837 32.0681 186.59 32.4326C186.344 32.7971 186.025 33.1073 185.653 33.3441C185.115 33.7057 184.487 33.9103 183.838 33.9348L183.95 36.4981C183.954 36.6107 183.929 36.7226 183.879 36.8233C183.828 36.924 183.753 37.0103 183.66 37.0742C183.567 37.1381 183.459 37.1775 183.347 37.1888C183.234 37.2002 183.121 37.183 183.017 37.1389L183.035 37.1532Z" fill="#29638A"/>
<path d="M184.018 38.5136C184.025 38.6218 184 38.7297 183.946 38.8237C183.893 38.9178 183.812 38.9938 183.715 39.0421C183.618 39.0904 183.508 39.1088 183.4 39.0951C183.293 39.0813 183.192 39.0359 183.11 38.9648C183.028 38.8936 182.969 38.7997 182.941 38.6951C182.912 38.5906 182.915 38.4799 182.95 38.3772C182.985 38.2744 183.049 38.1843 183.135 38.1181C183.221 38.0519 183.325 38.0126 183.433 38.0053C183.505 37.9999 183.577 38.0089 183.646 38.0316C183.714 38.0543 183.777 38.0904 183.832 38.1376C183.886 38.1849 183.93 38.2425 183.962 38.307C183.994 38.3716 184.013 38.4418 184.018 38.5136Z" fill="#29638A"/>
<path d="M171.511 32.467C171.526 32.3962 171.537 32.3244 171.543 32.2522C171.543 32.0947 171.583 31.8942 171.611 31.6114C171.647 31.2642 171.705 30.9197 171.787 30.5804C171.834 30.3799 171.859 30.1579 171.931 29.9324C172.002 29.7068 172.074 29.4634 172.153 29.2164C172.568 27.9925 173.173 26.8412 173.946 25.8046C174.959 24.4624 176.244 23.3476 177.716 22.5325C178.554 22.0609 179.446 21.693 180.374 21.437C181.374 21.1723 182.405 21.0375 183.44 21.0361C183.985 21.0273 184.531 21.056 185.072 21.122C185.348 21.1506 185.621 21.2222 185.897 21.2688C186.176 21.3165 186.452 21.3835 186.722 21.4693C187.852 21.7846 188.928 22.2712 189.911 22.912C192.096 24.3266 193.76 26.4126 194.652 28.8548C195.133 30.163 195.375 31.5463 195.369 32.9396C195.384 34.3749 195.13 35.8004 194.62 37.1425L194.458 37.5506L194.437 37.6043L194.458 37.658C195.359 39.7237 196.252 41.7535 197.095 43.719L197.245 43.5471L191.865 41.4886L191.801 41.4636L191.747 41.5137C190.324 42.8901 188.581 43.8937 186.675 44.435C185.047 44.8825 183.341 44.9802 181.672 44.7216C180.003 44.4631 178.408 43.8541 176.991 42.9349C175.831 42.1757 174.809 41.2254 173.968 40.1246C172.749 38.5179 171.959 36.6281 171.672 34.6329C171.629 34.2749 171.593 33.9742 171.561 33.7021C171.529 33.43 171.561 33.2081 171.543 33.0183C171.525 32.8286 171.543 32.7033 171.543 32.5995C171.561 32.5968 171.577 32.5874 171.589 32.5733C171.6 32.5592 171.605 32.5413 171.604 32.5233C171.603 32.5053 171.594 32.4885 171.581 32.4762C171.568 32.4639 171.551 32.4571 171.532 32.4571C171.514 32.4571 171.497 32.4639 171.484 32.4762C171.47 32.4885 171.462 32.5053 171.461 32.5233C171.46 32.5413 171.465 32.5592 171.476 32.5733C171.488 32.5874 171.504 32.5968 171.522 32.5995C171.522 32.7033 171.522 32.8429 171.522 33.0183C171.522 33.1938 171.522 33.4372 171.522 33.7093C171.522 33.9814 171.583 34.2928 171.619 34.6472C171.736 35.5083 171.942 36.3552 172.232 37.1747C172.642 38.257 173.195 39.2802 173.875 40.2177C174.719 41.3381 175.749 42.3067 176.92 43.0817C178.353 44.0239 179.971 44.6509 181.666 44.9212C183.361 45.1916 185.094 45.099 186.751 44.6498C188.68 44.1029 190.444 43.0897 191.887 41.6998L191.768 41.7249L197.148 43.7941L197.417 43.898L197.299 43.6223C196.445 41.6569 195.563 39.6306 194.666 37.5614V37.6652L194.831 37.2463C195.355 35.875 195.615 34.4177 195.599 32.9503C195.61 31.5274 195.367 30.1139 194.882 28.776C193.97 26.2851 192.269 24.1595 190.036 22.7223C189.029 22.0665 187.925 21.5713 186.765 21.2545C186.491 21.1678 186.21 21.1019 185.926 21.0576C185.646 21.0074 185.37 20.9358 185.09 20.9108C184.542 20.8428 183.989 20.8117 183.437 20.8177C182.385 20.8221 181.338 20.9642 180.323 21.2401C179.384 21.5064 178.48 21.8838 177.63 22.3643C176.143 23.1993 174.85 24.3403 173.839 25.7116C173.068 26.7653 172.471 27.9352 172.07 29.177C171.995 29.4348 171.923 29.6818 171.859 29.893C171.802 30.1088 171.756 30.3275 171.723 30.5481C171.646 30.8898 171.595 31.2369 171.572 31.5863C171.55 31.862 171.536 32.0732 171.525 32.2307C171.51 32.3085 171.505 32.388 171.511 32.467Z" fill="#263238"/>
</svg>
