<svg width="22" height="22" viewBox="0 0 22 22" fill="none" xmlns="http://www.w3.org/2000/svg">
<path fill-rule="evenodd" clip-rule="evenodd" d="M2.75 9.54864C2.75 6.61748 2.75 5.15192 3.09606 4.65887C3.44211 4.16583 4.82013 3.69413 7.57617 2.75072L8.10124 2.57099C9.53792 2.07922 10.2562 1.83333 11 1.83333C11.7438 1.83333 12.4621 2.07922 13.8988 2.57099L14.4238 2.75072C17.1799 3.69413 18.5579 4.16583 18.904 4.65887C19.25 5.15192 19.25 6.61748 19.25 9.54864V10.9921C19.25 16.1603 15.3643 18.6684 12.9263 19.7334C12.265 20.0222 11.9344 20.1667 11 20.1667C10.0656 20.1667 9.735 20.0222 9.07368 19.7334C6.63571 18.6684 2.75 16.1603 2.75 10.9921V9.54864ZM12.8333 8.25C12.8333 9.26255 12.0126 10.0833 11 10.0833C9.98745 10.0833 9.16667 9.26255 9.16667 8.25C9.16667 7.23748 9.98745 6.41667 11 6.41667C12.0126 6.41667 12.8333 7.23748 12.8333 8.25ZM11 15.5833C14.6667 15.5833 14.6667 14.7625 14.6667 13.75C14.6667 12.7374 13.025 11.9167 11 11.9167C8.97496 11.9167 7.33333 12.7374 7.33333 13.75C7.33333 14.7625 7.33333 15.5833 11 15.5833Z" fill="#29638A"/>
</svg>
