<svg width="193" height="193" viewBox="0 0 193 193" fill="none" xmlns="http://www.w3.org/2000/svg">
<path d="M34.4968 47.9412C45.2739 24.9935 83.542 28.232 98.3103 44.3668C113.079 60.5016 117.877 70.8464 131.198 64.8248C144.518 58.8032 161.506 60.409 162.483 79.5546C163.459 98.7002 147.838 121.339 123.076 128.036C98.3142 134.733 98.3103 158.438 65.5235 153.655C47.6478 151.05 47.2387 131.707 49.7631 115.711C52.2876 99.7154 22.002 74.552 34.4968 47.9412Z" fill="white"/>
<path opacity="0.9" d="M34.4968 47.9412C45.2739 24.9935 83.542 28.232 98.3103 44.3668C113.079 60.5016 117.877 70.8464 131.198 64.8248C144.518 58.8032 161.506 60.409 162.483 79.5546C163.459 98.7002 147.838 121.339 123.076 128.036C98.3142 134.733 98.3103 158.438 65.5235 153.655C47.6478 151.05 47.2387 131.707 49.7631 115.711C52.2876 99.7154 22.002 74.552 34.4968 47.9412Z" fill="white"/>
<path d="M96.5 165.038C137.834 165.038 171.342 163.082 171.342 160.669C171.342 158.255 137.834 156.299 96.5 156.299C55.1662 156.299 21.6585 158.255 21.6585 160.669C21.6585 163.082 55.1662 165.038 96.5 165.038Z" fill="#F5F5F5"/>
<path d="M124.273 58.9885H55.2134C53.6529 58.9885 52.3879 60.2536 52.3879 61.814V143.129C52.3879 144.689 53.6529 145.954 55.2134 145.954H124.273C125.833 145.954 127.098 144.689 127.098 143.129V61.814C127.098 60.2536 125.833 58.9885 124.273 58.9885Z" fill="white"/>
<path opacity="0.6" d="M124.273 58.9885H55.2134C53.6529 58.9885 52.3879 60.2536 52.3879 61.814V143.129C52.3879 144.689 53.6529 145.954 55.2134 145.954H124.273C125.833 145.954 127.098 144.689 127.098 143.129V61.814C127.098 60.2536 125.833 58.9885 124.273 58.9885Z" fill="#1A3E57"/>
<path d="M114.997 98.8739H64.4929V107.52H114.997V98.8739Z" fill="white"/>
<g opacity="0.4">
<path d="M69.0091 104.039V104.266H67.2566V101.788H68.955V102.012H67.5191V102.896H68.8006V103.116H67.5191V104.039H69.0091Z" fill="black"/>
<path d="M69.3603 103.197H70.2906V103.413H69.3603V103.197Z" fill="black"/>
<path d="M73.9229 103.186V104.266H73.672V103.209C73.672 102.823 73.4751 102.614 73.1393 102.614C73.0522 102.61 72.9653 102.625 72.8847 102.658C72.804 102.691 72.7316 102.742 72.6724 102.806C72.6132 102.87 72.5687 102.946 72.542 103.029C72.5153 103.112 72.507 103.199 72.5178 103.286V104.266H72.2631V103.209C72.2631 102.823 72.0662 102.614 71.7265 102.614C71.6395 102.61 71.5526 102.625 71.4719 102.658C71.3913 102.691 71.3188 102.742 71.2596 102.806C71.2004 102.87 71.1559 102.946 71.1292 103.029C71.1025 103.112 71.0943 103.199 71.1051 103.286V104.266H70.8503V102.402H71.0935V102.742C71.1663 102.628 71.2678 102.535 71.3877 102.473C71.5075 102.41 71.6417 102.381 71.7767 102.386C71.9131 102.375 72.0497 102.406 72.1679 102.475C72.286 102.544 72.3799 102.648 72.4368 102.772C72.5139 102.648 72.623 102.547 72.7527 102.479C72.8823 102.411 73.0278 102.379 73.174 102.386C73.2788 102.379 73.384 102.394 73.482 102.432C73.5799 102.47 73.668 102.53 73.7399 102.607C73.8117 102.683 73.8655 102.775 73.8971 102.875C73.9288 102.975 73.9376 103.081 73.9229 103.186Z" fill="black"/>
<path d="M76.015 103.108V104.266H75.7718V103.973C75.7027 104.077 75.6067 104.161 75.4939 104.216C75.3811 104.27 75.2558 104.293 75.131 104.282C74.7103 104.282 74.4517 104.062 74.4517 103.741C74.4517 103.421 74.637 103.213 75.1696 103.213H75.7602V103.101C75.7602 102.78 75.5827 102.607 75.2353 102.607C75.0086 102.604 74.7884 102.682 74.6138 102.827L74.5019 102.641C74.7199 102.466 74.9942 102.375 75.2739 102.386C75.3724 102.374 75.4723 102.385 75.5664 102.416C75.6604 102.448 75.7462 102.501 75.8173 102.57C75.8884 102.639 75.943 102.723 75.9773 102.817C76.0115 102.91 76.0244 103.009 76.015 103.108ZM75.7602 103.707V103.402H75.1774C74.8184 103.402 74.6987 103.541 74.6987 103.734C74.6987 103.927 74.8724 104.085 75.1696 104.085C75.2956 104.093 75.4209 104.061 75.5272 103.993C75.6334 103.925 75.7151 103.824 75.7602 103.707Z" fill="black"/>
<path d="M76.6403 101.815C76.6408 101.791 76.646 101.768 76.6556 101.746C76.6652 101.724 76.6789 101.705 76.6962 101.688C76.7134 101.672 76.7336 101.659 76.7559 101.65C76.7781 101.641 76.8018 101.637 76.8256 101.638C76.8489 101.637 76.8721 101.641 76.8938 101.65C76.9156 101.658 76.9354 101.671 76.9523 101.687C76.9691 101.703 76.9826 101.722 76.992 101.744C77.0014 101.765 77.0065 101.788 77.007 101.811C77.0075 101.835 77.0032 101.86 76.9943 101.882C76.9854 101.904 76.9721 101.925 76.9552 101.942C76.9383 101.959 76.9182 101.973 76.8959 101.982C76.8736 101.992 76.8497 101.997 76.8256 101.997C76.8014 101.997 76.7774 101.993 76.755 101.984C76.7325 101.975 76.7121 101.962 76.6948 101.945C76.6775 101.928 76.6638 101.908 76.6545 101.886C76.6451 101.863 76.6403 101.839 76.6403 101.815ZM76.6982 102.402H76.9491V104.266H76.6982V102.402Z" fill="black"/>
<path d="M77.6478 101.638H77.8987V104.266H77.6478V101.638Z" fill="black"/>
</g>
<path d="M114.997 110.686H64.4929V119.332H114.997V110.686Z" fill="white"/>
<g opacity="0.4">
<path d="M69.1944 114.461C69.1944 114.989 68.8084 115.31 68.183 115.31H67.5191V116.082H67.2566V113.604H68.183C68.8122 113.611 69.1944 113.932 69.1944 114.461ZM68.9319 114.461C68.9319 114.075 68.6733 113.839 68.1599 113.839H67.5037V115.078H68.1599C68.6733 115.078 68.9319 114.85 68.9319 114.461Z" fill="black"/>
<path d="M71.0973 114.935V116.093H70.8542V115.8C70.7851 115.904 70.6891 115.988 70.5763 116.043C70.4635 116.097 70.3381 116.12 70.2134 116.109C69.7927 116.109 69.534 115.889 69.534 115.565C69.534 115.24 69.7193 115.028 70.252 115.028H70.8426V114.912C70.8426 114.596 70.6612 114.422 70.3138 114.422C70.0882 114.419 69.869 114.497 69.6962 114.642L69.5804 114.453C69.8003 114.281 70.0736 114.192 70.3524 114.202C70.4523 114.189 70.5538 114.199 70.6493 114.231C70.7447 114.263 70.8317 114.317 70.9034 114.387C70.9752 114.458 71.03 114.544 71.0636 114.639C71.0972 114.734 71.1087 114.835 71.0973 114.935ZM70.8464 115.53V115.225H70.252C69.893 115.225 69.7772 115.368 69.7772 115.561C69.7772 115.754 69.9471 115.908 70.2481 115.908C70.3752 115.918 70.502 115.886 70.6097 115.818C70.7175 115.75 70.8004 115.649 70.8464 115.53Z" fill="black"/>
<path d="M71.5219 115.877L71.6339 115.68C71.8286 115.816 72.0604 115.889 72.2978 115.889C72.6491 115.889 72.7957 115.769 72.7957 115.584C72.7957 115.097 71.5876 115.48 71.5876 114.746C71.5876 114.441 71.85 114.214 72.3248 114.214C72.5564 114.211 72.7843 114.271 72.9849 114.387L72.8729 114.588C72.7106 114.481 72.5194 114.426 72.3248 114.43C71.989 114.43 71.8385 114.561 71.8385 114.739C71.8385 115.24 73.0466 114.862 73.0466 115.576C73.0466 115.9 72.7649 116.109 72.2746 116.109C72.0052 116.116 71.7408 116.034 71.5219 115.877Z" fill="black"/>
<path d="M73.2512 115.877L73.367 115.68C73.5595 115.818 73.7906 115.891 74.0271 115.889C74.3822 115.889 74.525 115.769 74.525 115.584C74.525 115.097 73.3207 115.48 73.3207 114.746C73.3207 114.441 73.5832 114.214 74.0541 114.214C74.2858 114.211 74.514 114.271 74.7142 114.387L74.6061 114.588C74.4421 114.481 74.2498 114.426 74.0541 114.43C73.7183 114.43 73.5716 114.561 73.5716 114.739C73.5716 115.24 74.7798 114.862 74.7798 115.576C74.7798 115.9 74.4941 116.109 74.0078 116.109C73.7372 116.115 73.4718 116.034 73.2512 115.877Z" fill="black"/>
<path d="M77.9373 114.229L77.2347 116.089H76.9993L76.428 114.565L75.8413 116.089H75.6058L74.884 114.229H75.1233L75.71 115.812L76.3083 114.229H76.5245L77.1189 115.812L77.7095 114.229H77.9373Z" fill="black"/>
<path d="M78.0762 115.159C78.0762 114.971 78.1319 114.788 78.2363 114.632C78.3406 114.476 78.4889 114.354 78.6624 114.282C78.8359 114.21 79.0268 114.191 79.211 114.228C79.3952 114.265 79.5644 114.355 79.6972 114.488C79.83 114.621 79.9205 114.79 79.9571 114.974C79.9937 115.158 79.9749 115.349 79.9031 115.523C79.8312 115.696 79.7095 115.844 79.5533 115.949C79.3972 116.053 79.2136 116.109 79.0258 116.109C78.8999 116.113 78.7745 116.091 78.6574 116.045C78.5402 115.999 78.4338 115.929 78.3448 115.84C78.2557 115.751 78.1859 115.645 78.1397 115.528C78.0935 115.411 78.0719 115.285 78.0762 115.159ZM79.7167 115.159C79.7107 115.023 79.6647 114.892 79.5846 114.782C79.5045 114.671 79.3938 114.587 79.2662 114.539C79.1386 114.492 78.9998 114.482 78.867 114.513C78.7342 114.543 78.6134 114.612 78.5194 114.711C78.4255 114.81 78.3626 114.934 78.3386 115.068C78.3147 115.202 78.3307 115.34 78.3846 115.465C78.4386 115.59 78.5281 115.697 78.6421 115.771C78.7561 115.846 78.8895 115.886 79.0258 115.885C79.12 115.887 79.2136 115.869 79.3005 115.833C79.3875 115.796 79.466 115.742 79.531 115.674C79.5959 115.606 79.646 115.525 79.678 115.436C79.71 115.348 79.7232 115.253 79.7167 115.159Z" fill="black"/>
<path d="M81.4228 114.214V114.457H81.3611C81.2728 114.453 81.1846 114.468 81.1029 114.501C81.0212 114.535 80.9478 114.586 80.8882 114.652C80.8285 114.717 80.7839 114.794 80.7575 114.879C80.7312 114.963 80.7238 115.052 80.7358 115.14V116.09H80.4849V114.229H80.7242V114.592C80.7893 114.466 80.8907 114.363 81.0153 114.295C81.1399 114.228 81.2819 114.199 81.4228 114.214Z" fill="black"/>
<path d="M83.5574 113.484V116.109H83.3181V115.742C83.2432 115.864 83.1373 115.964 83.0112 116.032C82.8851 116.1 82.7432 116.133 82.6001 116.128C82.3593 116.113 82.1333 116.006 81.9681 115.83C81.803 115.654 81.7111 115.422 81.7111 115.18C81.7111 114.939 81.803 114.707 81.9681 114.531C82.1333 114.355 82.3593 114.248 82.6001 114.233C82.7414 114.23 82.8809 114.264 83.0049 114.331C83.1289 114.399 83.2329 114.498 83.3065 114.619V113.484H83.5574ZM83.3104 115.179C83.3043 115.042 83.2584 114.911 83.1783 114.801C83.0982 114.691 82.9874 114.607 82.8599 114.559C82.7323 114.511 82.5935 114.502 82.4607 114.532C82.3279 114.563 82.207 114.632 82.1131 114.73C82.0191 114.829 81.9563 114.953 81.9323 115.087C81.9083 115.221 81.9243 115.36 81.9783 115.485C82.0322 115.61 82.1218 115.716 82.2358 115.791C82.3498 115.865 82.4832 115.905 82.6194 115.904C82.7154 115.906 82.8108 115.888 82.8992 115.851C82.9876 115.813 83.067 115.757 83.1323 115.687C83.1976 115.617 83.2472 115.533 83.2779 115.442C83.3086 115.351 83.3197 115.255 83.3104 115.159V115.179Z" fill="black"/>
</g>
<path opacity="0.2" d="M114.997 128.152H64.4929V136.798H114.997V128.152Z" fill="black"/>
<g opacity="0.5">
<path d="M76.7754 124.18H75.9494L75.7718 124.566H75.6097L76.2852 123.088H76.4396L77.1151 124.566H76.953L76.7754 124.18ZM76.7175 124.053L76.3624 123.258L76.0073 124.053H76.7175Z" fill="black"/>
<path d="M77.3312 123.007H77.4818V124.574H77.3312V123.007Z" fill="black"/>
<path d="M78.4622 123.454V123.601H78.4236C78.3697 123.596 78.3155 123.604 78.265 123.623C78.2144 123.643 78.1689 123.673 78.1318 123.712C78.0947 123.752 78.0669 123.799 78.0506 123.851C78.0343 123.902 78.0299 123.957 78.0376 124.01V124.578H77.8871V123.466H78.0338V123.682C78.0725 123.604 78.1346 123.54 78.2114 123.5C78.2883 123.459 78.376 123.443 78.4622 123.454Z" fill="black"/>
<path d="M79.6897 124.064H78.744C78.7469 124.118 78.7606 124.171 78.7842 124.22C78.8078 124.269 78.8408 124.313 78.8814 124.348C78.922 124.384 78.9693 124.412 79.0206 124.429C79.0719 124.447 79.1261 124.454 79.1802 124.45C79.2443 124.453 79.3082 124.441 79.3675 124.416C79.4268 124.392 79.48 124.355 79.5237 124.307L79.6048 124.404C79.525 124.488 79.4222 124.546 79.3094 124.572C79.1966 124.597 79.0787 124.589 78.9707 124.548C78.8626 124.506 78.7691 124.434 78.702 124.34C78.6349 124.246 78.5971 124.134 78.5935 124.018C78.5898 123.945 78.6011 123.871 78.6269 123.803C78.6527 123.734 78.6924 123.671 78.7434 123.618C78.7944 123.565 78.8557 123.524 78.9236 123.495C78.9914 123.467 79.0643 123.453 79.1377 123.454C79.2112 123.453 79.2842 123.466 79.3521 123.494C79.42 123.522 79.4813 123.564 79.5321 123.617C79.583 123.67 79.6222 123.733 79.6474 123.802C79.6725 123.871 79.683 123.945 79.6781 124.018C79.6781 124.018 79.6897 124.049 79.6897 124.064ZM78.7594 123.952H79.5314C79.5314 123.85 79.4908 123.752 79.4184 123.679C79.346 123.607 79.2478 123.566 79.1454 123.566C79.0431 123.566 78.9449 123.607 78.8725 123.679C78.8001 123.752 78.7594 123.85 78.7594 123.952Z" fill="black"/>
<path d="M80.8052 123.906V124.593H80.674V124.419C80.633 124.483 80.5753 124.534 80.5072 124.567C80.439 124.599 80.3632 124.612 80.288 124.605C80.0371 124.605 79.902 124.473 79.902 124.28C79.902 124.087 80.0101 123.964 80.3305 123.964H80.674V123.898C80.674 123.709 80.5659 123.605 80.3575 123.605C80.217 123.6 80.0796 123.646 79.9715 123.736L79.9059 123.624C80.0338 123.522 80.1939 123.469 80.3575 123.474C80.4172 123.463 80.4785 123.467 80.5364 123.485C80.5944 123.503 80.6473 123.534 80.6909 123.576C80.7345 123.619 80.7675 123.67 80.7874 123.728C80.8073 123.785 80.8134 123.846 80.8052 123.906ZM80.6586 124.261V124.076H80.3073C80.0911 124.076 80.0217 124.161 80.0217 124.277C80.0217 124.392 80.1259 124.485 80.3034 124.485C80.3834 124.491 80.4631 124.471 80.5302 124.427C80.5972 124.383 80.6478 124.318 80.674 124.242L80.6586 124.261Z" fill="black"/>
<path d="M82.218 123.007V124.574H82.0752V124.354C82.0313 124.427 81.9683 124.488 81.8929 124.529C81.8175 124.569 81.7324 124.589 81.6467 124.585C81.5048 124.574 81.3725 124.509 81.276 124.404C81.1796 124.299 81.1261 124.162 81.1261 124.02C81.1261 123.878 81.1796 123.74 81.276 123.636C81.3725 123.531 81.5048 123.466 81.6467 123.454C81.7303 123.452 81.8131 123.471 81.8874 123.51C81.9617 123.548 82.025 123.605 82.0713 123.674V123.007H82.218ZM82.0713 124.018C82.0675 123.937 82.0401 123.859 81.9925 123.794C81.9449 123.729 81.8792 123.679 81.8034 123.65C81.7277 123.622 81.6453 123.617 81.5665 123.635C81.4877 123.653 81.416 123.694 81.3601 123.752C81.3043 123.81 81.2668 123.884 81.2524 123.964C81.2379 124.043 81.2472 124.125 81.2789 124.199C81.3107 124.274 81.3635 124.337 81.431 124.382C81.4984 124.426 81.5775 124.45 81.6583 124.45C81.7158 124.454 81.7734 124.445 81.8272 124.424C81.8809 124.404 81.9297 124.372 81.9703 124.331C82.0108 124.29 82.0422 124.241 82.0623 124.187C82.0823 124.133 82.0907 124.075 82.0868 124.018H82.0713Z" fill="black"/>
<path d="M83.5883 123.462L83.0325 124.709C82.9398 124.925 82.8202 124.995 82.6465 124.995C82.5468 124.997 82.45 124.961 82.3763 124.894L82.4457 124.782C82.5 124.837 82.5736 124.867 82.6503 124.867C82.7507 124.867 82.8163 124.821 82.8819 124.678L82.9282 124.574L82.4303 123.462H82.604L83.0247 124.408L83.4416 123.462H83.5883Z" fill="black"/>
<path d="M85.1941 123.906V124.593H85.0512V124.419C85.0103 124.483 84.9525 124.534 84.8844 124.567C84.8163 124.599 84.7404 124.612 84.6652 124.605C84.4143 124.605 84.2792 124.473 84.2792 124.28C84.2792 124.087 84.3873 123.964 84.7077 123.964H85.059V123.898C85.059 123.709 84.9547 123.605 84.7463 123.605C84.6059 123.6 84.4684 123.646 84.3603 123.736L84.2908 123.624C84.4203 123.522 84.5815 123.469 84.7463 123.474C84.806 123.463 84.8673 123.467 84.9253 123.485C84.9832 123.503 85.0361 123.534 85.0797 123.576C85.1233 123.619 85.1564 123.67 85.1762 123.728C85.1961 123.785 85.2022 123.846 85.1941 123.906ZM85.0435 124.261V124.076H84.6961C84.48 124.076 84.4105 124.161 84.4105 124.277C84.4105 124.392 84.5147 124.485 84.6923 124.485C84.7693 124.488 84.8452 124.466 84.9086 124.422C84.9719 124.378 85.0193 124.315 85.0435 124.242V124.261Z" fill="black"/>
<path d="M88.008 123.929V124.574H87.8613V123.945C87.8613 123.709 87.7417 123.59 87.5409 123.59C87.4892 123.585 87.4372 123.593 87.3885 123.611C87.3399 123.629 87.2957 123.657 87.259 123.694C87.2223 123.73 87.194 123.774 87.176 123.823C87.1581 123.872 87.1509 123.924 87.1549 123.976V124.558H87.0083V123.945C87.0083 123.709 86.8886 123.59 86.684 123.59C86.6323 123.585 86.5803 123.593 86.5316 123.611C86.483 123.629 86.4387 123.657 86.4021 123.694C86.3654 123.73 86.3371 123.774 86.3191 123.823C86.3012 123.872 86.294 123.924 86.298 123.976V124.558H86.1475V123.447H86.2903V123.651C86.3328 123.582 86.3934 123.526 86.4655 123.488C86.5375 123.451 86.6184 123.434 86.6995 123.439C86.7804 123.433 86.8612 123.452 86.9305 123.494C86.9998 123.537 87.054 123.6 87.0855 123.674C87.1304 123.599 87.1951 123.537 87.2727 123.495C87.3502 123.454 87.4377 123.434 87.5255 123.439C87.5922 123.427 87.6608 123.432 87.7253 123.452C87.7899 123.473 87.8484 123.509 87.8959 123.557C87.9435 123.605 87.9785 123.664 87.998 123.729C88.0176 123.794 88.021 123.863 88.008 123.929Z" fill="black"/>
<path d="M89.3744 124.064H88.4442C88.4521 124.174 88.5027 124.275 88.5851 124.348C88.6674 124.42 88.7749 124.457 88.8842 124.45C88.9478 124.453 89.0112 124.441 89.0699 124.417C89.1286 124.392 89.1811 124.355 89.2239 124.307L89.3088 124.404C89.2546 124.463 89.1883 124.51 89.1143 124.541C89.0404 124.573 88.9606 124.588 88.8804 124.585C88.8039 124.59 88.7272 124.579 88.6553 124.553C88.5834 124.526 88.5178 124.485 88.4629 124.431C88.408 124.378 88.3649 124.313 88.3364 124.242C88.3079 124.171 88.2946 124.095 88.2975 124.018C88.2975 123.875 88.3544 123.737 88.4558 123.636C88.5571 123.534 88.6946 123.478 88.8379 123.478C88.9812 123.478 89.1187 123.534 89.22 123.636C89.3214 123.737 89.3783 123.875 89.3783 124.018C89.3783 124.018 89.3744 124.049 89.3744 124.064ZM88.4442 123.952H89.2355C89.2355 123.847 89.1938 123.747 89.1196 123.673C89.0454 123.598 88.9448 123.557 88.8398 123.557C88.7349 123.557 88.6343 123.598 88.5601 123.673C88.4859 123.747 88.4442 123.847 88.4442 123.952Z" fill="black"/>
<path d="M91.5206 123.929V124.574H91.3701V123.945C91.3701 123.709 91.2543 123.59 91.0535 123.59C91.0017 123.585 90.9494 123.591 90.9004 123.609C90.8514 123.627 90.8069 123.655 90.7701 123.692C90.7332 123.729 90.705 123.773 90.6872 123.822C90.6695 123.871 90.6628 123.924 90.6675 123.976V124.558H90.517V123.945C90.517 123.709 90.4012 123.59 90.1966 123.59C90.1447 123.585 90.0925 123.591 90.0435 123.609C89.9945 123.627 89.95 123.655 89.9132 123.692C89.8763 123.729 89.848 123.773 89.8303 123.822C89.8126 123.871 89.8059 123.924 89.8106 123.976V124.558H89.6601V123.447H89.8029V123.651C89.8451 123.582 89.9056 123.525 89.9778 123.488C90.0499 123.45 90.131 123.433 90.2121 123.439C90.293 123.433 90.3738 123.452 90.4431 123.494C90.5124 123.537 90.5667 123.6 90.5981 123.674C90.643 123.599 90.7077 123.537 90.7853 123.495C90.8628 123.454 90.9503 123.434 91.0381 123.439C91.1048 123.427 91.1734 123.432 91.2379 123.452C91.3025 123.473 91.361 123.509 91.4085 123.557C91.4561 123.605 91.4911 123.664 91.5106 123.729C91.5301 123.794 91.5336 123.863 91.5206 123.929Z" fill="black"/>
<path d="M93.0569 124.018C93.0606 124.092 93.049 124.166 93.0228 124.236C92.9966 124.305 92.9563 124.369 92.9045 124.422C92.8527 124.475 92.7905 124.517 92.7217 124.545C92.653 124.573 92.5792 124.587 92.5049 124.585C92.4192 124.589 92.3341 124.569 92.2587 124.529C92.1833 124.488 92.1203 124.427 92.0764 124.354V124.574H91.9298V123.007H92.0803V123.674C92.1264 123.605 92.1896 123.548 92.264 123.509C92.3383 123.471 92.4212 123.452 92.5049 123.454C92.579 123.452 92.6527 123.465 92.7215 123.493C92.7902 123.521 92.8525 123.562 92.9043 123.615C92.9562 123.668 92.9965 123.731 93.0228 123.801C93.049 123.87 93.0606 123.944 93.0569 124.018ZM92.9063 124.018C92.9026 123.937 92.8752 123.859 92.8275 123.794C92.7799 123.729 92.7142 123.679 92.6385 123.65C92.5627 123.622 92.4804 123.617 92.4016 123.635C92.3228 123.653 92.251 123.694 92.1951 123.752C92.1393 123.81 92.1018 123.884 92.0874 123.964C92.073 124.043 92.0822 124.125 92.1139 124.199C92.1457 124.274 92.1986 124.337 92.266 124.382C92.3334 124.426 92.4125 124.45 92.4933 124.45C92.5495 124.451 92.6054 124.441 92.6573 124.419C92.7093 124.398 92.7562 124.366 92.795 124.325C92.8338 124.284 92.8638 124.236 92.883 124.183C92.9021 124.13 92.9101 124.074 92.9063 124.018Z" fill="black"/>
<path d="M94.3345 124.064H93.412C93.4149 124.118 93.4286 124.171 93.4522 124.22C93.4758 124.269 93.5088 124.313 93.5494 124.348C93.59 124.384 93.6373 124.412 93.6886 124.429C93.7399 124.447 93.7941 124.454 93.8482 124.45C93.9124 124.45 93.9757 124.436 94.0338 124.409C94.0918 124.381 94.1431 124.341 94.184 124.292L94.2689 124.389C94.1892 124.472 94.0864 124.531 93.9736 124.556C93.8607 124.582 93.7429 124.573 93.6348 124.532C93.5267 124.491 93.4333 124.419 93.3662 124.324C93.299 124.23 93.2613 124.118 93.2576 124.003C93.2539 123.929 93.2653 123.856 93.2911 123.787C93.3169 123.718 93.3565 123.656 93.4075 123.603C93.4585 123.55 93.5199 123.508 93.5877 123.48C93.6555 123.452 93.7284 123.438 93.8019 123.439C93.8751 123.437 93.948 123.451 94.0157 123.479C94.0834 123.507 94.1445 123.549 94.1951 123.602C94.2456 123.655 94.2845 123.718 94.3092 123.787C94.3339 123.856 94.3438 123.929 94.3384 124.003L94.3345 124.064ZM93.4043 123.952H94.1763C94.1763 123.85 94.1356 123.752 94.0632 123.679C93.9908 123.607 93.8927 123.566 93.7903 123.566C93.6879 123.566 93.5897 123.607 93.5173 123.679C93.4449 123.752 93.4043 123.85 93.4043 123.952Z" fill="black"/>
<path d="M95.203 123.454V123.601H95.1683C95.1144 123.596 95.0602 123.604 95.0096 123.623C94.9591 123.643 94.9136 123.673 94.8764 123.712C94.8393 123.752 94.8116 123.799 94.7953 123.851C94.779 123.902 94.7745 123.957 94.7823 124.01V124.578H94.6318V123.466H94.7746V123.682C94.8137 123.605 94.876 123.541 94.9527 123.5C95.0294 123.46 95.1168 123.443 95.203 123.454Z" fill="black"/>
<path d="M96.1758 123.474C96.1758 123.319 96.0522 123.215 95.8361 123.215C95.7601 123.211 95.6841 123.224 95.6138 123.253C95.5436 123.283 95.481 123.328 95.4308 123.385L95.3188 123.3C95.3846 123.226 95.4664 123.167 95.558 123.129C95.6496 123.091 95.7486 123.074 95.8477 123.08C96.1449 123.08 96.334 123.223 96.334 123.466C96.334 123.825 95.948 123.852 95.948 124.145H95.7898C95.7898 123.782 96.1758 123.748 96.1758 123.474ZM95.7589 124.473C95.7637 124.448 95.7773 124.425 95.7974 124.408C95.8175 124.391 95.8428 124.382 95.8689 124.382C95.895 124.382 95.9203 124.391 95.9404 124.408C95.9604 124.425 95.9741 124.448 95.9789 124.473C95.9819 124.49 95.9814 124.506 95.9773 124.522C95.9731 124.538 95.9656 124.553 95.955 124.566C95.9445 124.578 95.9314 124.588 95.9165 124.595C95.9016 124.602 95.8853 124.606 95.8689 124.606C95.8524 124.606 95.8362 124.602 95.8213 124.595C95.8064 124.588 95.7932 124.578 95.7827 124.566C95.7722 124.553 95.7646 124.538 95.7605 124.522C95.7564 124.506 95.7558 124.49 95.7589 124.473Z" fill="black"/>
<path d="M97.2218 123.095H97.5654V124.292H98.3065V124.57H97.2218V123.095Z" fill="black"/>
<path d="M98.3837 124.006C98.376 123.881 98.406 123.757 98.4698 123.649C98.5336 123.541 98.6284 123.455 98.7417 123.402C98.8551 123.349 98.9819 123.331 99.1056 123.35C99.2293 123.37 99.3443 123.426 99.4357 123.512C99.527 123.597 99.5905 123.709 99.618 123.831C99.6454 123.953 99.6355 124.081 99.5895 124.197C99.5435 124.314 99.4636 124.414 99.3601 124.484C99.2566 124.555 99.1343 124.593 99.009 124.593C98.9288 124.598 98.8483 124.587 98.7726 124.56C98.6969 124.533 98.6276 124.491 98.5689 124.436C98.5103 124.381 98.4636 124.314 98.4317 124.24C98.3999 124.166 98.3835 124.087 98.3837 124.006ZM99.2985 124.006C99.294 123.95 99.2733 123.897 99.2389 123.852C99.2044 123.808 99.1578 123.774 99.1047 123.756C99.0515 123.738 98.9942 123.735 98.9397 123.749C98.8851 123.762 98.8357 123.792 98.7975 123.833C98.7593 123.874 98.7339 123.926 98.7245 123.981C98.7151 124.036 98.722 124.093 98.7445 124.145C98.7669 124.197 98.8039 124.241 98.8508 124.271C98.8978 124.302 98.9528 124.319 99.009 124.319C99.0492 124.32 99.0891 124.312 99.1262 124.296C99.1632 124.28 99.1964 124.257 99.2237 124.228C99.2511 124.198 99.2719 124.163 99.2847 124.125C99.2976 124.087 99.3023 124.046 99.2985 124.006Z" fill="black"/>
<path d="M101.028 123.435V124.385C101.038 124.47 101.029 124.557 101 124.638C100.972 124.719 100.925 124.792 100.863 124.852C100.801 124.912 100.727 124.957 100.645 124.983C100.563 125.009 100.476 125.015 100.391 125.002C100.192 125.01 99.9964 124.954 99.8312 124.844L99.9624 124.609C100.075 124.689 100.21 124.734 100.348 124.736C100.58 124.736 100.684 124.632 100.684 124.427V124.377C100.638 124.425 100.582 124.463 100.52 124.487C100.458 124.512 100.392 124.523 100.325 124.52C100.249 124.526 100.173 124.517 100.1 124.492C100.028 124.467 99.9617 124.428 99.9055 124.376C99.8493 124.324 99.8044 124.261 99.7737 124.192C99.743 124.122 99.7272 124.046 99.7272 123.97C99.7272 123.893 99.743 123.818 99.7737 123.748C99.8044 123.678 99.8493 123.615 99.9055 123.563C99.9617 123.512 100.028 123.472 100.1 123.448C100.173 123.423 100.249 123.413 100.325 123.42C100.398 123.414 100.471 123.426 100.538 123.454C100.605 123.482 100.665 123.526 100.711 123.582V123.435H101.028ZM100.704 123.972C100.705 123.933 100.698 123.894 100.683 123.859C100.668 123.823 100.646 123.791 100.618 123.764C100.59 123.737 100.557 123.717 100.52 123.704C100.484 123.691 100.445 123.687 100.406 123.69C100.367 123.685 100.327 123.689 100.289 123.701C100.251 123.713 100.216 123.733 100.186 123.759C100.156 123.786 100.133 123.818 100.116 123.854C100.1 123.891 100.092 123.93 100.092 123.97C100.092 124.009 100.1 124.049 100.116 124.085C100.133 124.121 100.156 124.154 100.186 124.18C100.216 124.207 100.251 124.227 100.289 124.238C100.327 124.25 100.367 124.254 100.406 124.25C100.445 124.253 100.483 124.248 100.519 124.235C100.555 124.223 100.589 124.203 100.617 124.177C100.645 124.15 100.667 124.119 100.682 124.083C100.697 124.048 100.704 124.01 100.704 123.972Z" fill="black"/>
<path d="M101.904 123.095C101.904 123.07 101.91 123.044 101.921 123.02C101.932 122.997 101.947 122.976 101.966 122.958C101.985 122.941 102.008 122.928 102.032 122.92C102.057 122.911 102.083 122.908 102.109 122.91C102.134 122.907 102.159 122.91 102.184 122.918C102.208 122.925 102.23 122.938 102.249 122.954C102.269 122.971 102.284 122.992 102.295 123.014C102.306 123.037 102.312 123.062 102.313 123.088C102.313 123.142 102.292 123.194 102.253 123.232C102.215 123.271 102.163 123.292 102.109 123.292C102.054 123.292 102.002 123.271 101.964 123.232C101.926 123.194 101.904 123.142 101.904 123.088V123.095ZM101.943 123.435H102.271V124.593H101.943V123.435Z" fill="black"/>
<path d="M103.734 123.906V124.558H103.406V123.96C103.406 123.775 103.321 123.69 103.174 123.69C103.027 123.69 102.9 123.786 102.9 123.995V124.558H102.572V123.4H102.888V123.535C102.938 123.484 102.998 123.444 103.065 123.418C103.132 123.392 103.203 123.381 103.274 123.385C103.341 123.382 103.408 123.393 103.469 123.419C103.531 123.445 103.585 123.485 103.63 123.535C103.674 123.585 103.706 123.644 103.724 123.708C103.742 123.773 103.745 123.84 103.734 123.906Z" fill="black"/>
</g>
<path d="M114.997 127.623H64.4929V136.27H114.997V127.623Z" fill="white"/>
<path d="M83.2216 133.29L82.604 132.398H82.4187H81.6853V133.297H81.2607V130.337H82.4187C83.1907 130.337 83.6501 130.723 83.6501 131.371C83.6598 131.577 83.6016 131.779 83.4843 131.948C83.3671 132.117 83.1974 132.243 83.0016 132.305L83.7041 133.297L83.2216 133.29ZM83.2216 131.36C83.2216 130.935 82.9398 130.696 82.3956 130.696H81.6776V132.027H82.3956C82.9282 132.031 83.21 131.784 83.21 131.364L83.2216 131.36Z" fill="white"/>
<path d="M86.2787 132.305H84.4607C84.4893 132.496 84.5884 132.67 84.7384 132.791C84.8885 132.913 85.0786 132.973 85.2713 132.962C85.3924 132.966 85.5131 132.944 85.625 132.897C85.737 132.851 85.8375 132.78 85.9197 132.691L86.1436 132.954C85.9784 133.122 85.7684 133.238 85.5386 133.289C85.3089 133.341 85.0693 133.324 84.8484 133.243C84.6276 133.161 84.435 133.018 84.2936 132.83C84.1523 132.642 84.0682 132.417 84.0515 132.182C84.0435 132.03 84.0669 131.879 84.1203 131.737C84.1736 131.595 84.2559 131.465 84.3617 131.356C84.4676 131.248 84.5948 131.162 84.7354 131.105C84.876 131.047 85.0269 131.02 85.1786 131.024C85.3295 131.02 85.4797 131.047 85.6193 131.105C85.759 131.162 85.885 131.248 85.9894 131.357C86.0938 131.466 86.1741 131.596 86.2253 131.738C86.2765 131.88 86.2973 132.031 86.2864 132.182C86.2864 132.217 86.2826 132.267 86.2787 132.305ZM84.4607 132.012H85.8966C85.8781 131.834 85.7946 131.67 85.662 131.55C85.5294 131.431 85.3572 131.365 85.1786 131.365C85.0001 131.365 84.8279 131.431 84.6953 131.55C84.5627 131.67 84.4791 131.834 84.4607 132.012Z" fill="white"/>
<path d="M88.9962 131.051V132.981C88.9962 133.772 88.5909 134.139 87.8382 134.139C87.4541 134.155 87.0761 134.038 86.7689 133.807L86.9619 133.494C87.209 133.686 87.5139 133.788 87.8266 133.784C88.3554 133.784 88.5986 133.541 88.5986 133.031V132.853C88.4987 132.968 88.3744 133.059 88.2347 133.119C88.0951 133.179 87.9437 133.207 87.7918 133.201C87.5042 133.201 87.2283 133.087 87.0249 132.883C86.8215 132.68 86.7072 132.404 86.7072 132.116C86.7072 131.829 86.8215 131.553 87.0249 131.349C87.2283 131.146 87.5042 131.032 87.7918 131.032C87.9507 131.027 88.1085 131.059 88.2526 131.126C88.3967 131.193 88.5231 131.293 88.6217 131.418V131.07L88.9962 131.051ZM88.6102 132.112C88.6187 131.958 88.5807 131.805 88.5012 131.673C88.4217 131.54 88.3043 131.435 88.1642 131.37C88.0241 131.305 87.8677 131.283 87.7153 131.308C87.5628 131.333 87.4213 131.403 87.3091 131.509C87.1968 131.615 87.119 131.752 87.0856 131.903C87.0522 132.054 87.0648 132.211 87.1218 132.355C87.1787 132.498 87.2775 132.621 87.4052 132.708C87.5329 132.795 87.6837 132.842 87.8382 132.842C87.9369 132.848 88.0359 132.833 88.1287 132.799C88.2216 132.765 88.3064 132.712 88.3778 132.643C88.4492 132.575 88.5057 132.492 88.5437 132.401C88.5817 132.31 88.6004 132.211 88.5986 132.112H88.6102Z" fill="white"/>
<path d="M89.6987 130.356C89.6992 130.321 89.7067 130.286 89.7207 130.253C89.7348 130.22 89.7551 130.191 89.7805 130.166C89.806 130.141 89.8361 130.122 89.869 130.109C89.902 130.096 89.9373 130.089 89.9727 130.09C90.0101 130.085 90.0481 130.089 90.0841 130.1C90.12 130.111 90.1532 130.13 90.1814 130.155C90.2096 130.18 90.2322 130.21 90.2476 130.245C90.2631 130.279 90.2711 130.316 90.2711 130.354C90.2711 130.392 90.2631 130.429 90.2476 130.463C90.2322 130.498 90.2096 130.528 90.1814 130.553C90.1532 130.578 90.12 130.597 90.0841 130.608C90.0481 130.62 90.0101 130.623 89.9727 130.619C89.9374 130.62 89.9023 130.614 89.8693 130.601C89.8364 130.588 89.8063 130.569 89.7808 130.545C89.7553 130.52 89.7349 130.491 89.7208 130.459C89.7067 130.426 89.6992 130.391 89.6987 130.356ZM89.772 131.051H90.1773V133.29H89.772V131.051Z" fill="white"/>
<path d="M90.6675 133.054L90.8374 132.734C91.0673 132.883 91.3352 132.964 91.6094 132.965C91.9954 132.965 92.1421 132.85 92.1421 132.661C92.1421 132.159 90.7254 132.595 90.7254 131.699C90.7254 131.313 91.0844 131.028 91.6596 131.028C91.9443 131.023 92.2252 131.094 92.474 131.232L92.3003 131.553C92.1076 131.431 91.8834 131.37 91.6557 131.375C91.3006 131.375 91.1269 131.506 91.1269 131.684C91.1269 132.213 92.5474 131.78 92.5474 132.653C92.5474 133.039 92.1614 133.317 91.5785 133.317C91.2555 133.321 90.9385 133.23 90.6675 133.054Z" fill="white"/>
<path d="M94.3307 133.17C94.1902 133.277 94.0172 133.333 93.8405 133.328C93.7452 133.339 93.6487 133.329 93.5581 133.297C93.4676 133.266 93.3851 133.215 93.317 133.147C93.2488 133.08 93.1967 132.998 93.1643 132.908C93.132 132.817 93.1204 132.721 93.1302 132.626V131.394H92.7442V131.062H93.1302V130.572H93.5162V131.062H94.184V131.394H93.5394V132.61C93.5303 132.66 93.5328 132.711 93.5467 132.76C93.5605 132.808 93.5855 132.853 93.6194 132.89C93.6534 132.928 93.6956 132.957 93.7426 132.975C93.7897 132.993 93.8403 133.001 93.8906 132.996C94.0048 132.997 94.116 132.961 94.2072 132.892L94.3307 133.17Z" fill="white"/>
<path d="M96.7625 132.305H94.956C94.9846 132.497 95.0843 132.671 95.2352 132.792C95.3861 132.914 95.5771 132.974 95.7705 132.962C95.8911 132.966 96.0113 132.944 96.1226 132.898C96.2339 132.851 96.3337 132.781 96.4151 132.691L96.639 132.954C96.4742 133.122 96.2644 133.239 96.0348 133.29C95.8051 133.342 95.5655 133.326 95.3448 133.244C95.124 133.163 94.9316 133.019 94.7907 132.83C94.6498 132.642 94.5665 132.417 94.5507 132.182C94.5427 132.03 94.5661 131.879 94.6195 131.737C94.6729 131.595 94.7551 131.465 94.8609 131.356C94.9668 131.248 95.094 131.162 95.2346 131.105C95.3752 131.047 95.5261 131.02 95.6778 131.024C95.8286 131.02 95.9784 131.048 96.1178 131.106C96.2572 131.163 96.383 131.249 96.4872 131.358C96.5915 131.467 96.6719 131.597 96.7232 131.739C96.7746 131.88 96.7959 132.031 96.7856 132.182C96.7816 132.224 96.7739 132.265 96.7625 132.305ZM94.956 132.012H96.3958C96.3735 131.837 96.2881 131.676 96.1556 131.559C96.0231 131.442 95.8525 131.378 95.6759 131.378C95.4993 131.378 95.3287 131.442 95.1962 131.559C95.0637 131.676 94.9783 131.837 94.956 132.012Z" fill="white"/>
<path d="M98.5419 131.028V131.414H98.4493C98.3489 131.407 98.2483 131.422 98.1548 131.46C98.0613 131.497 97.9775 131.555 97.9096 131.629C97.8417 131.703 97.7914 131.792 97.7625 131.888C97.7337 131.985 97.727 132.086 97.7429 132.186V133.301H97.3376V131.062H97.7236V131.448C97.8052 131.307 97.9257 131.192 98.0709 131.118C98.216 131.043 98.3795 131.012 98.5419 131.028Z" fill="white"/>
<g opacity="0.6">
<path d="M80.9017 68.5575L81.0754 68.1946C81.375 68.4457 81.7538 68.5825 82.1447 68.5806C82.7044 68.5806 82.9437 68.3645 82.9437 68.0827C82.9437 67.3107 80.9828 67.7893 80.9828 66.5889C80.9828 66.0871 81.3688 65.6625 82.2219 65.6625C82.5894 65.6565 82.9509 65.7556 83.2641 65.9481L83.1097 66.3341C82.8445 66.1644 82.5367 66.0733 82.2219 66.0716C81.6699 66.0716 81.4499 66.3032 81.4499 66.585C81.4499 67.357 83.4146 66.8784 83.4146 68.0711C83.4146 68.5652 83.0286 68.9898 82.1601 68.9898C81.7027 68.9994 81.2567 68.8462 80.9017 68.5575Z" fill="white"/>
<path d="M83.9318 65.7126C83.9323 65.6738 83.9406 65.6354 83.956 65.5998C83.9715 65.5641 83.9938 65.5319 84.0218 65.5049C84.0499 65.478 84.0829 65.4569 84.1192 65.4429C84.1554 65.4288 84.1941 65.4221 84.2329 65.4231C84.2713 65.4216 84.3095 65.4277 84.3455 65.4411C84.3815 65.4544 84.4144 65.4748 84.4424 65.501C84.4704 65.5273 84.493 65.5588 84.5087 65.5938C84.5244 65.6288 84.533 65.6666 84.534 65.7049C84.534 65.7848 84.5023 65.8614 84.4458 65.9178C84.3894 65.9743 84.3128 66.006 84.2329 66.006C84.1531 66.006 84.0765 65.9743 84.02 65.9178C83.9636 65.8614 83.9318 65.7848 83.9318 65.7049V65.7126ZM84.009 66.4846H84.4568V68.9396H84.009V66.4846Z" fill="white"/>
<path d="M87.649 66.4731V68.5922C87.649 69.4607 87.209 69.8544 86.3791 69.8544C85.9626 69.8676 85.5541 69.7383 85.2211 69.4877L85.4334 69.1442C85.7022 69.3568 86.0363 69.47 86.3791 69.4646C86.9581 69.4646 87.2206 69.1944 87.2206 68.6385V68.4455C87.1113 68.5717 86.9752 68.6718 86.8223 68.7386C86.6694 68.8054 86.5034 68.8371 86.3366 68.8315C86.1751 68.8407 86.0133 68.8169 85.8613 68.7614C85.7093 68.7059 85.5702 68.62 85.4525 68.5088C85.3349 68.3977 85.2412 68.2637 85.1771 68.1151C85.1131 67.9665 85.08 67.8064 85.08 67.6446C85.08 67.4827 85.1131 67.3226 85.1771 67.174C85.2412 67.0254 85.3349 66.8914 85.4525 66.7803C85.5702 66.6692 85.7093 66.5832 85.8613 66.5277C86.0133 66.4723 86.1751 66.4484 86.3366 66.4576C86.5072 66.4487 86.6776 66.4789 86.8348 66.5458C86.992 66.6127 87.1318 66.7145 87.2437 66.8436V66.4576L87.649 66.4731ZM87.2167 67.6311C87.2252 67.4623 87.1829 67.2949 87.0953 67.1504C87.0078 67.0059 86.8789 66.891 86.7254 66.8205C86.5718 66.7499 86.4007 66.727 86.234 66.7547C86.0673 66.7823 85.9128 66.8593 85.7903 66.9757C85.6678 67.092 85.5829 67.2424 85.5467 67.4074C85.5105 67.5725 85.5246 67.7446 85.5871 67.9015C85.6497 68.0585 85.7578 68.1931 85.8976 68.288C86.0374 68.3829 86.2024 68.4337 86.3714 68.4339C86.4818 68.4436 86.593 68.4301 86.698 68.3943C86.8029 68.3584 86.8991 68.3011 86.9805 68.2258C87.062 68.1506 87.1267 68.0591 87.1707 67.9574C87.2147 67.8556 87.237 67.7458 87.236 67.6349L87.2167 67.6311Z" fill="white"/>
<path d="M90.8297 67.5153V68.928H90.3819V67.55C90.3819 67.0675 90.1426 66.832 89.7218 66.832C89.6149 66.825 89.5078 66.8417 89.4081 66.8808C89.3084 66.9198 89.2184 66.9804 89.1448 67.0581C89.0711 67.1359 89.0154 67.2289 88.9817 67.3306C88.948 67.4323 88.9371 67.5401 88.9498 67.6465V68.9126H88.5059V66.4576H88.9344V66.8436C89.0397 66.7128 89.1751 66.6094 89.329 66.5422C89.4829 66.475 89.6508 66.446 89.8183 66.4576C89.9576 66.4483 90.0972 66.4696 90.2273 66.5201C90.3574 66.5706 90.4748 66.6491 90.5713 66.75C90.6677 66.8509 90.7409 66.9717 90.7855 67.1039C90.8302 67.2361 90.8452 67.3766 90.8297 67.5153Z" fill="white"/>
<path d="M95.1876 66.4731V68.928H94.7669V68.542C94.6689 68.6683 94.542 68.7693 94.397 68.8365C94.2519 68.9036 94.0928 68.935 93.9331 68.928C93.7896 68.9428 93.6445 68.9252 93.5087 68.8765C93.3729 68.8278 93.2497 68.7493 93.1482 68.6467C93.0467 68.5441 92.9695 68.4201 92.9223 68.2837C92.8751 68.1474 92.8591 68.0022 92.8755 67.8588V66.446H93.3194V67.8086C93.3194 68.2873 93.5625 68.5304 93.9833 68.5304C94.0903 68.5381 94.1978 68.522 94.2978 68.4831C94.3979 68.4443 94.4881 68.3838 94.562 68.3058C94.6358 68.2279 94.6914 68.1346 94.7249 68.0326C94.7583 67.9306 94.7687 67.8225 94.7553 67.716V66.446L95.1876 66.4731Z" fill="white"/>
<path d="M98.5767 67.7005C98.5854 67.8663 98.5595 68.032 98.5005 68.1871C98.4415 68.3422 98.3508 68.4834 98.2342 68.6014C98.1176 68.7195 97.9776 68.8119 97.8232 68.8728C97.6688 68.9337 97.5034 68.9617 97.3376 68.955C97.1747 68.9614 97.0124 68.9299 96.8637 68.8629C96.715 68.7959 96.5839 68.6953 96.4807 68.569V69.8351H96.0368V66.4846H96.4614V66.8706C96.5633 66.7363 96.6963 66.6285 96.8488 66.5566C97.0014 66.4847 97.1691 66.4507 97.3376 66.4576C97.5026 66.4505 97.6672 66.4778 97.821 66.5378C97.9748 66.5977 98.1145 66.6891 98.2311 66.806C98.3476 66.923 98.4385 67.0629 98.4981 67.2169C98.5576 67.3709 98.5843 67.5356 98.5767 67.7005ZM98.1289 67.7005C98.1214 67.5392 98.0667 67.3836 97.9716 67.253C97.8765 67.1224 97.7453 67.0226 97.5941 66.9658C97.4428 66.909 97.2783 66.8979 97.1208 66.9337C96.9633 66.9694 96.8197 67.0506 96.7078 67.1672C96.596 67.2837 96.5207 67.4305 96.4914 67.5893C96.4621 67.7482 96.4801 67.9121 96.543 68.0609C96.6059 68.2097 96.711 68.3367 96.8454 68.4264C96.9798 68.516 97.1375 68.5643 97.299 68.5652C97.4116 68.5675 97.5235 68.5465 97.6276 68.5034C97.7316 68.4603 97.8256 68.3961 97.9036 68.3149C97.9816 68.2336 98.0419 68.1371 98.0807 68.0313C98.1195 67.9256 98.1359 67.813 98.1289 67.7005Z" fill="white"/>
</g>
<path d="M114.997 87.0584H64.4929V95.7048H114.997V87.0584Z" fill="white"/>
<g opacity="0.4">
<path d="M67.2566 89.9727H67.5191V92.2231H68.9049V92.4509H67.2566V89.9727Z" fill="black"/>
<path d="M70.6998 91.2967V92.4547H70.4604V92.1652C70.3902 92.2685 70.294 92.3514 70.1815 92.4056C70.069 92.4598 69.9442 92.4834 69.8197 92.474C69.3989 92.474 69.1403 92.254 69.1403 91.9298C69.1403 91.6055 69.3217 91.4048 69.8583 91.4048H70.4489V91.2929C70.4489 90.9725 70.2674 90.7988 69.92 90.7988C69.6945 90.7958 69.4753 90.8739 69.3024 91.0188L69.1866 90.8297C69.407 90.6589 69.68 90.5702 69.9586 90.5788C70.0568 90.5669 70.1564 90.5771 70.2501 90.6086C70.3439 90.6401 70.4294 90.6922 70.5004 90.761C70.5714 90.8298 70.6262 90.9136 70.6607 91.0063C70.6952 91.099 70.7085 91.1982 70.6998 91.2967ZM70.4489 91.8912V91.5862H69.866C69.5032 91.5862 69.3874 91.729 69.3874 91.922C69.3874 92.115 69.5611 92.2694 69.8583 92.2694C69.9841 92.2772 70.1091 92.2447 70.2153 92.1767C70.3215 92.1087 70.4032 92.0087 70.4489 91.8912Z" fill="black"/>
<path d="M71.1244 92.254L71.2363 92.0572C71.431 92.1931 71.6628 92.2658 71.9002 92.2656C72.2553 92.2656 72.3982 92.1459 72.3982 91.9607C72.3982 91.4743 71.1938 91.8564 71.1938 91.123C71.1938 90.8181 71.4525 90.5903 71.9272 90.5903C72.1589 90.5873 72.3871 90.6474 72.5873 90.764L72.4754 90.9648C72.313 90.8575 72.1218 90.8023 71.9272 90.8065C71.5914 90.8065 71.4447 90.9377 71.4447 91.1153C71.4447 91.6171 72.6491 91.2388 72.6491 91.9529C72.6491 92.2772 72.3673 92.4856 71.8771 92.4856C71.6078 92.4915 71.3438 92.4103 71.1244 92.254Z" fill="black"/>
<path d="M74.112 92.3389C74.0024 92.4259 73.866 92.4723 73.726 92.4702C73.6526 92.4781 73.5783 92.4695 73.5087 92.4449C73.4391 92.4204 73.3758 92.3805 73.3236 92.3283C73.2714 92.2761 73.2315 92.2128 73.207 92.1432C73.1824 92.0736 73.1738 91.9993 73.1817 91.9259V90.8026H72.8459V90.5903H73.1817V90.1812H73.4326V90.5903H73.9962V90.8026H73.4326V91.9143C73.426 91.9588 73.4296 92.0042 73.4431 92.047C73.4566 92.0899 73.4796 92.1292 73.5104 92.1619C73.5413 92.1946 73.5791 92.2199 73.6211 92.2358C73.6632 92.2518 73.7083 92.258 73.753 92.254C73.8544 92.257 73.9533 92.2227 74.0309 92.1575L74.112 92.3389Z" fill="black"/>
<path d="M77.586 89.9727V92.4509H77.3698L75.7795 90.4398V92.4509H75.517V89.9727H75.7332L77.3274 91.9838V89.9727H77.586Z" fill="black"/>
<path d="M79.763 91.2967V92.4547H79.516V92.1652C79.4463 92.2691 79.3502 92.3524 79.2376 92.4067C79.125 92.461 78.9999 92.4842 78.8752 92.474C78.4545 92.474 78.1959 92.254 78.1959 91.9298C78.1959 91.6055 78.3812 91.4048 78.9177 91.4048H79.516V91.2929C79.516 90.9725 79.3346 90.7988 78.9872 90.7988C78.7616 90.7958 78.5425 90.8739 78.3696 91.0188L78.2538 90.8297C78.4737 90.658 78.747 90.5692 79.0258 90.5788C79.1237 90.5675 79.2228 90.5781 79.3161 90.61C79.4093 90.6418 79.4943 90.6939 79.5649 90.7627C79.6355 90.8314 79.6899 90.915 79.7241 91.0074C79.7584 91.0997 79.7717 91.1986 79.763 91.2967ZM79.5121 91.8912V91.5862H78.9254C78.5664 91.5862 78.4506 91.729 78.4506 91.922C78.4506 92.115 78.6243 92.2694 78.9216 92.2694C79.048 92.278 79.1739 92.2459 79.2809 92.1779C79.3878 92.1098 79.4702 92.0093 79.516 91.8912H79.5121Z" fill="black"/>
<path d="M83.5188 91.3701V92.4509H83.2679V91.3971C83.2679 91.0111 83.0672 90.8026 82.7314 90.8026C82.6443 90.7986 82.5574 90.8136 82.4768 90.8467C82.3961 90.8797 82.3237 90.93 82.2645 90.994C82.2053 91.0579 82.1608 91.1341 82.1341 91.217C82.1074 91.3 82.0991 91.3878 82.1099 91.4743V92.4509H81.859V91.3971C81.859 91.0111 81.6583 90.8026 81.3186 90.8026C81.2316 90.7986 81.1447 90.8136 81.064 90.8467C80.9834 90.8797 80.9109 90.93 80.8517 90.994C80.7925 91.0579 80.748 91.1341 80.7213 91.217C80.6946 91.3 80.6864 91.3878 80.6972 91.4743V92.4509H80.4463V90.5903H80.674V90.93C80.7468 90.8162 80.8483 90.7235 80.9682 90.6612C81.0881 90.5989 81.2222 90.5691 81.3572 90.5749C81.4941 90.5637 81.6311 90.5946 81.7498 90.6636C81.8685 90.7327 81.9632 90.8364 82.0211 90.9609C82.0973 90.8365 82.2057 90.735 82.3348 90.6671C82.4639 90.5991 82.6089 90.5673 82.7545 90.5749C82.8602 90.5646 82.9668 90.5783 83.0663 90.6151C83.1659 90.6519 83.2558 90.7107 83.3294 90.7873C83.4029 90.8638 83.4582 90.956 83.491 91.0569C83.5238 91.1579 83.5333 91.2649 83.5188 91.3701Z" fill="black"/>
<path d="M85.831 91.5978H84.287C84.2924 91.6886 84.3156 91.7774 84.3555 91.8592C84.3953 91.941 84.4509 92.0141 84.519 92.0743C84.5871 92.1346 84.6665 92.1808 84.7525 92.2103C84.8386 92.2398 84.9296 92.252 85.0204 92.2463C85.1275 92.2497 85.2342 92.2298 85.3328 92.1878C85.4315 92.1458 85.5198 92.0828 85.5916 92.0031L85.7306 92.1652C85.5968 92.3049 85.4249 92.4021 85.2362 92.4446C85.0475 92.4872 84.8505 92.4732 84.6697 92.4044C84.489 92.3357 84.3324 92.2152 84.2198 92.058C84.1071 91.9008 84.0432 91.7139 84.0361 91.5206C84.0297 91.3977 84.0487 91.2748 84.0917 91.1594C84.1348 91.0441 84.2011 90.9389 84.2865 90.8502C84.3719 90.7616 84.4746 90.6914 84.5882 90.6441C84.7018 90.5967 84.8239 90.5732 84.947 90.5749C85.0699 90.5725 85.192 90.5957 85.3055 90.6429C85.419 90.6901 85.5215 90.7604 85.6064 90.8493C85.6913 90.9383 85.7568 91.0438 85.7988 91.1594C85.8408 91.2749 85.8583 91.3979 85.8503 91.5206C85.8348 91.5438 85.831 91.5708 85.831 91.5978ZM84.287 91.4125H85.6071C85.6071 91.2375 85.5375 91.0696 85.4138 90.9458C85.29 90.822 85.1221 90.7525 84.947 90.7525C84.772 90.7525 84.6041 90.822 84.4803 90.9458C84.3565 91.0696 84.287 91.2375 84.287 91.4125Z" fill="black"/>
</g>
<path d="M114.997 75.2469H64.4929V83.8933H114.997V75.2469Z" fill="white"/>
<g opacity="0.4">
<path d="M67.5191 78.3889V79.3616H68.8006V79.5893H67.5191V80.6393H67.2566V78.1611H68.955V78.3889H67.5191Z" fill="black"/>
<path d="M69.3526 78.1882C69.3519 78.1512 69.3622 78.1148 69.3822 78.0838C69.4023 78.0527 69.4312 78.0284 69.4652 78.0139C69.4992 77.9994 69.5368 77.9954 69.5731 78.0024C69.6094 78.0095 69.6427 78.0272 69.6689 78.0533C69.695 78.0795 69.7127 78.1128 69.7198 78.1491C69.7268 78.1854 69.7228 78.223 69.7083 78.257C69.6938 78.291 69.6695 78.3199 69.6384 78.34C69.6073 78.36 69.571 78.3703 69.534 78.3696C69.4859 78.3696 69.4398 78.3505 69.4058 78.3164C69.3717 78.2824 69.3526 78.2363 69.3526 78.1882ZM69.4067 78.7787H69.6576V80.6393H69.4067V78.7787Z" fill="black"/>
<path d="M71.2981 78.7633V79.0065H71.2363C71.1476 79.0022 71.0591 79.0175 70.977 79.0514C70.895 79.0853 70.8214 79.137 70.7617 79.2026C70.7019 79.2683 70.6574 79.3464 70.6314 79.4312C70.6053 79.5161 70.5984 79.6057 70.611 79.6936V80.6431H70.3601V78.7826H70.5994V79.13C70.6662 79.0063 70.7683 78.9053 70.8928 78.84C71.0172 78.7747 71.1583 78.748 71.2981 78.7633Z" fill="black"/>
<path d="M71.5065 80.427L71.6184 80.2262C71.8114 80.3661 72.0441 80.4405 72.2824 80.4385C72.6375 80.4385 72.7803 80.315 72.7803 80.1336C72.7803 79.6472 71.576 80.0294 71.576 79.2921C71.576 78.991 71.8346 78.7633 72.3094 78.7633C72.5413 78.7583 72.77 78.8184 72.9694 78.937L72.8575 79.1377C72.6951 79.0305 72.5039 78.9753 72.3094 78.9795C71.9736 78.9795 71.8269 79.1107 71.8269 79.2883C71.8269 79.7901 73.0312 79.4118 73.0312 80.1259C73.0312 80.4463 72.7494 80.6547 72.2592 80.6547C71.9903 80.6617 71.7264 80.5818 71.5065 80.427Z" fill="black"/>
<path d="M74.498 80.5273C74.3871 80.6116 74.2513 80.6564 74.112 80.6547C74.0388 80.6633 73.9646 80.6552 73.8949 80.6311C73.8253 80.6071 73.7619 80.5676 73.7096 80.5157C73.6573 80.4637 73.6174 80.4007 73.5928 80.3312C73.5683 80.2617 73.5597 80.1876 73.5677 80.1143V78.991H73.2319V78.7787H73.5677V78.358H73.8186V78.7672H74.3822V78.9795H73.8186V80.0873C73.8122 80.1319 73.8158 80.1774 73.8292 80.2205C73.8427 80.2635 73.8656 80.3029 73.8964 80.3359C73.9272 80.3689 73.9649 80.3945 74.0069 80.411C74.0489 80.4274 74.0941 80.4342 74.139 80.4308C74.2401 80.4321 74.3384 80.398 74.4169 80.3343L74.498 80.5273Z" fill="black"/>
<path d="M77.972 78.1611V80.6393H77.7558L76.1655 78.6282V80.6393H75.903V78.1611H76.1192L77.7134 80.1722V78.1611H77.972Z" fill="black"/>
<path d="M80.1452 79.4851V80.6431H79.902V80.3536C79.8328 80.4567 79.7372 80.5394 79.6252 80.593C79.5132 80.6467 79.3888 80.6693 79.2651 80.6586C78.8405 80.6586 78.5819 80.4424 78.5819 80.1181C78.5819 79.7939 78.7672 79.5932 79.3037 79.5932H79.902V79.4774C79.902 79.1609 79.7206 78.9872 79.3732 78.9872C79.1476 78.9842 78.9285 79.0623 78.7556 79.2072L78.6398 79.0181C78.8599 78.8467 79.133 78.758 79.4118 78.7671C79.5095 78.7558 79.6085 78.7664 79.7016 78.7982C79.7947 78.8301 79.8795 78.8823 79.9498 78.9511C80.0201 79.0199 80.0741 79.1036 80.1079 79.196C80.1417 79.2884 80.1545 79.3872 80.1452 79.4851ZM79.8943 80.0796V79.7746H79.3076C78.9486 79.7746 78.8328 79.9174 78.8328 80.1066C78.8328 80.2957 79.0065 80.4578 79.3037 80.4578C79.4307 80.4666 79.5572 80.4347 79.6648 80.3667C79.7724 80.2986 79.8555 80.1981 79.902 80.0796H79.8943Z" fill="black"/>
<path d="M83.901 79.5585V80.6393H83.6501V79.5855C83.6501 79.1995 83.4493 78.991 83.1135 78.991C83.0265 78.987 82.9396 79.002 82.8589 79.0351C82.7783 79.0681 82.7058 79.1184 82.6466 79.1824C82.5874 79.2463 82.5429 79.3225 82.5162 79.4054C82.4895 79.4884 82.4813 79.5762 82.4921 79.6627V80.6393H82.2412V79.5855C82.2412 79.1995 82.0404 78.991 81.7008 78.991C81.6137 78.987 81.5268 79.002 81.4462 79.0351C81.3655 79.0681 81.2931 79.1184 81.2339 79.1824C81.1747 79.2463 81.1302 79.3225 81.1035 79.4054C81.0768 79.4884 81.0685 79.5762 81.0793 79.6627V80.6393H80.8284V78.7787H81.06V79.13C81.1328 79.0162 81.2343 78.9235 81.3542 78.8612C81.4741 78.7989 81.6082 78.7691 81.7432 78.7749C81.8801 78.7636 82.0171 78.7946 82.1358 78.8636C82.2545 78.9327 82.3492 79.0364 82.4071 79.1609C82.4827 79.0359 82.591 78.934 82.7202 78.8659C82.8494 78.7979 82.9947 78.7664 83.1405 78.7749C83.2448 78.7655 83.3498 78.7795 83.4479 78.816C83.546 78.8524 83.6347 78.9102 83.7076 78.9853C83.7805 79.0604 83.8357 79.1509 83.8691 79.25C83.9026 79.3492 83.9135 79.4546 83.901 79.5585Z" fill="black"/>
<path d="M86.2131 79.7862H84.6691C84.6745 79.877 84.6978 79.9658 84.7376 80.0476C84.7774 80.1294 84.833 80.2025 84.9011 80.2627C84.9693 80.323 85.0486 80.3692 85.1347 80.3987C85.2207 80.4282 85.3117 80.4404 85.4025 80.4347C85.51 80.4382 85.617 80.4178 85.7158 80.3751C85.8146 80.3324 85.9027 80.2684 85.9738 80.1876L86.1127 80.3536C85.979 80.4933 85.807 80.5905 85.6183 80.633C85.4297 80.6756 85.2326 80.6616 85.0519 80.5928C84.8711 80.524 84.7146 80.4035 84.6019 80.2464C84.4892 80.0892 84.4253 79.9023 84.4182 79.709C84.4118 79.5861 84.4308 79.4631 84.4739 79.3478C84.517 79.2325 84.5832 79.1273 84.6686 79.0386C84.754 78.95 84.8567 78.8798 84.9703 78.8324C85.084 78.7851 85.2061 78.7615 85.3292 78.7633C85.4521 78.7609 85.5742 78.784 85.6877 78.8313C85.8012 78.8785 85.9036 78.9488 85.9885 79.0377C86.0734 79.1266 86.139 79.2322 86.1809 79.3478C86.2229 79.4633 86.2404 79.5863 86.2324 79.709C86.217 79.7283 86.2131 79.7553 86.2131 79.7862ZM84.6691 79.5971H85.9892C85.9892 79.422 85.9197 79.2541 85.7959 79.1303C85.6721 79.0065 85.5042 78.937 85.3292 78.937C85.1541 78.937 84.9862 79.0065 84.8624 79.1303C84.7386 79.2541 84.6691 79.422 84.6691 79.5971Z" fill="black"/>
</g>
<path d="M153.867 38.3337H142.778C141.873 38.3337 141.005 38.6932 140.365 39.3331C139.725 39.973 139.365 40.8409 139.365 41.7459V51.3959C139.365 51.8443 139.453 52.2885 139.624 52.7029C139.795 53.1173 140.046 53.494 140.363 53.8112C140.68 54.1285 141.057 54.3802 141.471 54.5519C141.885 54.7236 142.329 54.812 142.778 54.812H146.016L145.244 57.8575L148.332 54.812H153.887C154.793 54.812 155.662 54.4521 156.302 53.8115C156.943 53.1708 157.303 52.3019 157.303 51.3959V41.7459C157.303 41.2959 157.214 40.8502 157.041 40.4347C156.868 40.0192 156.614 39.642 156.295 39.3249C155.976 39.0077 155.597 38.7568 155.18 38.5867C154.764 38.4166 154.317 38.3306 153.867 38.3337Z" fill="white"/>
<path opacity="0.7" d="M153.867 38.3337H142.778C141.873 38.3337 141.005 38.6932 140.365 39.3331C139.725 39.973 139.365 40.8409 139.365 41.7459V51.3959C139.365 51.8443 139.453 52.2885 139.624 52.7029C139.795 53.1173 140.046 53.494 140.363 53.8112C140.68 54.1285 141.057 54.3802 141.471 54.5519C141.885 54.7236 142.329 54.812 142.778 54.812H146.016L145.244 57.8575L148.332 54.812H153.887C154.793 54.812 155.662 54.4521 156.302 53.8115C156.943 53.1708 157.303 52.3019 157.303 51.3959V41.7459C157.303 41.2959 157.214 40.8502 157.041 40.4347C156.868 40.0192 156.614 39.642 156.295 39.3249C155.976 39.0077 155.597 38.7568 155.18 38.5867C154.764 38.4166 154.317 38.3306 153.867 38.3337Z" fill="white"/>
<path d="M148.324 50.8362C150.701 50.8362 152.628 48.9093 152.628 46.5323C152.628 44.1553 150.701 42.2284 148.324 42.2284C145.947 42.2284 144.02 44.1553 144.02 46.5323C144.02 48.9093 145.947 50.8362 148.324 50.8362Z" fill="white"/>
<path d="M148.324 41.028C147.236 41.028 146.171 41.3508 145.266 41.9556C144.361 42.5604 143.656 43.4201 143.239 44.4259C142.822 45.4317 142.713 46.5384 142.926 47.6062C143.138 48.6739 143.662 49.6547 144.432 50.4245C145.202 51.1943 146.183 51.7185 147.251 51.9309C148.318 52.1433 149.425 52.0343 150.431 51.6177C151.437 51.2011 152.296 50.4956 152.901 49.5904C153.506 48.6852 153.829 47.621 153.829 46.5323C153.829 45.8093 153.687 45.0933 153.411 44.4253C153.134 43.7572 152.729 43.1502 152.218 42.639C151.706 42.1278 151.099 41.7224 150.431 41.4459C149.763 41.1695 149.047 41.0274 148.324 41.028ZM151.447 44.888L148.131 48.7943C148.084 48.8507 148.025 48.8959 147.958 48.9267C147.892 48.9574 147.819 48.9728 147.745 48.9718C147.672 48.9723 147.599 48.9566 147.533 48.9259C147.466 48.8952 147.407 48.8503 147.359 48.7943L145.202 46.2505C145.156 46.2002 145.121 46.1413 145.099 46.0772C145.076 46.0131 145.067 45.9451 145.072 45.8774C145.076 45.8096 145.094 45.7435 145.125 45.6829C145.156 45.6223 145.198 45.5685 145.25 45.5247C145.302 45.4809 145.362 45.448 145.427 45.4279C145.492 45.4078 145.56 45.401 145.627 45.4079C145.695 45.4147 145.76 45.4351 145.82 45.4678C145.879 45.5005 145.932 45.5449 145.974 45.5982L147.745 47.6865L150.675 44.2356C150.763 44.1385 150.885 44.0794 151.016 44.0707C151.147 44.062 151.276 44.1044 151.376 44.189C151.476 44.2736 151.54 44.3937 151.553 44.5241C151.566 44.6545 151.528 44.785 151.447 44.888Z" fill="white"/>
<path d="M151.945 97.8742C151.945 97.8742 145.225 97.025 135.042 99.8041C135.042 99.8041 133.405 81.6081 133.598 79.1068C133.791 76.6056 149.32 77.339 149.32 77.339C149.32 77.339 149.706 84.6228 150.718 89.0155C151.729 93.4081 152.47 97.0288 151.945 97.8742Z" fill="white"/>
<path opacity="0.2" d="M151.945 97.8742C151.945 97.8742 145.225 97.025 135.042 99.8041C135.042 99.8041 133.405 81.6081 133.598 79.1068C133.791 76.6056 149.32 77.339 149.32 77.339C149.32 77.339 149.706 84.6228 150.718 89.0155C151.729 93.4081 152.47 97.0288 151.945 97.8742Z" fill="black"/>
<path d="M130.132 158.113L132.873 158.889L133.525 154.624L133.876 152.343L131.136 151.567L130.669 154.624L130.132 158.113Z" fill="#E4897B"/>
<path d="M145.889 158.337L148.714 158.712L148.741 154.624L148.761 152.084L145.931 151.713L145.912 154.624L145.889 158.337Z" fill="#E4897B"/>
<path opacity="0.2" d="M145.931 151.713L145.912 154.624H148.741L148.761 152.084L145.931 151.713Z" fill="black"/>
<path opacity="0.2" d="M130.669 154.624H133.525L133.876 152.343L131.136 151.567L130.669 154.624Z" fill="black"/>
<path d="M117.965 80.6007L115.244 79.7978L115.742 82.9051C115.742 82.9051 118.213 83.4725 118.444 82.1871L117.965 80.6007Z" fill="#E4897B"/>
<path d="M112.527 80.5196L113.862 83.0441L115.742 82.9051L115.244 79.7978L112.527 80.5196Z" fill="#E4897B"/>
<path d="M121.721 81.3958L117.251 80.3961L116.846 82.5654L120.903 83.5536L121.721 81.3958Z" fill="#E4897B"/>
<path d="M135.243 79.4349L134.98 79.7476C134.417 80.4077 133.05 82.0018 131.626 83.376C130.468 84.4954 129.31 85.472 128.538 85.6688C126.349 86.2324 118.394 83.8894 118.394 83.8894L119.216 80.6624C119.216 80.6624 126.627 81.6467 127.202 81.6467C127.639 81.6467 132.147 75.1156 133.239 74.5791L135.243 79.4349Z" fill="white"/>
<path opacity="0.2" d="M134.98 79.7476C134.417 80.4077 133.05 82.0018 131.626 83.376C131.912 81.114 132.742 79.0374 133.834 77.725C133.936 77.5983 134.052 77.4843 134.181 77.3853L134.98 79.7476Z" fill="black"/>
<path d="M130.167 157.685L133.278 157.604C133.334 157.602 133.389 157.619 133.434 157.653C133.479 157.687 133.511 157.735 133.525 157.789L134.181 160.294C134.197 160.354 134.199 160.417 134.187 160.478C134.175 160.539 134.15 160.596 134.113 160.646C134.076 160.695 134.028 160.736 133.973 160.765C133.918 160.793 133.857 160.809 133.795 160.811C132.672 160.811 131.047 160.811 129.638 160.838C127.986 160.885 126.936 160.804 125.006 160.838C123.848 160.869 123.462 159.704 123.956 159.584C126.168 159.036 127.615 159.144 129.499 157.909C129.698 157.776 129.928 157.699 130.167 157.685Z" fill="#263238"/>
<path d="M129.897 158.086C129.441 158.187 128.631 158.322 128.306 158.055C128.259 158.016 128.222 157.966 128.198 157.91C128.174 157.854 128.163 157.792 128.167 157.731C128.167 157.694 128.177 157.658 128.195 157.626C128.213 157.595 128.24 157.568 128.272 157.55C128.615 157.345 129.777 157.897 129.912 157.959C129.924 157.965 129.934 157.975 129.941 157.986C129.947 157.998 129.951 158.011 129.951 158.025C129.95 158.039 129.944 158.054 129.935 158.065C129.925 158.076 129.911 158.084 129.897 158.086ZM128.353 157.658H128.33C128.317 157.665 128.306 157.676 128.299 157.689C128.291 157.702 128.287 157.716 128.287 157.731C128.284 157.771 128.29 157.811 128.306 157.848C128.321 157.885 128.345 157.918 128.376 157.943C128.557 158.094 129.028 158.109 129.654 157.986C129.202 157.797 128.573 157.577 128.36 157.658H128.353Z" fill="white"/>
<path d="M129.897 158.086H129.85C129.499 157.94 128.797 157.345 128.835 157.025C128.835 156.948 128.897 156.851 129.082 156.828C129.15 156.819 129.219 156.824 129.286 156.842C129.352 156.859 129.414 156.89 129.468 156.932C129.854 157.222 129.943 157.982 129.951 158.013C129.952 158.025 129.95 158.037 129.945 158.047C129.941 158.058 129.933 158.068 129.924 158.075L129.897 158.086ZM129.032 156.978C128.974 156.998 128.97 157.029 128.97 157.04C128.947 157.233 129.426 157.704 129.785 157.905C129.743 157.581 129.6 157.278 129.376 157.04C129.338 157.008 129.293 156.985 129.245 156.971C129.197 156.958 129.147 156.955 129.098 156.963C129.075 156.965 129.053 156.97 129.032 156.978Z" fill="white"/>
<path d="M146.001 157.685L149.112 157.604C149.168 157.602 149.224 157.619 149.27 157.653C149.315 157.686 149.348 157.734 149.363 157.789L150.015 160.294C150.031 160.354 150.034 160.417 150.022 160.478C150.011 160.54 149.986 160.597 149.948 160.647C149.911 160.697 149.863 160.738 149.808 160.766C149.752 160.795 149.691 160.81 149.629 160.811C148.506 160.811 146.881 160.811 145.468 160.838C143.82 160.885 142.766 160.804 140.836 160.838C139.678 160.869 139.292 159.704 139.786 159.584C141.998 159.036 143.441 159.144 145.325 157.909C145.526 157.775 145.759 157.698 146.001 157.685Z" fill="#263238"/>
<path d="M145.734 158.086C145.279 158.187 144.464 158.322 144.144 158.055C144.097 158.016 144.059 157.966 144.035 157.91C144.011 157.854 144.001 157.792 144.005 157.731C144.005 157.694 144.014 157.658 144.033 157.626C144.051 157.595 144.077 157.568 144.109 157.55C144.449 157.345 145.615 157.897 145.746 157.959C145.759 157.964 145.769 157.973 145.776 157.985C145.783 157.997 145.786 158.011 145.784 158.025C145.783 158.039 145.778 158.052 145.769 158.063C145.76 158.074 145.748 158.082 145.734 158.086ZM144.19 157.658H144.167C144.154 157.665 144.144 157.676 144.137 157.689C144.13 157.702 144.127 157.717 144.129 157.731C144.125 157.771 144.131 157.811 144.146 157.848C144.162 157.886 144.186 157.918 144.217 157.943C144.399 158.094 144.866 158.109 145.495 157.986C145.036 157.797 144.406 157.577 144.194 157.658H144.19Z" fill="white"/>
<path d="M145.734 158.086H145.684C145.337 157.94 144.63 157.345 144.673 157.025C144.673 156.948 144.731 156.851 144.916 156.828C144.984 156.819 145.053 156.823 145.12 156.841C145.186 156.859 145.248 156.89 145.302 156.932C145.572 157.233 145.741 157.611 145.784 158.013C145.786 158.025 145.785 158.037 145.78 158.048C145.775 158.059 145.767 158.068 145.757 158.075L145.734 158.086ZM144.866 156.978C144.812 156.998 144.808 157.029 144.808 157.04C144.781 157.233 145.263 157.704 145.622 157.905C145.578 157.581 145.435 157.279 145.213 157.04C145.175 157.008 145.13 156.985 145.083 156.972C145.035 156.958 144.984 156.956 144.935 156.963L144.866 156.978Z" fill="white"/>
<path d="M151.717 96.2144C153.215 102.703 150.644 153.752 150.644 153.752H145.68L143.557 111.21L135.741 153.752L130.433 153.366C133.907 120.409 136.968 100.734 136.968 100.734V98.2486L151.717 96.2144Z" fill="#263238"/>
<path opacity="0.4" d="M130.433 153.366L135.741 153.752L141.894 120.262L143.557 111.21L145.68 153.752H150.644C150.644 153.752 153.215 102.703 151.717 96.2144L136.961 98.2486V100.734C136.961 100.734 133.903 120.409 130.433 153.366Z" fill="white"/>
<path d="M149.042 72.182C148.89 75.2844 148.969 78.3939 149.278 81.4846C149.486 83.6462 149.772 85.6882 150.077 87.5294C150.791 91.8487 151.601 95.0873 151.717 96.2182L136.961 98.2525C131.58 83.1985 133.606 74.4517 133.606 74.4517C134.71 73.9961 135.84 73.6094 136.991 73.2937C137.235 73.2281 137.482 73.1663 137.736 73.1084C139.809 72.7006 141.903 72.4119 144.009 72.2438C144.395 72.209 144.816 72.182 145.209 72.1627C147.224 72.0624 149.042 72.182 149.042 72.182Z" fill="#263238"/>
<path d="M141.145 65.4077C141.253 67.4728 141.473 71.3483 143.191 72.3326C143.191 72.3326 142.121 74.3668 139.809 74.5752C138.061 74.7296 138.176 73.0042 138.176 73.0042C139.188 72.2515 138.948 70.9738 138.176 69.5302L141.145 65.4077Z" fill="#E4897B"/>
<path opacity="0.2" d="M139.933 67.0907L138.188 69.5302C138.372 69.8638 138.527 70.2125 138.651 70.5724C139.462 70.2481 140.392 69.0284 140.257 68.1444C140.215 67.7762 140.105 67.419 139.933 67.0907Z" fill="black"/>
<path d="M133.618 61.2505C133.282 62.3236 133.467 64.5238 134.961 63.8097C136.455 63.0956 134.197 59.4093 133.618 61.2505Z" fill="#263238"/>
<path d="M141.338 62.7018C141.504 65.454 141.724 67.0559 140.523 68.6154C138.698 70.9584 135.162 70.086 134.174 67.4303C133.286 65.0371 133.166 60.9378 135.718 59.5482C136.283 59.2405 136.918 59.0813 137.561 59.0855C138.205 59.0897 138.837 59.2572 139.399 59.5723C139.96 59.8873 140.433 60.3397 140.772 60.887C141.111 61.4344 141.306 62.0588 141.338 62.7018Z" fill="#E4897B"/>
<path d="M139.408 61.2042V58.1162C139.408 58.1162 142.681 57.873 142.534 59.5482C144.349 60.4476 143.492 63.2693 141.056 64.6511C139.72 63.5819 139.875 61.0112 139.875 61.0112C139.732 61.0845 139.57 61.1463 139.408 61.2042Z" fill="#263238"/>
<path d="M142.669 64.848C142.606 65.1847 142.477 65.5053 142.288 65.791C142.099 66.0768 141.854 66.3218 141.569 66.5117C140.797 67.0173 140.13 66.3959 140.103 65.5274C140.079 64.7554 140.446 63.5356 141.334 63.3812C141.528 63.3509 141.727 63.3693 141.912 63.4346C142.098 63.4999 142.264 63.6101 142.396 63.7555C142.528 63.9008 142.623 64.0766 142.67 64.2673C142.718 64.458 142.718 64.6575 142.669 64.848Z" fill="#E4897B"/>
<path d="M137.273 63.9293C137.3 64.1532 137.204 64.3462 137.057 64.3616C136.91 64.3771 136.771 64.2111 136.744 63.9756C136.717 63.7402 136.814 63.5588 136.957 63.5433C137.099 63.5279 137.246 63.69 137.273 63.9293Z" fill="#263238"/>
<path d="M134.749 64.2111C134.776 64.435 134.679 64.628 134.533 64.6434C134.386 64.6589 134.247 64.4929 134.22 64.2574C134.193 64.022 134.289 63.8405 134.436 63.8251C134.583 63.8097 134.714 63.9872 134.749 64.2111Z" fill="#263238"/>
<path d="M135.563 64.2304C135.368 64.9206 135.078 65.5805 134.702 66.1913C134.869 66.2769 135.052 66.3262 135.239 66.3362C135.425 66.3462 135.612 66.3165 135.787 66.2492L135.563 64.2304Z" fill="#DE5753"/>
<path d="M137.088 66.9671C136.993 66.9914 136.896 67.0095 136.798 67.0212C136.781 67.0212 136.764 67.0143 136.752 67.002C136.74 66.9897 136.733 66.973 136.733 66.9556C136.733 66.9382 136.74 66.9215 136.752 66.9092C136.764 66.8969 136.781 66.8899 136.798 66.8899C137.076 66.8648 137.343 66.7748 137.579 66.6273C137.815 66.4798 138.013 66.2789 138.157 66.0407C138.16 66.0329 138.165 66.0259 138.171 66.0201C138.178 66.0142 138.185 66.0097 138.193 66.0068C138.201 66.0039 138.209 66.0027 138.218 66.0032C138.226 66.0038 138.234 66.006 138.242 66.0099C138.25 66.0136 138.257 66.0188 138.263 66.0253C138.269 66.0318 138.273 66.0395 138.276 66.0477C138.279 66.056 138.28 66.0648 138.28 66.0735C138.279 66.0823 138.277 66.0908 138.273 66.0986C138.147 66.3179 137.976 66.5084 137.772 66.6579C137.568 66.8075 137.335 66.9128 137.088 66.9671Z" fill="#263238"/>
<path d="M137.953 63.0299C137.929 63.0354 137.905 63.0347 137.882 63.0279C137.859 63.0211 137.838 63.0085 137.821 62.9913C137.709 62.8688 137.571 62.774 137.416 62.7144C137.261 62.6548 137.095 62.632 136.93 62.6478C136.913 62.6517 136.895 62.6521 136.878 62.6489C136.861 62.6457 136.844 62.639 136.83 62.6292C136.815 62.6195 136.803 62.6068 136.794 62.5921C136.784 62.5773 136.778 62.5608 136.775 62.5436C136.772 62.5266 136.772 62.5091 136.775 62.4921C136.779 62.4752 136.786 62.459 136.795 62.4447C136.805 62.4303 136.817 62.418 136.832 62.4085C136.846 62.399 136.862 62.3924 136.879 62.3892C137.088 62.3644 137.299 62.3896 137.496 62.4628C137.693 62.5359 137.869 62.6549 138.01 62.8099C138.023 62.8218 138.033 62.8362 138.04 62.8521C138.047 62.868 138.05 62.8852 138.05 62.9026C138.05 62.9199 138.047 62.9371 138.04 62.953C138.033 62.9689 138.023 62.9833 138.01 62.9952C137.994 63.0109 137.974 63.0228 137.953 63.0299Z" fill="#263238"/>
<path d="M133.556 63.4661C133.531 63.4756 133.504 63.4756 133.479 63.4661C133.446 63.4547 133.419 63.4309 133.404 63.3998C133.389 63.3687 133.387 63.3329 133.398 63.3001C133.461 63.1015 133.572 62.9212 133.721 62.7746C133.869 62.6281 134.051 62.5197 134.251 62.4587C134.285 62.45 134.32 62.455 134.35 62.4728C134.381 62.4905 134.402 62.5194 134.411 62.5532C134.42 62.587 134.415 62.6229 134.397 62.6529C134.379 62.683 134.35 62.7047 134.316 62.7134C134.159 62.7621 134.015 62.8487 133.899 62.9659C133.782 63.083 133.696 63.2269 133.649 63.3851C133.641 63.4053 133.629 63.4233 133.613 63.4375C133.597 63.4517 133.577 63.4615 133.556 63.4661Z" fill="#263238"/>
<path d="M140.859 62.3467C140.859 62.3467 138.929 61.6403 138.049 60.5209C138.049 60.5209 136.297 60.9803 135.938 61.6789C135.774 61.5387 135.668 61.3427 135.64 61.1289C135.612 60.915 135.665 60.6984 135.787 60.5209C135.787 60.5209 134.475 60.7989 134.216 61.6789C134.003 61.5774 133.828 61.4101 133.716 61.2017C133.605 60.9932 133.564 60.7546 133.598 60.5209C133.598 60.5209 133.016 60.741 132.826 61.6789C132.826 61.6789 131.379 58.6604 136.161 57.7958C135.8 57.673 135.42 57.6091 135.038 57.6067C135.038 57.6067 138.377 56.2595 141.021 57.4908C143.665 58.7222 143.206 61.1077 140.859 62.3467Z" fill="#263238"/>
<path d="M152.856 98.816L148.224 99.4336C148.224 99.4336 146.313 86.0818 145.472 81.7702V72.568L147.892 71.9311L149.768 72.568C150.282 74.4194 150.678 76.3018 150.953 78.2036C151.181 79.6472 151.385 81.1912 151.567 82.7545C151.818 84.8852 152.026 87.0546 152.204 89.0849C152.482 92.3621 152.667 95.2609 152.767 97.0327C152.825 98.1444 152.856 98.816 152.856 98.816Z" fill="white"/>
<path d="M145.476 81.7625C145.476 81.7625 145.862 75.2661 147.896 71.9157C147.896 71.9157 147.846 70.9584 147.44 70.804C147.035 70.6496 145.476 71.576 145.476 71.576C145.476 71.576 144.507 70.9121 144.295 71.2209C144.082 71.5297 143.565 73.5832 145.476 81.7625Z" fill="white"/>
<path opacity="0.7" d="M145.476 81.7625C145.476 81.7625 145.862 75.2661 147.896 71.9157C147.896 71.9157 147.846 70.9584 147.44 70.804C147.035 70.6496 145.476 71.576 145.476 71.576C145.476 71.576 144.507 70.9121 144.295 71.2209C144.082 71.5297 143.565 73.5832 145.476 81.7625Z" fill="white"/>
<path d="M134.946 100.595L135.474 100.981C135.474 100.981 134.702 96.6776 135.019 85.7924C135.019 85.2674 135.054 84.7618 135.073 84.2793C135.459 75.0693 136.895 73.3941 137.003 73.2937L135.667 73.7492L133.247 74.5829C132.518 82.438 134.946 100.595 134.946 100.595Z" fill="white"/>
<path d="M135.154 82.6928C135.154 82.6928 133.818 76.3778 134.216 74.2008C134.614 72.0237 136.038 72.9926 136.038 72.9926C136.038 72.9926 137.347 71.935 137.736 73.1007C137.736 73.1007 135.938 74.3668 135.154 82.6928Z" fill="white"/>
<path opacity="0.7" d="M135.154 82.6928C135.154 82.6928 133.818 76.3778 134.216 74.2008C134.614 72.0237 136.038 72.9926 136.038 72.9926C136.038 72.9926 137.347 71.935 137.736 73.1007C137.736 73.1007 135.938 74.3668 135.154 82.6928Z" fill="white"/>
<path opacity="0.2" d="M151.559 82.7391C149.583 81.6313 149.32 78.7402 149.32 78.7402C149.44 78.6938 150.173 78.4429 150.945 78.1882C151.173 79.6318 151.378 81.1758 151.559 82.7391Z" fill="black"/>
<path opacity="0.2" d="M141.894 120.262L143.557 111.21L143.237 106.42C143.237 106.42 140.956 114.727 141.894 120.262Z" fill="black"/>
<path opacity="0.2" d="M152.76 97.0173C151.517 96.9323 150.444 96.8513 150.444 96.8513L150.208 91.7985C150.595 91.5561 151.061 91.4705 151.509 91.5592C151.814 90.752 152.046 89.9187 152.2 89.0695C152.47 92.3467 152.659 95.2494 152.76 97.0173Z" fill="black"/>
<path d="M153.184 89.0656L150.764 92.9527L152.678 94.0528L154.952 90.5517L153.184 89.0656Z" fill="#E4897B"/>
<path d="M149.664 72.5063C151.293 72.6838 158.218 82.1871 158.522 85.0513C158.827 87.9154 154.454 92.86 154.454 92.86L151.536 91.1423C151.536 91.1423 154.5 86.5837 154.655 85.3523C154.809 84.121 149.231 79.1455 149.231 79.1455C148.81 77.9993 148.578 76.792 148.544 75.5711C148.467 73.479 149.664 72.5063 149.664 72.5063Z" fill="white"/>
<path d="M150.204 91.8024C150.204 91.8024 152.694 92.3351 153.697 93.9022C153.697 93.9022 152.655 97.1639 151.91 97.5191C151.165 97.8742 149.32 97.8742 149.32 97.8742C149.32 97.8742 149.201 94.2458 150.204 91.8024Z" fill="white"/>
</svg>
