<svg width="30" height="30" viewBox="0 0 30 30" fill="none" xmlns="http://www.w3.org/2000/svg">
<path d="M6.84009 13.5674C6.84009 14.9295 7.66919 16.1054 8.86233 16.4448C9.75659 18.9273 12.1186 20.5918 14.7558 20.5918C17.393 20.5918 19.755 18.9273 20.6492 16.4448C21.8424 16.1054 22.6715 14.9299 22.6715 13.5674C22.6715 12.648 22.277 11.7714 21.6133 11.2092L21.7106 10.6864C21.7106 10.4917 21.6972 10.3016 21.6818 10.111L21.6694 9.95906L21.5397 10.0396C19.7309 11.1614 16.8004 11.6632 14.6987 11.6632C12.6567 11.6632 9.78296 11.1819 7.96614 10.1065L7.83378 10.0719L7.82276 10.2216C7.81151 10.3758 7.80026 10.5295 7.80185 10.7038L7.89747 11.2106C7.23431 11.7728 6.84009 12.649 6.84009 13.5674Z" fill="#181C20"/>
<path d="M20.8681 22.3287C20.3036 21.9789 19.7704 21.6486 19.3387 21.3074L19.2838 21.2642L19.2269 21.3047C18.8233 21.5926 17.3985 23.0725 16.2372 24.303L15.5959 23.0566L15.9297 22.8177V21.5958H13.5819V22.8177L13.9157 23.0566L13.2742 24.3035C12.1125 23.0725 10.687 21.5927 10.2839 21.3047L10.2269 21.2642L10.172 21.3074C9.74024 21.6486 9.20698 21.9789 8.64255 22.3287C6.88304 23.4192 4.88892 24.6547 4.88892 26.8606C4.88892 28.164 7.94991 30 14.7554 30C21.5608 30 24.6219 28.164 24.6219 26.8606C24.6218 24.6547 22.6275 23.4192 20.8681 22.3287Z" fill="#181C20"/>
<path d="M7.71503 7.72406C7.71503 8.81678 11.0032 10.2029 14.6987 10.2029C18.3942 10.2029 21.6824 8.81684 21.6824 7.72406V6.21785L24.2314 5.18062V8.45965C23.9344 8.50605 23.7061 8.76352 23.7061 9.07195C23.7061 9.3358 23.8799 9.56602 24.1305 9.64922L23.6235 12.9956H26.0085L25.5016 9.64922C25.7518 9.56596 25.9253 9.33574 25.9253 9.07195C25.9253 8.7617 25.6957 8.50377 25.3972 8.45871L25.3849 4.52139C25.4058 4.485 25.4058 4.44721 25.4058 4.42723C25.4058 4.40719 25.4058 4.36992 25.397 4.36992H25.3969C25.3816 4.2266 25.2791 4.09969 25.1297 4.03875L24.4544 3.76219L15.6768 0.189727C15.3727 0.0655078 15.0346 0 14.6987 0C14.3628 0 14.0248 0.0655078 13.7208 0.189727L4.26761 4.03922C4.09985 4.10789 3.99146 4.26029 3.99146 4.42723C3.99146 4.59375 4.09974 4.74615 4.26778 4.8157L7.71503 6.21773V7.72406Z" fill="#181C20"/>
</svg>
