<svg width="20" height="20" viewBox="0 0 20 20" fill="none" xmlns="http://www.w3.org/2000/svg">
<g clip-path="url(#clip0_40_627)">
<path d="M18.8889 8.88889H16.1295C15.0184 9.87166 15.6967 11.1111 16.6667 11.1111H19.4262C20.5367 10.1283 19.8589 8.88889 18.8889 8.88889Z" fill="#29638A"/>
<path d="M9.99899 8.88922C9.66665 8.88922 9.35418 9.03636 9.14171 9.29292C8.98942 9.47682 8.82575 9.79025 8.91112 10.2403C8.98799 10.6468 9.35305 11.0116 9.75965 11.0886C9.84041 11.1039 9.92073 11.1117 9.99837 11.1117C10.3307 11.1117 10.6431 10.9646 10.8556 10.7081C11.008 10.5241 11.1719 10.2105 11.087 9.76184C11.0098 9.3546 10.6445 8.98931 10.2378 8.91225C10.157 8.89697 10.0766 8.88922 9.99899 8.88922ZM9.99904 6.66699C10.2122 6.667 10.4301 6.687 10.6509 6.72877C11.9559 6.97599 13.0231 8.04322 13.2704 9.34822C13.673 11.4758 12.0533 13.3339 9.99837 13.3339C9.78518 13.3339 9.56727 13.3139 9.34648 13.2721C8.04204 13.0249 6.97426 11.9577 6.72759 10.6532C6.32391 8.52511 7.94405 6.66697 9.99904 6.66699Z" fill="#29638A"/>
<path d="M18.8929 8.88889H16.6629C16.0514 8.88889 15.5557 9.38461 15.5557 9.99611V10.0039C15.5557 10.6154 16.0514 11.1111 16.6629 11.1111H18.8929C19.5044 11.1111 20.0001 10.6154 20.0001 10.0039V9.99611C20.0001 9.38461 19.5044 8.88889 18.8929 8.88889Z" fill="#29638A"/>
<path d="M11.1113 18.8928V16.6628C11.1113 16.0513 10.6156 15.5556 10.0041 15.5556H9.99633C9.38483 15.5556 8.88911 16.0513 8.88911 16.6628V18.8928C8.88911 19.5043 9.38483 20 9.99633 20H10.0041C10.6156 20 11.1113 19.5043 11.1113 18.8928Z" fill="#29638A"/>
<path d="M11.1113 3.33722V1.10722C11.1113 0.49572 10.6156 0 10.0041 0L9.99633 0C9.38483 0 8.88911 0.49572 8.88911 1.10722V3.33722C8.88911 3.94872 9.38483 4.44444 9.99633 4.44444H10.0041C10.6156 4.44444 11.1113 3.94872 11.1113 3.33722Z" fill="#29638A"/>
<path d="M3.33722 8.88889H1.10722C0.49572 8.88889 0 9.38461 0 9.99611V10.0039C0 10.6154 0.49572 11.1111 1.10722 11.1111H3.33722C3.94872 11.1111 4.44444 10.6154 4.44444 10.0039V9.99611C4.44444 9.38461 3.94872 8.88889 3.33722 8.88889Z" fill="#29638A"/>
<path d="M15.9919 2.52876L14.7509 3.76973C14.3424 4.17826 14.3424 4.84063 14.7509 5.24916C15.1595 5.65769 15.8218 5.65769 16.2304 5.24916L17.4713 4.00818C17.8799 3.59965 17.8799 2.93729 17.4713 2.52876C17.0628 2.12023 16.4004 2.12023 15.9919 2.52876Z" fill="#29638A"/>
<path d="M16.23 14.751C15.8216 14.3425 15.1593 14.3425 14.7508 14.751C14.3424 15.1594 14.3424 15.8217 14.7508 16.2302L15.9916 17.4709C16.4001 17.8794 17.0623 17.8794 17.4708 17.4709C17.8793 17.0625 17.8793 16.4002 17.4708 15.9917L16.23 14.751Z" fill="#29638A"/>
<path d="M4.0082 2.52863C3.59967 2.1201 2.93731 2.1201 2.52877 2.52863C2.12024 2.93716 2.12024 3.59952 2.52877 4.00805L3.76975 5.24903C4.17828 5.65756 4.84064 5.65756 5.24917 5.24903C5.6577 4.84049 5.6577 4.17813 5.24917 3.7696L4.0082 2.52863Z" fill="#29638A"/>
<path d="M3.76975 14.751L2.52877 15.992C2.12024 16.4005 2.12024 17.0629 2.52877 17.4714C2.93731 17.8799 3.59967 17.8799 4.0082 17.4714L5.24917 16.2304C5.6577 15.8219 5.6577 15.1595 5.24917 14.751C4.84064 14.3425 4.17828 14.3425 3.76975 14.751Z" fill="#29638A"/>
</g>
<defs>
<clipPath id="clip0_40_627">
<rect width="20" height="20" fill="white"/>
</clipPath>
</defs>
</svg>
