<svg width="221" height="196" viewBox="0 0 221 196" fill="none" xmlns="http://www.w3.org/2000/svg">
<g clip-path="url(#clip0_21_1829)">
<path d="M171.171 125.561C170.983 125.236 170.869 124.874 170.836 124.5C170.803 124.127 170.853 123.75 170.98 123.397C171.108 123.044 171.311 122.724 171.575 122.459C171.84 122.193 172.159 121.989 172.51 121.861L172.378 112.739L176.357 115.291L175.872 123.563C176.047 124.17 175.995 124.82 175.725 125.391C175.454 125.961 174.985 126.412 174.405 126.659C173.826 126.905 173.176 126.929 172.58 126.727C171.984 126.525 171.483 126.11 171.171 125.561Z" fill="#A0616A"/>
<path d="M166.376 76.0342C165.196 76.2435 164.126 76.8568 163.346 77.7697C162.566 78.6826 162.126 79.8386 162.1 81.041C162.042 83.7107 162.929 84.7062 164.183 85.0659C166.501 85.7309 170.192 99.1797 170.192 99.1797C170.192 99.1797 170.584 111.723 171.216 111.104C171.848 110.484 171.133 111.93 171.325 112.371C171.517 112.812 170.414 113.472 171.462 113.973C172.51 114.474 171.848 118.464 171.848 118.464L176.483 118.132C176.483 118.132 175.714 114.881 176.761 114.678C177.808 114.474 177.332 113.549 176.908 112.848C176.483 112.147 177.658 111.148 177.071 110.816C176.483 110.484 178.139 97.5173 178.139 97.5173L171.666 78.3924C171.118 77.5151 170.322 76.8221 169.38 76.402C168.437 75.9819 167.391 75.8538 166.376 76.0342Z" fill="#29638A"/>
<path d="M152.312 76.787L155.647 70.9178H160.152L163.531 77.1194L152.312 76.787Z" fill="#29638A"/>
<path d="M143.343 24.008C140.678 15.0459 133.151 9.19511 124.055 7.9116C123.955 7.89743 123.86 7.91614 123.76 7.90969C123.632 7.87017 123.5 7.83978 123.367 7.81875C110.858 6.19535 97.2033 9.10282 86.3351 15.9312C75.9175 22.4765 63.9475 26.1697 51.6591 26.0876C51.2775 26.0851 50.8944 26.0934 50.5098 26.1125C41.0529 26.5864 32.707 33.499 30.1504 42.5911C29.8149 43.784 30.3996 44.8499 31.3397 45.5259C32.9918 46.7141 34.1202 47.5468 36.1528 47.9792C39.7797 48.7507 43.4189 49.4602 47.0705 50.1076V35.5015C47.0721 34.1188 47.6198 32.7931 48.5935 31.8153C49.5672 30.8376 50.8874 30.2875 52.2644 30.2859H123.609C124.986 30.2875 126.306 30.8376 127.28 31.8153C128.254 32.7931 128.801 34.1188 128.803 35.5015V53.6913C129.782 53.3841 130.737 53.0065 131.661 52.5615C135.103 50.8545 138.043 48.2779 140.194 45.0848C144.324 39.0665 145.415 30.9782 143.343 24.008Z" fill="#F2F2F2"/>
<path d="M113.304 109.487H50.2341C48.7787 109.485 47.3834 108.904 46.3542 107.871C45.3251 106.837 44.7462 105.436 44.7445 103.975V79.3998C37.0627 77.0384 28.9721 76.3263 20.9983 77.3098C20.8653 77.3308 20.7339 77.3612 20.6051 77.4007C20.5055 77.4072 20.4105 77.3885 20.3104 77.4026C11.2146 78.6862 3.68711 84.5369 1.02266 93.499C-1.04974 100.469 0.0412076 108.558 4.17172 114.576C6.32194 117.769 9.2623 120.346 12.704 122.053C17.4347 124.341 22.414 124.513 27.5773 124.674C43.0801 125.16 58.5977 124.571 74.0196 122.912C81.6092 122.094 89.1673 121.026 96.6938 119.707C100.546 119.03 104.386 118.284 108.213 117.47C110.245 117.038 111.374 116.205 113.026 115.017C113.966 114.341 114.55 113.275 114.215 112.082C113.966 111.199 113.661 110.332 113.304 109.487Z" fill="#F2F2F2"/>
<path d="M118.885 102.196H56.9884C55.7937 102.195 54.6484 101.718 53.8036 100.87C52.9589 100.021 52.4837 98.8712 52.4823 97.6715V39.9099C52.4837 38.7102 52.9589 37.5601 53.8036 36.7118C54.6484 35.8635 55.7937 35.3863 56.9884 35.3849H118.885C120.08 35.3863 121.225 35.8635 122.07 36.7118C122.915 37.5601 123.39 38.7102 123.391 39.9099V97.6715C123.39 98.8712 122.915 100.021 122.07 100.87C121.225 101.718 120.08 102.195 118.885 102.196Z" fill="#E6E6E6"/>
<path d="M105.858 99.1443H60.0286C58.8339 99.1429 57.6886 98.6657 56.8438 97.8175C55.9991 96.9692 55.5238 95.8191 55.5225 94.6194V42.9644C55.5238 41.7647 55.9991 40.6146 56.8438 39.7663C57.6886 38.918 58.8339 38.4409 60.0286 38.4395H115.846C117.04 38.4409 118.186 38.918 119.031 39.7663C119.875 40.6146 120.351 41.7647 120.352 42.9644V84.5897C120.348 88.4485 118.819 92.148 116.102 94.8766C113.385 97.6051 109.701 99.14 105.858 99.1443Z" fill="white"/>
<path d="M87.9372 89.074C99.0922 89.074 108.135 79.9934 108.135 68.7919C108.135 57.5904 99.0922 48.5098 87.9372 48.5098C76.7822 48.5098 67.7393 57.5904 67.7393 68.7919C67.7393 79.9934 76.7822 89.074 87.9372 89.074Z" fill="#29638A"/>
<path d="M96.4457 67.7715L89.7055 59.5409C89.5227 59.3177 89.2937 59.137 89.0344 59.0114C88.7751 58.8858 88.4918 58.8182 88.2039 58.8134C87.9161 58.8087 87.6307 58.8667 87.3674 58.9837C87.1041 59.1006 86.8693 59.2736 86.6791 59.4906L79.4713 67.7211C79.1241 68.1186 78.9482 68.6382 78.9822 69.1658C79.0162 69.6934 79.2574 70.1858 79.6528 70.535C80.0482 70.8841 80.5654 71.0614 81.0909 71.0278C81.6163 70.9943 82.107 70.7527 82.4552 70.3561L86.1844 66.0977V76.7757C86.1844 77.3048 86.3937 77.8122 86.7663 78.1863C87.1389 78.5605 87.6442 78.7707 88.1711 78.7707C88.698 78.7707 89.2033 78.5605 89.5759 78.1863C89.9485 77.8122 90.1578 77.3048 90.1578 76.7757V66.375L93.3768 70.3057C93.7114 70.7144 94.1941 70.9728 94.7185 71.0242C95.2429 71.0755 95.7662 70.9155 96.1731 70.5795C96.5801 70.2434 96.8374 69.7588 96.8886 69.2322C96.9397 68.7056 96.7804 68.1801 96.4457 67.7715Z" fill="white"/>
<path d="M174.978 192.289L171.982 192.288L170.556 180.682L174.979 180.682L174.978 192.289Z" fill="#A0616A"/>
<path d="M175.084 195.428L165.869 195.427V195.31C165.869 194.355 166.247 193.439 166.919 192.764C167.592 192.088 168.504 191.709 169.456 191.709L171.139 190.427L174.279 191.709L175.084 191.709L175.084 195.428Z" fill="#2F2E41"/>
<path d="M152.462 192.289L149.466 192.288L148.04 180.682L152.463 180.682L152.462 192.289Z" fill="#A0616A"/>
<path d="M152.568 195.428L143.353 195.427V195.31C143.353 194.355 143.731 193.439 144.404 192.764C145.076 192.088 145.989 191.709 146.94 191.709L148.623 190.427L151.764 191.709L152.568 191.709L152.568 195.428Z" fill="#2F2E41"/>
<path d="M175.933 182.683C177.027 181.965 176.393 182.012 176.393 182.012C176.393 182.012 173.949 162.109 172.089 156.078L169.937 126.706C169.937 126.706 169.8 127.292 169.937 125.868C170.073 124.444 171.067 125.442 170.073 124.444C169.08 123.447 168.418 122.938 169.08 122.195C169.742 121.452 171.569 119.948 170.49 119.037C169.411 118.127 167.288 112.189 167.288 112.189L146.593 112.355L147.421 112.189C147.421 112.189 144.838 111.226 146.021 112.479C147.204 113.733 145.359 116.802 144.696 119.794C144.148 122.273 142.52 122.93 144.696 123.452C146.873 123.973 144.903 125.45 144.903 125.45C144.903 125.45 141.626 141.115 144.11 151.423C144.11 151.423 145.823 176.916 146.69 179.108C147.558 181.301 147.889 179.971 147.558 181.301C147.226 182.63 146.564 180.303 147.226 182.63C147.588 183.846 147.874 185.083 148.083 186.334L152.574 186.002C152.574 186.002 153.617 182.701 152.574 181.835C151.531 180.968 152.251 183.497 153.381 181.568C154.511 179.638 153.186 180.303 152.855 177.643C152.524 174.983 155.562 162.592 153.381 154.989L157.412 133.655L163.811 155.745C163.811 155.745 167.205 182.724 168.308 183.675C169.411 184.625 168.966 182.317 169.411 184.625C169.861 186.958 170.883 186.339 170.854 186.625C170.546 189.675 175.933 186.667 175.933 186.667C175.881 185.892 175.881 185.114 175.933 184.34C176.033 183.628 174.84 183.4 175.933 182.683Z" fill="#2F2E41"/>
<path d="M148.67 119.129C147.345 119.129 143.703 117.328 144.365 116.566C145.028 115.804 145.028 113.275 145.028 112.545C145.028 111.814 148.008 84.8825 148.008 84.8825L147.781 78.2883C147.768 77.8931 147.833 77.4991 147.975 77.1299C148.116 76.7607 148.33 76.4239 148.603 76.1394C148.877 75.855 149.205 75.6288 149.568 75.4743C149.93 75.3198 150.32 75.2402 150.714 75.2402L153.637 74.2427L161.914 73.9102L166.042 75.2402C166.452 75.2402 166.854 75.3457 167.212 75.5467C167.569 75.7477 167.869 76.0375 168.083 76.3882C168.297 76.7389 168.417 77.1389 168.433 77.5498C168.449 77.9608 168.36 78.369 168.174 78.7353C170.364 82.3262 171.463 86.4809 171.337 90.6899C171.242 93.839 169.653 97.6849 169.27 101.243C169.236 101.555 169.212 101.865 169.199 102.172C169.195 102.258 168.517 102.685 169.189 102.428C169.861 102.172 168.829 103.077 169.18 103.622C169.53 104.167 170.209 103.833 169.207 104.499C168.206 105.165 170.41 111.596 170.192 111.814C169.53 112.479 168.206 112.812 169.199 113.809C170.192 114.807 171.186 114.142 169.861 115.472C168.537 116.802 164.568 119.129 164.568 119.129L148.67 119.129Z" fill="#3F3D56"/>
<path d="M157.522 70.0493C161.458 70.0493 164.648 66.8453 164.648 62.8929C164.648 58.9406 161.458 55.7366 157.522 55.7366C153.586 55.7366 150.395 58.9406 150.395 62.8929C150.395 66.8453 153.586 70.0493 157.522 70.0493Z" fill="#A0616A"/>
<path d="M114.116 85.0966C114.458 84.9449 114.829 84.8703 115.203 84.878C115.576 84.8857 115.944 84.9756 116.279 85.1414C116.614 85.3072 116.909 85.5447 117.143 85.8374C117.377 86.1301 117.545 86.4707 117.633 86.8353L126.678 87.6944L123.72 91.3889L115.584 90.0066C114.964 90.1157 114.326 89.9926 113.79 89.6608C113.255 89.329 112.859 88.8115 112.678 88.2062C112.497 87.601 112.544 86.9502 112.809 86.3771C113.074 85.8039 113.539 85.3484 114.116 85.0966Z" fill="#A0616A"/>
<path d="M157.002 79.7695C156.794 78.5852 156.183 77.5101 155.274 76.7272C154.365 75.9442 153.213 75.5019 152.016 75.4756C149.357 75.4177 148.366 76.3086 148.008 77.5677C147.345 79.8951 136.685 88.0765 136.685 88.0765L127.529 87.0815C126.978 86.9019 127.24 86.3985 125.17 86.8251C124.15 86.1546 123.491 86.2682 122.923 86.581L119.532 86.2125L119.863 91.5324C119.863 91.5324 123.493 90.6652 124.168 92.1974C124.842 93.7295 124.688 93.9496 126.154 92.8623C127.621 91.7751 127.479 92.8623 127.479 92.8623L138.074 95.5223L154.654 85.0818C155.527 84.5316 156.217 83.7322 156.636 82.7858C157.054 81.8394 157.182 80.7891 157.002 79.7695Z" fill="#29638A"/>
<path d="M160.289 69.2819L160.755 69.4315C159.295 69.5546 156.693 70.3725 156.948 69.9203C157.203 69.4681 156.239 67.7624 156.709 67.5463C157.198 67.3741 157.634 67.0774 157.974 66.6851C158.272 66.2662 158.265 65.5746 157.818 65.3186C157.385 65.0659 156.848 65.3385 156.418 65.5946C155.984 65.8473 155.183 62.13 155.388 60.9696C154.18 60.3046 152.716 61.578 151.358 61.3287C150.527 61.1757 149.928 60.4908 149.551 59.7128C150.167 59.1254 150.626 58.3912 150.885 57.5782C150.309 57.8697 149.693 58.0747 149.057 58.1866C148.943 57.5829 148.959 56.9617 149.104 56.3646C149.214 55.8879 149.441 55.4461 149.763 55.0784C150.084 54.7106 150.491 54.4283 150.948 54.2565C151.411 54.1023 151.913 54.1112 152.37 54.2816C152.828 54.4521 153.213 54.7739 153.464 55.1942C153.492 54.7416 153.377 54.2917 153.134 53.9093C152.891 53.5269 152.534 53.2317 152.113 53.0662C152.42 52.9064 152.76 52.8198 153.105 52.8134C153.451 52.807 153.793 52.8809 154.106 53.0293C154.418 53.1776 154.692 53.3965 154.907 53.6688C155.121 53.9411 155.27 54.2594 155.342 54.599C156.837 53.8465 158.553 53.6623 160.173 54.0803C161.775 54.5026 163.901 56.2881 163.901 56.2881C167.517 57.0894 167.345 70.8945 160.289 69.2819Z" fill="#2F2E41"/>
<path d="M198.044 192.574C198.127 192.578 198.208 192.556 198.278 192.512C198.348 192.468 198.402 192.403 198.434 192.326C198.466 192.25 198.474 192.165 198.456 192.084C198.439 192.003 198.397 191.93 198.336 191.873L198.309 191.763L198.32 191.737C198.403 191.54 198.542 191.371 198.72 191.254C198.898 191.136 199.106 191.073 199.32 191.074C199.533 191.075 199.741 191.139 199.918 191.258C200.095 191.377 200.233 191.546 200.315 191.744C200.641 192.533 201.056 193.324 201.159 194.158C201.204 194.527 201.185 194.901 201.103 195.263C201.869 193.585 202.267 191.76 202.27 189.913C202.27 189.45 202.244 188.986 202.193 188.526C202.15 188.148 202.091 187.773 202.016 187.401C201.605 185.382 200.723 183.489 199.443 181.878C198.823 181.539 198.321 181.016 198.006 180.382C197.892 180.154 197.811 179.91 197.767 179.659C197.903 179.299 197.974 178.918 197.978 178.533C198.075 178.385 198.25 178.311 198.356 178.166C198.885 177.445 199.614 177.571 199.995 178.55C200.808 178.963 200.816 179.646 200.317 180.304C200 180.722 199.956 181.288 199.678 181.736C199.706 181.772 199.736 181.808 199.765 181.845C200.289 182.521 200.745 183.248 201.128 184.014C201.035 183.156 201.146 182.288 201.452 181.481C201.762 180.73 202.344 180.097 202.856 179.447C202.992 179.272 203.176 179.142 203.385 179.072C203.594 179.003 203.819 178.997 204.031 179.056C204.244 179.115 204.434 179.235 204.578 179.403C204.722 179.57 204.814 179.777 204.841 179.996L204.844 180.025C204.768 180.068 204.694 180.114 204.621 180.162C204.529 180.224 204.458 180.311 204.417 180.414C204.376 180.516 204.367 180.629 204.391 180.737C204.415 180.845 204.47 180.943 204.551 181.019C204.631 181.094 204.732 181.144 204.841 181.161L204.852 181.162C204.825 181.438 204.777 181.71 204.709 181.978C205.366 184.53 203.947 185.459 201.922 185.501C201.877 185.524 201.834 185.547 201.789 185.569C202.174 186.663 202.415 187.803 202.507 188.96C202.559 189.642 202.556 190.328 202.498 191.01L202.501 190.986C202.648 190.227 203.051 189.543 203.642 189.049C204.519 188.324 205.76 188.058 206.706 187.476C206.807 187.411 206.924 187.376 207.044 187.376C207.163 187.376 207.28 187.41 207.381 187.474C207.482 187.539 207.563 187.631 207.613 187.739C207.664 187.848 207.683 187.969 207.667 188.088L207.663 188.114C207.522 188.172 207.384 188.238 207.251 188.313C207.175 188.356 207.101 188.402 207.028 188.45C206.937 188.512 206.866 188.599 206.825 188.702C206.784 188.804 206.774 188.917 206.798 189.025C206.822 189.133 206.878 189.231 206.958 189.307C207.038 189.382 207.14 189.432 207.248 189.449L207.259 189.45L207.282 189.454C207.041 190.032 206.703 190.564 206.282 191.027C205.871 193.255 204.106 193.466 202.219 192.817H202.218C202.011 193.721 201.711 194.6 201.323 195.442H198.124C198.113 195.406 198.103 195.369 198.092 195.334C198.388 195.352 198.686 195.334 198.977 195.281C198.74 194.988 198.503 194.694 198.265 194.401C198.26 194.396 198.255 194.39 198.25 194.384C198.13 194.234 198.009 194.086 197.888 193.936C197.882 193.477 197.934 193.02 198.044 192.574Z" fill="#F2F2F2"/>
<path d="M91.5625 195.898L220.606 196C220.71 196 220.811 195.958 220.885 195.884C220.959 195.81 221 195.709 221 195.604C221 195.499 220.959 195.398 220.885 195.324C220.811 195.25 220.71 195.208 220.606 195.208L91.5625 195.106C91.4579 195.106 91.3576 195.148 91.2837 195.222C91.2098 195.296 91.1682 195.397 91.1682 195.502C91.1682 195.607 91.2098 195.708 91.2837 195.782C91.3576 195.856 91.4579 195.898 91.5625 195.898Z" fill="#CACACA"/>
<path d="M84.9697 140.409C84.0433 140.409 83.1377 140.133 82.3675 139.616C81.5973 139.099 80.9969 138.365 80.6424 137.505C80.2879 136.646 80.1952 135.7 80.3759 134.788C80.5566 133.876 81.0027 133.038 81.6577 132.38C82.3128 131.722 83.1473 131.274 84.0559 131.093C84.9645 130.911 85.9062 131.004 86.762 131.36C87.6179 131.716 88.3494 132.319 88.8641 133.093C89.3787 133.866 89.6534 134.775 89.6534 135.706C89.652 136.953 89.1581 138.148 88.28 139.03C87.402 139.911 86.2114 140.407 84.9697 140.409ZM84.9697 131.667C84.1743 131.667 83.3968 131.904 82.7354 132.348C82.0741 132.792 81.5586 133.422 81.2542 134.16C80.9499 134.898 80.8702 135.71 81.0254 136.493C81.1806 137.277 81.5636 137.996 82.126 138.561C82.6884 139.126 83.405 139.51 84.1851 139.666C84.9652 139.822 85.7738 139.742 86.5086 139.437C87.2435 139.131 87.8716 138.613 88.3135 137.949C88.7553 137.285 88.9912 136.504 88.9912 135.706C88.99 134.635 88.5659 133.608 87.812 132.851C87.0581 132.094 86.0359 131.668 84.9697 131.667Z" fill="#F2F2F2"/>
<path d="M86.8033 135.486L85.3507 133.712C85.3113 133.664 85.262 133.625 85.2061 133.598C85.1502 133.571 85.0892 133.556 85.0271 133.555C84.9651 133.554 84.9036 133.567 84.8469 133.592C84.7901 133.617 84.7395 133.654 84.6985 133.701L83.1452 135.475C83.071 135.561 83.0336 135.672 83.0411 135.786C83.0487 135.899 83.1006 136.005 83.1856 136.08C83.2705 136.155 83.3816 136.193 83.4945 136.186C83.6075 136.179 83.7131 136.128 83.7882 136.043L84.5919 135.125V137.426C84.5919 137.54 84.637 137.649 84.7173 137.73C84.7976 137.811 84.9065 137.856 85.02 137.856C85.1336 137.856 85.2425 137.811 85.3228 137.73C85.4031 137.649 85.4482 137.54 85.4482 137.426V135.185L86.1419 136.032C86.214 136.12 86.318 136.176 86.431 136.187C86.544 136.198 86.6568 136.163 86.7445 136.091C86.8322 136.018 86.8876 135.914 86.8987 135.8C86.9097 135.687 86.8754 135.574 86.8033 135.486Z" fill="#F2F2F2"/>
<path d="M138.279 70.9178C137.353 70.9178 136.447 70.642 135.677 70.1252C134.906 69.6083 134.306 68.8738 133.952 68.0144C133.597 67.155 133.504 66.2093 133.685 65.2969C133.866 64.3846 134.312 63.5466 134.967 62.8888C135.622 62.231 136.457 61.7831 137.365 61.6016C138.274 61.4201 139.215 61.5133 140.071 61.8692C140.927 62.2252 141.659 62.8281 142.173 63.6015C142.688 64.375 142.963 65.2843 142.963 66.2145C142.961 67.4615 142.467 68.6569 141.589 69.5387C140.711 70.4204 139.521 70.9164 138.279 70.9178ZM138.279 62.1762C137.483 62.1762 136.706 62.4131 136.045 62.8568C135.383 63.3005 134.868 63.9312 134.563 64.6691C134.259 65.407 134.179 66.219 134.335 67.0024C134.49 67.7857 134.873 68.5053 135.435 69.07C135.998 69.6348 136.714 70.0194 137.494 70.1752C138.274 70.331 139.083 70.2511 139.818 69.9454C140.553 69.6398 141.181 69.1222 141.623 68.4581C142.065 67.794 142.3 67.0132 142.3 66.2145C142.299 65.1439 141.875 64.1174 141.121 63.3603C140.367 62.6033 139.345 62.1774 138.279 62.1762Z" fill="#F2F2F2"/>
<path d="M140.112 65.9946L138.66 64.2209C138.621 64.1728 138.571 64.1338 138.515 64.1067C138.459 64.0797 138.398 64.0651 138.336 64.0641C138.274 64.0631 138.213 64.0756 138.156 64.1008C138.099 64.126 138.049 64.1632 138.008 64.21L136.454 65.9837C136.38 66.0694 136.343 66.1812 136.35 66.2946C136.358 66.4079 136.41 66.5137 136.495 66.5887C136.58 66.6637 136.691 66.7019 136.804 66.695C136.917 66.688 137.022 66.6364 137.097 66.5516L137.901 65.6339V67.935C137.901 68.049 137.946 68.1584 138.027 68.239C138.107 68.3196 138.216 68.3649 138.329 68.3649C138.443 68.3649 138.552 68.3196 138.632 68.239C138.712 68.1584 138.757 68.049 138.757 67.935V65.6936L139.451 66.5407C139.523 66.6288 139.627 66.6845 139.74 66.6955C139.853 66.7066 139.966 66.6721 140.054 66.5997C140.141 66.5273 140.197 66.4228 140.208 66.3094C140.219 66.1959 140.185 66.0826 140.112 65.9946Z" fill="#F2F2F2"/>
<path d="M32.6537 66.9279C31.7274 66.9279 30.8218 66.652 30.0516 66.1352C29.2813 65.6184 28.681 64.8839 28.3265 64.0245C27.972 63.165 27.8792 62.2194 28.06 61.307C28.2407 60.3947 28.6868 59.5566 29.3418 58.8989C29.9968 58.2411 30.8314 57.7932 31.74 57.6117C32.6485 57.4302 33.5903 57.5233 34.4461 57.8793C35.302 58.2353 36.0335 58.8381 36.5481 59.6116C37.0628 60.385 37.3375 61.2944 37.3375 62.2246C37.3361 63.4715 36.8422 64.667 35.9641 65.5487C35.086 66.4305 33.8955 66.9264 32.6537 66.9279ZM32.6537 58.1863C31.8584 58.1863 31.0808 58.4231 30.4195 58.8669C29.7581 59.3106 29.2427 59.9413 28.9383 60.6792C28.6339 61.4171 28.5543 62.2291 28.7095 63.0124C28.8646 63.7958 29.2477 64.5153 29.8101 65.0801C30.3725 65.6449 31.0891 66.0295 31.8692 66.1853C32.6493 66.3411 33.4579 66.2611 34.1927 65.9555C34.9276 65.6498 35.5556 65.1322 35.9975 64.4681C36.4394 63.8041 36.6753 63.0233 36.6753 62.2246C36.6741 61.1539 36.25 60.1275 35.4961 59.3704C34.7422 58.6133 33.72 58.1875 32.6537 58.1863Z" fill="#F2F2F2"/>
<path d="M34.4873 62.0046L33.0348 60.2309C32.9954 60.1828 32.9461 60.1439 32.8902 60.1168C32.8343 60.0897 32.7733 60.0752 32.7112 60.0742C32.6492 60.0731 32.5877 60.0856 32.5309 60.1108C32.4742 60.136 32.4236 60.1733 32.3826 60.2201L30.8293 61.9938C30.7551 62.0795 30.7176 62.1913 30.7252 62.3046C30.7328 62.418 30.7847 62.5237 30.8697 62.5988C30.9546 62.6738 31.0657 62.712 31.1786 62.705C31.2915 62.6981 31.3971 62.6465 31.4723 62.5616L32.276 61.6439V63.9451C32.276 64.0591 32.3211 64.1685 32.4014 64.2491C32.4817 64.3297 32.5906 64.375 32.7041 64.375C32.8177 64.375 32.9266 64.3297 33.0068 64.2491C33.0871 64.1685 33.1322 64.0591 33.1322 63.9451V61.7037L33.8259 62.5508C33.8981 62.6389 34.0021 62.6945 34.1151 62.7056C34.2281 62.7167 34.3409 62.6822 34.4286 62.6098C34.5163 62.5374 34.5717 62.4329 34.5827 62.3194C34.5938 62.2059 34.5595 62.0927 34.4873 62.0046Z" fill="#F2F2F2"/>
<path d="M70.0696 9.40657C69.1433 9.40657 68.2377 9.13073 67.4675 8.61393C66.6972 8.09712 66.0969 7.36257 65.7424 6.50316C65.3879 5.64374 65.2951 4.69807 65.4759 3.78572C65.6566 2.87338 66.1027 2.03533 66.7577 1.37756C67.4127 0.719797 68.2473 0.271853 69.1559 0.0903757C70.0644 -0.0911019 71.0062 0.00203461 71.862 0.358015C72.7179 0.713995 73.4494 1.31683 73.964 2.09028C74.4787 2.86373 74.7534 3.77307 74.7534 4.70329C74.752 5.95024 74.2581 7.14572 73.38 8.02745C72.5019 8.90918 71.3114 9.40516 70.0696 9.40657ZM70.0696 0.664994C69.2742 0.664993 68.4967 0.901837 67.8354 1.34557C67.174 1.7893 66.6586 2.42 66.3542 3.1579C66.0498 3.8958 65.9702 4.70777 66.1254 5.49113C66.2805 6.27448 66.6635 6.99404 67.226 7.5588C67.7884 8.12357 68.505 8.50818 69.2851 8.664C70.0652 8.81982 70.8738 8.73985 71.6086 8.4342C72.3435 8.12855 72.9715 7.61094 73.4134 6.94684C73.8553 6.28275 74.0912 5.50199 74.0912 4.70329C74.09 3.63263 73.6659 2.60616 72.912 1.84909C72.1581 1.09202 71.1359 0.666182 70.0696 0.664994Z" fill="#F2F2F2"/>
<path d="M71.9031 4.48332L70.4506 2.70963C70.4112 2.66152 70.3618 2.62258 70.306 2.59551C70.2501 2.56844 70.189 2.55389 70.127 2.55285C70.065 2.55182 70.0035 2.56434 69.9467 2.58954C69.89 2.61473 69.8394 2.65201 69.7984 2.69878L68.2451 4.47248C68.1708 4.55821 68.1334 4.66997 68.141 4.78332C68.1485 4.89668 68.2005 5.00242 68.2854 5.07745C68.3704 5.15247 68.4815 5.19068 68.5944 5.18372C68.7073 5.17677 68.8129 5.12521 68.8881 5.04032L69.6918 4.12264V6.42378C69.6918 6.5378 69.7369 6.64715 69.8172 6.72778C69.8974 6.8084 70.0063 6.8537 70.1199 6.8537C70.2334 6.8537 70.3423 6.8084 70.4226 6.72778C70.5029 6.64715 70.548 6.5378 70.548 6.42378V4.1824L71.2417 5.02949C71.3138 5.11755 71.4178 5.17324 71.5309 5.18431C71.6439 5.19537 71.7566 5.1609 71.8443 5.08847C71.932 5.01605 71.9875 4.91161 71.9985 4.79812C72.0095 4.68464 71.9752 4.57139 71.9031 4.48332Z" fill="#F2F2F2"/>
<path d="M20.0715 101.84C19.1451 101.84 18.2395 101.564 17.4693 101.047C16.699 100.53 16.0986 99.7957 15.7441 98.9362C15.3896 98.0768 15.2968 97.1311 15.4776 96.2187C15.6583 95.3064 16.1044 94.4683 16.7594 93.8105C17.4145 93.1527 18.2491 92.7048 19.1577 92.5233C20.0663 92.3418 21.008 92.435 21.8639 92.791C22.7198 93.147 23.4513 93.7498 23.9659 94.5233C24.4806 95.2968 24.7553 96.2061 24.7553 97.1364C24.7539 98.3833 24.2599 99.5788 23.3819 100.461C22.5038 101.342 21.3133 101.838 20.0715 101.84ZM20.0715 93.0979C19.2761 93.0979 18.4986 93.3347 17.8372 93.7785C17.1758 94.2222 16.6604 94.8529 16.356 95.5908C16.0516 96.3287 15.9719 97.1407 16.1271 97.9241C16.2822 98.7074 16.6652 99.427 17.2276 99.9918C17.7901 100.557 18.5067 100.941 19.2868 101.097C20.0669 101.253 20.8755 101.173 21.6104 100.867C22.3452 100.562 22.9733 100.044 23.4152 99.38C23.8572 98.7159 24.093 97.9351 24.093 97.1364C24.0919 96.0657 23.6678 95.0392 22.9139 94.2821C22.1599 93.525 21.1377 93.0991 20.0715 93.0979Z" fill="white"/>
<path d="M21.9051 96.9164L20.4525 95.1427C20.4131 95.0946 20.3638 95.0557 20.3079 95.0286C20.252 95.0015 20.191 94.987 20.1289 94.9859C20.0669 94.9849 20.0054 94.9974 19.9487 95.0226C19.8919 95.0478 19.8413 95.0851 19.8004 95.1319L18.247 96.9056C18.1728 96.9913 18.1354 97.103 18.1429 97.2164C18.1505 97.3298 18.2024 97.4355 18.2874 97.5105C18.3723 97.5856 18.4834 97.6238 18.5963 97.6168C18.7093 97.6098 18.8149 97.5583 18.8901 97.4734L19.6937 96.5557V98.8569C19.6937 98.9709 19.7388 99.0802 19.8191 99.1609C19.8994 99.2415 20.0083 99.2868 20.1218 99.2868C20.2354 99.2868 20.3443 99.2415 20.4246 99.1609C20.5049 99.0802 20.55 98.9709 20.55 98.8569V96.6155L21.2437 97.4626C21.3158 97.5506 21.4198 97.6063 21.5328 97.6174C21.6458 97.6284 21.7586 97.594 21.8463 97.5216C21.934 97.4491 21.9895 97.3447 22.0005 97.2312C22.0115 97.1177 21.9772 97.0045 21.9051 96.9164Z" fill="white"/>
<path d="M121.392 23.0388C120.466 23.0388 119.56 22.763 118.79 22.2462C118.02 21.7294 117.419 20.9948 117.065 20.1354C116.71 19.2759 116.618 18.3302 116.798 17.4179C116.979 16.5055 117.425 15.6674 118.08 15.0096C118.735 14.3519 119.57 13.9039 120.478 13.7224C121.387 13.5409 122.329 13.6341 123.185 13.9901C124.04 14.3461 124.772 14.9489 125.287 15.7224C125.801 16.4959 126.076 17.4053 126.076 18.3355C126.075 19.5824 125.581 20.7779 124.703 21.6597C123.824 22.5414 122.634 23.0374 121.392 23.0388ZM121.392 14.297C120.597 14.297 119.819 14.5339 119.158 14.9776C118.497 15.4213 117.981 16.052 117.677 16.7899C117.372 17.5278 117.293 18.3398 117.448 19.1232C117.603 19.9066 117.986 20.6261 118.548 21.1909C119.111 21.7557 119.827 22.1403 120.607 22.2962C121.388 22.452 122.196 22.3721 122.931 22.0664C123.666 21.7608 124.294 21.2432 124.736 20.5791C125.178 19.915 125.414 19.1342 125.414 18.3355C125.413 17.2648 124.988 16.2383 124.235 15.4812C123.481 14.7241 122.458 14.2983 121.392 14.297Z" fill="white"/>
<path d="M123.226 18.1155L121.773 16.3418C121.734 16.2937 121.684 16.2548 121.629 16.2277C121.573 16.2006 121.512 16.1861 121.45 16.1851C121.388 16.184 121.326 16.1965 121.269 16.2217C121.213 16.2469 121.162 16.2842 121.121 16.331L119.568 18.1047C119.493 18.1904 119.456 18.3022 119.464 18.4155C119.471 18.5289 119.523 18.6346 119.608 18.7096C119.693 18.7847 119.804 18.8229 119.917 18.8159C120.03 18.809 120.136 18.7574 120.211 18.6725L121.014 17.7548V20.056C121.014 20.17 121.059 20.2794 121.14 20.36C121.22 20.4406 121.329 20.4859 121.443 20.4859C121.556 20.4859 121.665 20.4406 121.745 20.36C121.826 20.2794 121.871 20.17 121.871 20.056V17.8146L122.564 18.6617C122.636 18.7498 122.74 18.8054 122.853 18.8165C122.967 18.8276 123.079 18.7931 123.167 18.7207C123.255 18.6483 123.31 18.5438 123.321 18.4303C123.332 18.3168 123.298 18.2036 123.226 18.1155Z" fill="white"/>
</g>
<defs>
<clipPath id="clip0_21_1829">
<rect width="221" height="196" fill="white"/>
</clipPath>
</defs>
</svg>
