<svg width="52" height="50" viewBox="0 0 52 50" fill="none" xmlns="http://www.w3.org/2000/svg">
<g filter="url(#filter0_d_21_1878)">
<path d="M37.8592 18.9892L37.9141 19.3454L38.2694 19.4059C43.4392 20.286 47.375 24.788 47.375 30.2083C47.375 36.2605 42.4689 41.1667 36.4167 41.1667H34.3333C33.4588 41.1667 32.75 40.4578 32.75 39.5833C32.75 38.7088 33.4588 38 34.3333 38H36.4167C40.7199 38 44.2083 34.5116 44.2083 30.2083C44.2083 25.9051 40.7199 22.4167 36.4167 22.4167H34.8333V20.8333C34.8333 15.9548 30.8784 12 26 12C21.1215 12 17.1667 15.9548 17.1667 20.8333V22.4167H15.5833C11.2801 22.4167 7.79167 25.9051 7.79167 30.2083C7.79167 34.5116 11.2801 38 15.5833 38H17.6667C18.5411 38 19.25 38.7089 19.25 39.5833C19.25 40.4578 18.5411 41.1667 17.6667 41.1667H15.5833C9.5312 41.1667 4.625 36.2605 4.625 30.2083C4.625 24.788 8.56082 20.286 13.7305 19.4059L14.0858 19.3454L14.1407 18.9892C15.0276 13.2374 19.9999 8.83333 26 8.83333C32.0001 8.83333 36.9724 13.2374 37.8592 18.9892ZM27.1196 21.7971L27.1196 21.7971L33.3696 28.0471C33.9879 28.6654 33.9879 29.668 33.3696 30.2862C32.7513 30.9045 31.7487 30.9045 31.1304 30.2862L28.4369 27.5927L27.5833 26.7391V27.9462V39.5833C27.5833 40.4578 26.8745 41.1667 26 41.1667C25.1255 41.1667 24.4167 40.4578 24.4167 39.5833V27.9462V26.7391L23.5631 27.5927L20.8696 30.2862C20.8696 30.2862 20.8696 30.2862 20.8696 30.2862C20.2512 30.9045 19.2487 30.9045 18.6304 30.2862C18.0121 29.668 18.0121 28.6654 18.6304 28.0471L18.2769 27.6935L18.6304 28.0471L24.8804 21.7971L24.8804 21.7971C25.4987 21.1788 26.5013 21.1788 27.1196 21.7971Z" fill="#29638A" stroke="#29638A"/>
</g>
<defs>
<filter id="filter0_d_21_1878" x="-3" y="0" width="58" height="58" filterUnits="userSpaceOnUse" color-interpolation-filters="sRGB">
<feFlood flood-opacity="0" result="BackgroundImageFix"/>
<feColorMatrix in="SourceAlpha" type="matrix" values="0 0 0 0 0 0 0 0 0 0 0 0 0 0 0 0 0 0 127 0" result="hardAlpha"/>
<feOffset dy="4"/>
<feGaussianBlur stdDeviation="2"/>
<feComposite in2="hardAlpha" operator="out"/>
<feColorMatrix type="matrix" values="0 0 0 0 0 0 0 0 0 0 0 0 0 0 0 0 0 0 0.25 0"/>
<feBlend mode="normal" in2="BackgroundImageFix" result="effect1_dropShadow_21_1878"/>
<feBlend mode="normal" in="SourceGraphic" in2="effect1_dropShadow_21_1878" result="shape"/>
</filter>
</defs>
</svg>
